<?xml version="1.0" encoding="UTF-8"?>
<svg xmlns="http://www.w3.org/2000/svg" xmlns:xlink="http://www.w3.org/1999/xlink" width="95px" height="101px" viewBox="0 0 95 101" version="1.1">
<g id="surface1">
<path style=" stroke:none;fill-rule:nonzero;fill:rgb(0%,0%,0%);fill-opacity:1;" d="M 49.878906 82.628906 C 49.625 83.578125 49.265625 83.910156 48.542969 83.902344 C 47.707031 83.890625 47.363281 83.53125 47.050781 82.671875 C 46.21875 80.394531 44.761719 78.683594 42.421875 77.8125 C 40.449219 77.082031 38.375 76.652344 36.496094 75.65625 C 35.078125 74.90625 33.953125 73.839844 32.847656 72.722656 C 32.257812 72.125 31.660156 71.539062 31.066406 70.949219 C 30.75 70.632812 30.425781 70.585938 30.023438 70.816406 C 29.371094 71.195312 28.730469 71.59375 28.160156 72.085938 C 27.839844 72.363281 27.621094 72.382812 27.320312 72.03125 C 24.601562 68.871094 21.871094 65.722656 19.128906 62.585938 C 18.765625 62.171875 18.757812 61.921875 19.207031 61.550781 C 21.804688 59.417969 24.257812 57.132812 26.21875 54.386719 C 28.472656 51.226562 30.207031 47.800781 30.828125 43.9375 C 31.183594 41.730469 30.953125 39.496094 30.578125 37.28125 C 30.171875 34.878906 28.914062 33.050781 26.949219 31.664062 C 26.429688 31.296875 25.871094 31.066406 25.214844 31.058594 C 24.128906 31.050781 23.46875 31.652344 23.382812 32.757812 C 23.246094 34.558594 24.023438 35.867188 25.542969 36.761719 C 26.078125 37.078125 26.644531 37.34375 27.199219 37.632812 C 28.003906 38.058594 28.671875 38.613281 28.90625 39.539062 C 29.050781 40.113281 28.855469 40.609375 28.417969 40.984375 C 28.015625 41.328125 27.542969 41.3125 27.074219 41.132812 C 26.859375 41.050781 26.652344 40.929688 26.683594 40.648438 C 26.902344 40.480469 27.078125 40.65625 27.261719 40.660156 C 27.558594 40.667969 27.839844 40.628906 27.957031 40.316406 C 28.074219 39.996094 27.886719 39.789062 27.621094 39.636719 C 26.941406 39.257812 26.21875 38.984375 25.492188 38.722656 C 22.390625 37.597656 21.167969 35.375 21.269531 32.320312 C 21.324219 30.628906 22.460938 29.308594 24.28125 28.910156 C 26.878906 28.34375 28.597656 26.730469 29.90625 24.550781 C 30.347656 23.816406 30.738281 23.050781 31.277344 22.371094 C 32.234375 21.171875 33.527344 21.003906 34.695312 21.988281 C 36.320312 23.355469 37.925781 24.75 39.519531 26.15625 C 40.804688 27.285156 42.292969 28.023438 43.914062 28.507812 C 44.3125 28.628906 44.765625 28.585938 45.195312 28.59375 C 46.054688 28.605469 46.796875 28.839844 47.320312 29.582031 C 47.480469 29.808594 47.703125 29.996094 47.921875 30.164062 C 48.335938 30.472656 48.761719 30.46875 49.148438 30.101562 C 49.367188 29.898438 49.578125 29.679688 49.765625 29.449219 C 50.222656 28.886719 50.8125 28.65625 51.527344 28.683594 C 53.40625 28.753906 55 27.957031 56.460938 26.910156 C 58.523438 25.429688 60.339844 23.652344 62.265625 22.003906 C 63.320312 21.101562 64.671875 21.253906 65.566406 22.332031 C 66.160156 23.046875 66.574219 23.878906 67.046875 24.667969 C 68.015625 26.285156 69.246094 27.628906 70.984375 28.449219 C 71.457031 28.671875 71.945312 28.824219 72.449219 28.929688 C 74.6875 29.382812 75.9375 31.191406 75.65625 33.472656 C 75.320312 36.183594 73.878906 37.953125 71.296875 38.820312 C 70.929688 38.941406 70.574219 39.105469 70.21875 39.25 C 69.609375 39.496094 68.882812 39.667969 69.40625 40.59375 C 68.503906 40.703125 67.925781 39.910156 68.160156 39.027344 C 68.316406 38.4375 68.722656 38.066406 69.273438 37.863281 C 69.980469 37.601562 70.644531 37.246094 71.292969 36.871094 C 72.894531 35.953125 73.714844 34.609375 73.542969 32.726562 C 73.425781 31.480469 72.425781 30.78125 71.136719 31.164062 C 69.699219 31.59375 68.710938 32.628906 67.820312 33.792969 C 66.582031 35.40625 66.210938 37.289062 66.058594 39.222656 C 65.867188 41.707031 65.820312 44.195312 66.675781 46.601562 C 68.074219 50.527344 70.050781 54.101562 72.929688 57.160156 C 74.402344 58.730469 75.992188 60.167969 77.628906 61.566406 C 78.230469 62.078125 78.230469 62.105469 77.695312 62.722656 C 75.066406 65.757812 72.441406 68.796875 69.816406 71.835938 C 69.25 72.492188 69.265625 72.484375 68.558594 71.976562 C 68.019531 71.589844 67.449219 71.246094 66.894531 70.875 C 66.515625 70.621094 66.195312 70.679688 65.855469 70.980469 C 65.082031 71.671875 64.390625 72.4375 63.683594 73.183594 C 62.023438 74.945312 60.027344 76.140625 57.699219 76.816406 C 56.484375 77.167969 55.246094 77.5 54.09375 78.007812 C 52.050781 78.910156 50.707031 80.523438 49.878906 82.628906 M 37.601562 35.929688 C 37.253906 35.855469 37.125 35.710938 37.328125 35.347656 C 37.601562 34.855469 37.589844 34.746094 37.480469 34.066406 C 37.429688 35.097656 37.230469 35.433594 36.554688 35.625 C 36.382812 35.675781 36.207031 35.730469 36.070312 35.582031 C 35.914062 35.414062 36.046875 35.261719 36.144531 35.125 C 36.527344 34.589844 36.53125 33.917969 36.851562 33.421875 C 36.644531 33.09375 36.152344 33.140625 36.199219 32.671875 C 36.429688 32.488281 36.863281 32.550781 36.921875 32.132812 C 36.800781 31.835938 36.292969 31.882812 36.3125 31.414062 C 36.90625 31.148438 37.535156 30.875 37.828125 30.222656 C 37.648438 29.921875 37.132812 30.0625 37.144531 29.5625 C 37.597656 29.46875 38.03125 29.308594 38.449219 29.105469 C 39.320312 28.675781 39.445312 28.710938 39.925781 29.554688 C 40.261719 30.148438 40.660156 30.585938 41.433594 30.539062 C 41.929688 30.507812 42.316406 30.8125 42.6875 31.128906 C 43.078125 31.460938 43.367188 31.898438 43.832031 32.15625 C 44.550781 32.550781 44.699219 33.347656 44.1875 33.992188 C 43.945312 34.300781 43.667969 34.53125 43.457031 33.957031 C 43.394531 33.78125 43.300781 33.703125 43.121094 33.761719 C 42.953125 33.816406 42.894531 33.945312 42.902344 34.113281 C 42.914062 34.507812 43.167969 34.625 43.507812 34.613281 C 44.117188 34.597656 44.179688 34.933594 44.058594 35.414062 C 43.96875 35.773438 43.828125 36.089844 43.4375 36.257812 C 43.886719 36.476562 43.984375 36.148438 44.101562 35.917969 C 44.355469 35.414062 44.628906 34.929688 45.007812 34.515625 C 45.316406 34.179688 46.230469 34.113281 46.570312 34.394531 C 46.90625 34.671875 46.933594 35.117188 46.710938 35.382812 C 46.234375 35.953125 46.179688 36.703125 45.765625 37.296875 C 45.554688 37.601562 45.53125 38.027344 45.050781 37.835938 C 44.828125 38.085938 45.078125 38.464844 44.71875 38.597656 C 44.378906 38.535156 44.476562 38.160156 44.246094 37.980469 C 43.855469 38.25 43.375 38.148438 42.929688 38.199219 C 42.84375 38.574219 42.996094 38.84375 43.207031 39.054688 C 43.953125 39.808594 44.753906 40.488281 45.863281 40.640625 C 46.164062 40.683594 46.523438 40.707031 46.597656 41.054688 C 46.699219 41.519531 47.007812 41.488281 47.332031 41.453125 C 47.769531 41.40625 47.714844 41.054688 47.714844 40.765625 C 47.71875 38.058594 47.714844 35.355469 47.714844 32.648438 C 47.714844 32.4375 47.757812 32.191406 47.523438 32.074219 C 46.839844 31.722656 46.308594 31.195312 45.804688 30.636719 C 45.625 30.4375 45.386719 30.4375 45.148438 30.433594 C 43.316406 30.375 41.65625 29.769531 40.125 28.808594 C 37.984375 27.460938 36.175781 25.707031 34.300781 24.035156 C 32.546875 22.46875 31.671875 22.609375 30.484375 24.644531 C 29.597656 26.160156 28.546875 27.53125 27 28.449219 C 26.855469 28.535156 26.695312 28.617188 26.691406 28.871094 C 26.957031 29.171875 27.402344 29.1875 27.738281 29.402344 C 30.402344 31.121094 32.214844 33.425781 32.832031 36.59375 C 33.191406 38.433594 33.222656 40.296875 33.28125 42.15625 C 33.308594 43.113281 33.304688 44.09375 33.054688 45.035156 C 32.722656 46.277344 32.410156 47.523438 31.917969 48.71875 C 31.820312 48.960938 31.648438 49.28125 32.085938 49.390625 C 32.429688 49.476562 32.675781 49.394531 32.859375 49.019531 C 33.503906 47.71875 33.886719 46.390625 33.539062 44.929688 C 33.472656 44.65625 33.511719 44.378906 33.804688 44.199219 C 34.644531 43.6875 34.628906 43.691406 34.164062 42.796875 C 33.742188 41.984375 33.417969 41.144531 33.835938 40.21875 C 33.925781 40.023438 33.882812 39.847656 33.785156 39.667969 C 33.308594 38.8125 33.375 37.964844 33.71875 37.066406 C 34.410156 35.261719 34.867188 33.386719 35.027344 31.453125 C 35.089844 30.707031 34.835938 30.183594 34.28125 29.996094 C 34.167969 30.492188 34.429688 30.914062 34.519531 31.363281 C 34.722656 32.386719 34.722656 33.34375 33.925781 34.183594 C 33.519531 34.609375 33.292969 34.285156 32.988281 34.128906 C 32.609375 33.9375 32.832031 33.710938 32.941406 33.492188 C 33.160156 33.050781 33.207031 32.605469 33.074219 32.085938 C 32.710938 32.320312 32.777344 32.980469 32.085938 32.648438 C 32.667969 31.984375 32.378906 31.40625 31.949219 30.847656 C 31.910156 30.796875 31.886719 30.734375 31.859375 30.675781 C 31.417969 29.800781 31.664062 28.878906 32.492188 28.304688 C 33.164062 27.839844 34.152344 27.992188 34.761719 28.695312 C 35.261719 29.28125 35.511719 29.996094 35.640625 30.742188 C 35.917969 32.386719 35.609375 33.984375 35.144531 35.554688 C 34.933594 36.277344 34.761719 37.007812 34.65625 37.75 C 34.542969 38.535156 34.78125 39.109375 35.238281 39.238281 C 35.738281 39.382812 36.105469 39.070312 36.425781 38.230469 C 36.507812 38.011719 36.582031 37.785156 36.675781 37.570312 C 36.933594 36.980469 37.199219 36.390625 37.765625 35.902344 C 38.589844 35.308594 38.304688 34.335938 38.550781 33.542969 C 38.296875 34.355469 38.304688 35.261719 37.601562 35.929688 M 55.996094 53.375 C 56.003906 51.445312 56.078125 49.507812 55.992188 47.582031 C 55.921875 45.910156 56.359375 44.542969 57.734375 43.527344 C 58.046875 43.296875 58.050781 43.0625 57.753906 42.792969 C 57.28125 42.359375 56.824219 41.902344 56.359375 41.457031 C 55.382812 40.519531 55.386719 40.523438 54.382812 41.414062 C 53.828125 41.902344 53.246094 42.300781 52.433594 42.253906 C 49.8125 42.09375 47.1875 42.175781 44.5625 42.195312 C 43.722656 42.203125 43.078125 41.945312 42.46875 41.410156 C 41.46875 40.539062 41.441406 40.539062 40.515625 41.46875 C 39.949219 42.039062 39.429688 42.660156 38.867188 43.28125 C 38.972656 43.46875 39.269531 43.59375 39.460938 43.820312 C 40.050781 44.507812 40.824219 45.066406 40.8125 46.136719 C 40.785156 48.925781 40.792969 51.71875 40.8125 54.507812 C 40.816406 55.128906 40.625 55.640625 40.214844 56.085938 C 39.796875 56.539062 39.378906 56.992188 39.003906 57.394531 C 39.527344 57.957031 40 58.515625 40.523438 59.015625 C 41.609375 60.0625 41.226562 60.152344 42.609375 59.09375 C 43.089844 58.726562 43.527344 58.34375 44.199219 58.347656 C 46.972656 58.367188 49.746094 58.359375 52.523438 58.363281 C 53.121094 58.367188 53.664062 58.535156 54.125 58.9375 C 54.429688 59.207031 54.75 59.460938 55.058594 59.730469 C 55.285156 59.929688 55.492188 59.984375 55.726562 59.746094 C 56.375 59.085938 57.03125 58.433594 57.683594 57.78125 C 57.90625 57.5625 57.945312 57.34375 57.691406 57.125 C 57.226562 56.726562 56.878906 56.1875 56.269531 55.988281 C 56.25 55.230469 56.25 55.230469 55.597656 54.714844 C 55.890625 54.367188 56.066406 53.96875 55.996094 53.375 M 56.234375 32.878906 C 55.28125 33.589844 54.289062 34.234375 53.09375 34.449219 C 52.585938 34.539062 52.179688 34.796875 51.773438 35.074219 C 50.871094 35.675781 50.867188 36.085938 51.761719 36.582031 C 51.777344 36.589844 51.777344 36.621094 51.828125 36.753906 C 51.085938 36.765625 50.601562 37.464844 49.789062 37.417969 C 50.191406 36.972656 50.148438 36.433594 50.277344 35.945312 C 50.339844 35.703125 50.425781 35.429688 50.589844 35.25 C 50.921875 34.890625 51.097656 34.5625 50.851562 34.066406 C 50.734375 33.839844 50.84375 33.566406 51.023438 33.351562 C 51.671875 32.582031 52.3125 31.800781 52.964844 31.03125 C 53.429688 30.484375 54.042969 30.136719 54.726562 30.027344 C 56.019531 29.824219 57.1875 29.28125 58.386719 28.820312 C 60.558594 27.988281 63.121094 28.738281 64.296875 30.53125 C 65.113281 31.773438 65.089844 33.835938 64.242188 34.773438 C 63.632812 35.449219 62.917969 35.984375 62.113281 36.417969 C 61.03125 37.003906 59.882812 37.429688 58.746094 37.882812 C 57.910156 38.21875 57.089844 38.597656 56.3125 39.0625 C 55.625 39.476562 55.601562 39.734375 56.082031 40.300781 C 56.417969 40.695312 56.804688 41.03125 57.175781 41.394531 C 57.53125 41.742188 57.847656 41.796875 58.316406 41.558594 C 60.183594 40.625 63.378906 41.378906 63.648438 44.433594 C 63.804688 46.1875 63.515625 47.777344 61.984375 48.90625 C 61.867188 48.992188 61.734375 49.09375 61.859375 49.414062 C 62.894531 49.429688 63.984375 49.476562 65.109375 49.375 C 65.074219 48.753906 64.828125 48.273438 64.644531 47.777344 C 63.957031 45.910156 63.480469 43.992188 63.636719 41.992188 C 63.75 40.5 63.765625 39.003906 63.949219 37.511719 C 64.371094 34.125 66.078125 31.609375 68.820312 29.6875 C 69.300781 29.351562 69.917969 29.253906 70.390625 28.808594 C 69.757812 28.382812 69.148438 28.019531 68.636719 27.523438 C 67.59375 26.511719 66.792969 25.328125 66.054688 24.082031 C 65.324219 22.84375 64.324219 22.695312 63.214844 23.59375 C 62.78125 23.941406 62.375 24.328125 61.953125 24.695312 C 60.25 26.167969 58.628906 27.75 56.691406 28.929688 C 55.378906 29.730469 53.964844 30.332031 52.414062 30.421875 C 51.6875 30.464844 51.085938 30.542969 50.632812 31.195312 C 50.425781 31.496094 50.0625 31.71875 49.730469 31.90625 C 49.347656 32.125 49.203125 32.394531 49.207031 32.835938 C 49.222656 35.457031 49.210938 38.074219 49.21875 40.695312 C 49.21875 41.007812 49.085938 41.40625 49.628906 41.476562 C 50.542969 41.597656 50.964844 41.480469 51.132812 40.964844 C 51.585938 39.566406 52.46875 38.492188 53.625 37.613281 C 55 36.570312 56.566406 35.941406 58.175781 35.382812 C 59.292969 34.996094 60.414062 34.609375 61.402344 33.933594 C 61.988281 33.535156 62.316406 32.679688 62.144531 32.070312 C 61.96875 31.460938 61.320312 31.003906 60.5625 30.941406 C 59.71875 30.875 58.933594 31.066406 58.226562 31.515625 C 57.570312 31.929688 56.945312 32.382812 56.234375 32.878906 M 45.082031 73.417969 C 44.832031 73.632812 44.585938 73.863281 44.230469 73.621094 C 44.019531 73.476562 43.859375 73.589844 43.714844 73.71875 C 43.191406 74.1875 42.574219 74.386719 41.882812 74.378906 C 41.511719 74.371094 41.261719 74.554688 41.042969 74.863281 C 42.242188 75.386719 43.496094 75.582031 44.589844 76.199219 C 45.6875 76.816406 46.539062 77.75 47.496094 78.527344 C 47.796875 78.25 47.710938 77.976562 47.710938 77.730469 C 47.71875 71.894531 47.714844 66.058594 47.714844 60.222656 C 47.714844 60.074219 47.710938 59.921875 47.714844 59.773438 C 47.730469 59.269531 47.519531 59.015625 46.984375 59.039062 C 46.511719 59.0625 46.035156 59.085938 45.566406 59.035156 C 44.375 58.90625 43.328125 59.121094 42.488281 60.058594 C 42.230469 60.351562 41.8125 60.5 41.636719 60.945312 C 42.546875 61.601562 43.386719 62.289062 44.117188 63.109375 C 45.105469 64.210938 45.84375 65.40625 45.734375 66.964844 C 45.710938 67.292969 45.835938 67.597656 45.921875 67.90625 C 46.457031 69.832031 46.417969 71.679688 45.082031 73.417969 M 52.265625 70.402344 C 51.589844 68.566406 51.246094 66.679688 51.390625 64.71875 C 51.515625 62.996094 51.703125 61.289062 53.039062 59.972656 C 53.195312 59.820312 53.460938 59.660156 53.339844 59.390625 C 53.222656 59.136719 52.945312 59.0625 52.679688 59.058594 C 51.796875 59.046875 50.914062 59.078125 50.035156 59.035156 C 49.425781 59.003906 49.199219 59.207031 49.199219 59.835938 C 49.21875 65.867188 49.210938 71.898438 49.21875 77.933594 C 49.222656 78.148438 49.128906 78.414062 49.398438 78.558594 C 49.449219 78.542969 49.503906 78.546875 49.53125 78.523438 C 50.863281 77.222656 52.261719 76.039062 54.105469 75.503906 C 54.527344 75.378906 54.496094 75.078125 54.265625 74.742188 C 53.378906 73.433594 52.742188 72.007812 52.265625 70.402344 M 34.863281 71.421875 C 35.414062 71.929688 35.96875 72.4375 36.523438 72.941406 C 36.796875 73.191406 37.042969 73.195312 37.277344 72.875 C 37.589844 72.445312 38.035156 72.183594 38.523438 71.992188 C 39.371094 71.660156 39.378906 71.621094 38.707031 70.972656 C 37.890625 70.191406 37.328125 69.28125 37.257812 68.125 C 37.238281 67.785156 37.066406 67.613281 36.757812 67.554688 C 36.09375 67.433594 35.582031 67.054688 35.121094 66.59375 C 34.707031 66.183594 34.292969 65.785156 33.800781 65.46875 C 33.675781 65.386719 33.550781 65.214844 33.410156 65.277344 C 32.742188 65.59375 32.066406 65.421875 31.386719 65.378906 C 31.269531 65.371094 31.085938 65.421875 31.039062 65.503906 C 30.644531 66.199219 30.003906 66.359375 29.296875 66.660156 C 28.53125 66.980469 28.0625 66.980469 27.445312 66.605469 C 27.324219 66.53125 27.160156 66.515625 27.011719 66.5 C 26.699219 66.46875 26.476562 66.632812 26.316406 66.878906 C 26.136719 67.152344 26.375 67.316406 26.515625 67.492188 C 26.800781 67.839844 27.105469 68.171875 27.394531 68.519531 C 28.019531 69.257812 28.019531 69.257812 28.878906 68.769531 C 30.203125 68.015625 31.5625 68.164062 32.660156 69.214844 C 33.386719 69.914062 34.085938 70.644531 34.863281 71.421875 M 37.625 51.328125 C 35.539062 51.335938 33.453125 51.363281 31.367188 51.339844 C 30.898438 51.332031 30.675781 51.488281 30.484375 51.890625 C 29.410156 54.15625 27.949219 56.167969 26.257812 58.015625 C 25.324219 59.039062 25.292969 59.050781 26.40625 59.855469 C 27.066406 60.332031 27.855469 60.480469 28.742188 60.636719 C 28.4375 60.070312 28.90625 59.425781 28.269531 59.078125 C 28.257812 59.070312 28.339844 58.894531 28.375 58.796875 C 28.714844 57.863281 29.113281 56.980469 30.070312 56.480469 C 30.277344 56.375 30.390625 56.085938 30.550781 55.886719 C 31.140625 55.160156 30.902344 54.203125 31.261719 53.390625 C 31.519531 52.816406 31.78125 52.472656 32.414062 52.523438 C 32.773438 52.550781 33.132812 52.652344 33.492188 52.683594 C 34.640625 52.789062 35.664062 53.164062 36.480469 54.015625 C 36.921875 54.476562 37.460938 54.792969 38.089844 54.914062 C 38.699219 55.03125 39.242188 55.210938 39.382812 55.953125 C 39.828125 55.589844 40.050781 55.160156 40.074219 54.683594 C 40.109375 53.785156 40.085938 52.882812 40.074219 51.980469 C 40.066406 51.539062 39.808594 51.328125 39.367188 51.328125 C 38.828125 51.332031 38.292969 51.328125 37.625 51.328125 M 73.742188 61.214844 C 72.113281 59.742188 70.664062 58.089844 69.164062 56.464844 C 70.511719 58.101562 70.65625 60.007812 70.667969 62.011719 C 70.683594 64.035156 70.140625 65.851562 69.25 67.617188 C 69.019531 68.082031 68.660156 68.492188 68.558594 69.066406 C 69.097656 69.265625 69.296875 68.855469 69.523438 68.589844 C 71.007812 66.867188 72.476562 65.132812 73.953125 63.402344 C 74.890625 62.300781 74.894531 62.300781 73.742188 61.214844 M 67.953125 54.859375 C 68.0625 54.980469 68.109375 55.164062 68.414062 55.261719 C 67.605469 54.1875 67.003906 53.109375 66.472656 52 C 66.253906 51.539062 65.9375 51.414062 65.453125 51.417969 C 63 51.4375 60.546875 51.421875 58.097656 51.429688 C 56.523438 51.433594 56.714844 51.242188 56.703125 52.929688 C 56.703125 52.949219 56.703125 52.972656 56.707031 52.992188 C 56.738281 53.398438 56.929688 53.476562 57.261719 53.257812 C 58.957031 52.140625 60.652344 53.015625 61.367188 54.5625 C 61.628906 55.125 61.914062 55.679688 62.207031 56.226562 C 62.367188 56.527344 62.613281 56.777344 62.988281 56.582031 C 63.347656 56.394531 63.230469 56.082031 63.109375 55.792969 C 62.925781 55.359375 62.761719 54.917969 62.683594 54.449219 C 62.488281 53.226562 62.9375 52.683594 64.195312 52.652344 C 65.863281 52.613281 67.0625 53.394531 67.953125 54.859375 M 26.792969 62.378906 C 26.257812 61.574219 25.546875 61.113281 24.539062 61.148438 C 24.292969 61.15625 24.042969 61.109375 23.796875 60.992188 C 23.457031 60.832031 22.082031 61.976562 22.15625 62.339844 C 22.179688 62.453125 22.28125 62.558594 22.363281 62.65625 C 23.054688 63.472656 23.761719 64.277344 24.445312 65.101562 C 24.695312 65.402344 24.910156 65.441406 25.171875 65.136719 C 25.542969 64.710938 26.015625 64.550781 26.5625 64.660156 C 27.371094 64.820312 27.953125 64.4375 28.507812 63.925781 C 28.769531 63.683594 28.800781 63.488281 28.546875 63.230469 C 28.082031 62.757812 27.640625 62.257812 26.792969 62.378906 M 61.113281 66.40625 C 61.132812 66.230469 61.296875 66.039062 61.015625 65.863281 C 60.300781 66.40625 59.824219 67.085938 59.8125 68.023438 C 59.800781 68.710938 59.304688 69.3125 59.449219 70.03125 C 59.464844 70.109375 59.375 70.246094 59.292969 70.296875 C 58.949219 70.53125 58.847656 70.847656 58.886719 71.242188 C 58.910156 71.445312 58.839844 71.636719 58.683594 71.761719 C 58.417969 71.976562 58.386719 72.25 58.371094 72.5625 C 58.34375 73.183594 58.125 73.695312 57.4375 73.855469 C 57.199219 73.914062 57.019531 74.042969 57.097656 74.304688 C 57.183594 74.582031 57.402344 74.449219 57.582031 74.398438 C 59.492188 73.859375 60.960938 72.667969 62.261719 71.238281 C 62.464844 71.015625 62.394531 70.875 62.140625 70.746094 C 62.03125 70.910156 61.945312 71.058594 61.839844 71.1875 C 61.738281 71.3125 61.683594 71.511719 61.457031 71.476562 C 60.972656 70.636719 60.972656 70.636719 60.125 71.328125 C 59.664062 70.175781 60.75 69.933594 61.269531 69.3125 C 61.074219 69.09375 61.15625 68.777344 61.09375 68.535156 C 61 68.148438 61.171875 67.746094 61.042969 67.457031 C 60.875 67.078125 60.949219 66.808594 61.113281 66.40625 M 37.449219 45.835938 C 36.804688 46.121094 36.140625 46.378906 35.515625 46.703125 C 35.074219 46.929688 34.632812 47.253906 34.789062 47.847656 C 34.929688 48.390625 35.40625 48.511719 35.902344 48.542969 C 36.210938 48.566406 36.566406 48.578125 36.683594 48.882812 C 36.925781 49.507812 37.414062 49.425781 37.902344 49.421875 C 38.257812 49.421875 38.558594 49.363281 38.566406 48.917969 C 38.578125 48.46875 38.253906 48.488281 37.945312 48.472656 C 37.476562 48.445312 37.09375 48.320312 37.234375 47.703125 C 36.996094 47.648438 36.785156 47.613281 36.582031 47.546875 C 36.417969 47.496094 36.242188 47.421875 36.238281 47.214844 C 36.230469 47.003906 36.40625 46.9375 36.566406 46.871094 C 37.585938 46.4375 38.109375 45.625 38.277344 44.566406 C 38.316406 44.320312 38.332031 44.09375 38.710938 43.957031 C 38.433594 43.882812 38.394531 43.6875 38.207031 43.710938 C 38.171875 44.46875 38.253906 45.257812 37.449219 45.835938 M 41.328125 72.898438 C 41.222656 72.890625 41.105469 72.914062 41.019531 72.871094 C 40.402344 72.5625 39.488281 72.746094 39.261719 73.351562 C 39.125 73.703125 38.921875 73.855469 38.46875 74.007812 C 38.824219 74.082031 38.972656 74.332031 39.207031 74.128906 C 39.871094 73.550781 40.648438 73.386719 41.519531 73.382812 C 42.339844 73.382812 42.710938 72.960938 42.710938 72.1875 C 42.265625 72.417969 41.882812 72.730469 41.328125 72.898438 M 38.042969 58.96875 C 38.773438 59.347656 39.507812 59.726562 40.238281 60.105469 C 39.691406 59.105469 38.832031 58.441406 38.070312 57.636719 C 37.6875 57.933594 37.253906 58.015625 36.722656 58.078125 C 37.132812 58.484375 37.539062 58.714844 38.042969 58.96875 M 63.007812 59.113281 C 63.007812 59.664062 63.007812 60.214844 63.007812 60.765625 C 63.148438 60.035156 63.617188 59.46875 63.894531 58.832031 C 64.324219 57.851562 64.382812 57.375 63.886719 56.898438 C 63.558594 57.164062 63.4375 57.625 62.9375 57.832031 C 63.554688 58.230469 62.894531 58.605469 63.007812 59.113281 M 39.132812 46.710938 C 39.089844 47.378906 39.40625 47.835938 40.109375 48.257812 C 39.972656 47.035156 40.5 45.84375 39.453125 44.886719 C 39.699219 45.53125 39.199219 46.027344 39.132812 46.710938 M 56.917969 49.277344 C 57.320312 49.5 57.714844 49.507812 58.226562 49.21875 C 57.550781 48.457031 57.144531 47.597656 57.027344 46.597656 C 56.652344 47.46875 56.609375 48.324219 56.917969 49.277344 M 61.265625 46.519531 C 61.664062 45.648438 61.558594 44.953125 60.949219 44.4375 C 60.460938 44.023438 59.765625 43.960938 59.246094 44.320312 C 59.730469 44.472656 60.21875 44.554688 60.445312 45.085938 C 60.65625 45.574219 60.722656 46.152344 61.265625 46.519531 M 59.757812 45.78125 C 59.285156 45.496094 58.964844 45.714844 58.757812 46.125 C 58.515625 46.609375 58.550781 47.105469 58.984375 47.46875 C 59.273438 47.714844 59.628906 47.753906 59.921875 47.457031 C 59.914062 47.179688 59.613281 47.101562 59.636719 46.8125 C 59.882812 46.554688 60.257812 46.273438 59.757812 45.78125 M 34.648438 53.855469 C 34.164062 53.695312 33.746094 53.289062 33.140625 53.414062 C 33.316406 54.585938 34.773438 54.167969 35.117188 55.144531 C 35.335938 54.933594 35.609375 55.011719 35.894531 54.921875 C 35.570312 54.457031 35.203125 54.121094 34.648438 53.855469 M 37.550781 56.574219 C 37.242188 56.085938 36.746094 56.148438 36.304688 56.242188 C 35.964844 56.3125 35.820312 56.625 36.109375 56.921875 C 36.476562 57.289062 36.90625 57.558594 37.554688 57.300781 C 36.960938 57.039062 37.480469 56.867188 37.550781 56.574219 M 62.828125 68.691406 C 62.429688 69.328125 63.03125 69.71875 63.113281 70.359375 C 63.558594 69.890625 64.039062 69.644531 64.054688 69.054688 C 63.777344 69.027344 63.835938 69.425781 63.519531 69.316406 C 63.386719 69.066406 63.324219 68.675781 62.828125 68.691406 M 63.828125 67.261719 C 64.074219 67.277344 64.277344 67.527344 64.589844 67.390625 C 64.675781 67.027344 64.472656 66.929688 64.152344 66.902344 C 63.402344 66.832031 63.292969 66.886719 63.140625 67.453125 C 63.335938 67.390625 63.535156 67.324219 63.828125 67.261719 M 40.886719 35.503906 C 40.832031 35.160156 41.058594 34.859375 41.101562 34.359375 C 40.332031 35.0625 41.125 35.914062 40.542969 36.574219 C 41.070312 36.3125 41.082031 36.757812 41.292969 37.050781 C 41.265625 36.464844 40.792969 36.121094 40.886719 35.503906 M 64.816406 65.230469 C 65.078125 65.550781 64.617188 66.0625 65.101562 66.328125 C 64.984375 65.207031 64.695312 64.148438 63.902344 63.277344 C 64.15625 63.917969 64.664062 64.449219 64.816406 65.230469 M 65.589844 63.578125 C 66.390625 62.921875 66.53125 61.957031 66.78125 61.042969 C 66.5 61.9375 66.109375 62.773438 65.589844 63.578125 M 65.085938 60.253906 C 64.832031 60.644531 64.574219 61.035156 64.257812 61.519531 C 64.695312 61.292969 64.84375 60.976562 65.019531 60.6875 C 65.199219 60.390625 65.289062 60.027344 65.710938 59.875 C 65.242188 59.566406 65.246094 59.976562 65.085938 60.253906 M 40.097656 35.742188 C 39.992188 35.28125 39.917969 34.820312 39.984375 34.339844 C 39.570312 35.039062 40.257812 35.796875 39.816406 36.496094 C 40.085938 36.339844 40.105469 36.097656 40.097656 35.742188 M 40.046875 39.773438 C 40.03125 39.808594 40.015625 39.847656 40.003906 39.886719 C 40.003906 39.894531 40.039062 39.921875 40.054688 39.921875 C 40.457031 39.8125 40.753906 39.535156 41.164062 39.296875 C 40.597656 39.117188 40.367188 39.46875 40.046875 39.773438 M 39.015625 35.484375 C 38.964844 36.082031 38.738281 36.535156 37.96875 36.675781 C 38.835938 36.640625 39.101562 36.3125 39.015625 35.484375 M 65.910156 67.957031 C 65.917969 68.175781 65.992188 68.320312 66.253906 68.273438 C 66.421875 67.953125 66.257812 67.71875 66.050781 67.457031 C 66.007812 67.621094 65.976562 67.753906 65.910156 67.957031 M 41.660156 69.640625 C 41.761719 69.753906 41.90625 69.804688 41.960938 69.644531 C 42.054688 69.378906 41.914062 69.207031 41.65625 69.136719 C 41.414062 69.273438 41.550781 69.429688 41.660156 69.640625 M 42.15625 36.675781 C 42.140625 36.371094 42.363281 36.308594 42.730469 36.300781 C 42.414062 36.160156 42.226562 36.082031 41.96875 35.96875 C 42.101562 36.332031 42.046875 36.632812 42.070312 36.929688 C 42.09375 36.871094 42.117188 36.808594 42.15625 36.675781 Z M 42.15625 36.675781 "/>
<path style=" stroke:none;fill-rule:nonzero;fill:rgb(0%,0%,0%);fill-opacity:1;" d="M 23.75 90.175781 C 22.429688 89.03125 21.269531 87.796875 20.222656 86.457031 C 19.566406 85.613281 19.683594 85.019531 20.566406 84.40625 C 21.214844 83.957031 21.839844 83.464844 22.515625 82.964844 C 22.210938 82.5 21.761719 82.277344 21.359375 82.019531 C 16.441406 78.816406 12.425781 74.726562 9.226562 69.820312 C 7.921875 67.816406 6.796875 65.714844 5.96875 63.472656 C 5.3125 61.691406 5.140625 59.800781 5.09375 57.910156 C 5.089844 57.691406 5.042969 57.429688 5.355469 57.191406 C 6.558594 58.382812 6.71875 60.222656 7.949219 61.464844 C 8.414062 60.484375 8.652344 59.460938 9.132812 58.539062 C 9.617188 57.601562 10.175781 56.765625 11.34375 56.554688 C 11.359375 56.640625 11.398438 56.714844 11.378906 56.757812 C 10.433594 58.433594 10.910156 60.074219 11.644531 61.621094 C 13.183594 64.867188 15.046875 67.902344 17.386719 70.664062 C 19.183594 72.792969 21.097656 74.765625 23.296875 76.46875 C 25.007812 77.800781 26.820312 78.988281 28.609375 80.210938 C 29.226562 80.628906 29.839844 81.082031 30.28125 81.710938 C 30.789062 82.441406 30.707031 82.8125 29.96875 83.296875 C 29.363281 83.695312 28.660156 83.941406 28.078125 84.4375 C 28.328125 84.886719 28.730469 85.144531 29.097656 85.417969 C 31.777344 87.417969 34.777344 88.753906 37.960938 89.746094 C 41.527344 90.855469 45.1875 91.207031 48.886719 91.277344 C 51.492188 91.328125 54.054688 90.878906 56.605469 90.363281 C 60.996094 89.46875 64.921875 87.550781 68.59375 85.058594 C 68.683594 84.996094 68.761719 84.925781 68.84375 84.851562 C 68.871094 84.824219 68.886719 84.78125 68.929688 84.707031 C 68.820312 84.367188 68.492188 84.226562 68.210938 84.054688 C 67.679688 83.730469 67.117188 83.449219 66.601562 83.105469 C 65.9375 82.660156 65.875 82.296875 66.335938 81.664062 C 66.96875 80.800781 67.832031 80.1875 68.722656 79.621094 C 72.359375 77.304688 75.753906 74.707031 78.585938 71.417969 C 81.195312 68.386719 83.359375 65.082031 85.0625 61.476562 C 85.496094 60.554688 85.695312 59.570312 85.800781 58.558594 C 85.875 57.820312 85.507812 57.203125 85.214844 56.476562 C 86.324219 56.597656 86.863281 57.289062 87.324219 58.074219 C 87.824219 58.933594 88.113281 59.878906 88.445312 60.808594 C 88.511719 60.984375 88.519531 61.1875 88.714844 61.332031 C 89.949219 60.167969 90.082031 58.308594 91.261719 57.128906 C 91.59375 57.308594 91.554688 57.542969 91.550781 57.746094 C 91.507812 60.035156 91.21875 62.285156 90.285156 64.398438 C 88.769531 67.835938 86.757812 70.964844 84.355469 73.859375 C 81.667969 77.09375 78.53125 79.804688 75.023438 82.097656 C 74.878906 82.191406 74.738281 82.292969 74.601562 82.394531 C 74.238281 82.660156 74.195312 82.910156 74.601562 83.195312 C 75.109375 83.550781 75.589844 83.949219 76.101562 84.304688 C 77.019531 84.949219 77.101562 85.503906 76.40625 86.402344 C 73.757812 89.824219 70.410156 92.398438 66.601562 94.402344 C 62.625 96.496094 58.382812 97.730469 53.933594 98.34375 C 49.484375 98.957031 45.058594 98.808594 40.65625 98.023438 C 37.605469 97.480469 34.660156 96.558594 31.8125 95.296875 C 28.875 93.992188 26.242188 92.25 23.75 90.175781 M 33.121094 95.175781 C 33.820312 95.453125 34.503906 95.769531 35.214844 96.003906 C 39.472656 97.402344 43.863281 98.046875 48.332031 98.109375 C 50.757812 98.144531 53.171875 97.886719 55.566406 97.453125 C 57.957031 97.019531 60.3125 96.472656 62.570312 95.550781 C 62.707031 95.492188 62.917969 95.5 62.90625 95.25 C 62.023438 95.148438 61.152344 94.980469 60.277344 94.976562 C 59.429688 94.972656 58.617188 95.03125 58 94.113281 C 58 94.398438 58 94.507812 58 94.613281 C 58.003906 94.675781 58.003906 94.742188 58.019531 94.804688 C 58.066406 95.015625 58.132812 95.230469 57.875 95.363281 C 57.640625 95.484375 57.472656 95.359375 57.289062 95.230469 C 56.8125 94.894531 56.5 94.34375 55.914062 94.132812 C 55.699219 94.496094 55.917969 94.804688 55.917969 95.113281 C 55.921875 95.433594 55.902344 95.800781 55.546875 95.839844 C 55.058594 95.898438 54.5625 96.253906 54.058594 95.886719 C 53.933594 95.796875 53.828125 95.871094 53.707031 95.933594 C 52.457031 96.605469 51.75 96.183594 51.710938 94.773438 C 51.703125 94.410156 51.820312 94.023438 51.59375 93.648438 C 51.320312 93.816406 51.289062 94.042969 51.289062 94.28125 C 51.289062 94.730469 51.296875 95.183594 51.296875 95.632812 C 51.296875 95.898438 51.445312 96.234375 51.066406 96.34375 C 50.730469 96.445312 50.582031 96.144531 50.394531 95.945312 C 50.054688 95.585938 49.863281 95.082031 49.375 94.835938 C 49.105469 95.253906 49.300781 95.722656 49.113281 96.117188 C 48.984375 96.386719 48.789062 96.535156 48.5 96.441406 C 48.21875 96.351562 48.269531 96.121094 48.34375 95.90625 C 48.382812 95.78125 48.441406 95.65625 48.441406 95.53125 C 48.4375 94.914062 48.871094 94.242188 48.363281 93.683594 C 47.9375 93.21875 48.21875 93.109375 48.605469 93.007812 C 48.992188 92.910156 49.300781 93 49.558594 93.355469 C 49.84375 93.75 50.023438 94.246094 50.566406 94.539062 C 50.566406 94.199219 50.558594 93.945312 50.566406 93.691406 C 50.585938 93.179688 50.722656 92.789062 51.375 92.902344 C 51.515625 92.929688 51.667969 92.871094 51.816406 92.851562 C 52.328125 92.773438 52.589844 92.960938 52.578125 93.511719 C 52.566406 94.023438 52.578125 94.539062 52.617188 95.050781 C 52.628906 95.230469 52.703125 95.453125 52.933594 95.488281 C 53.148438 95.523438 53.304688 95.382812 53.417969 95.222656 C 53.71875 94.8125 53.707031 94.339844 53.679688 93.863281 C 53.609375 92.773438 53.613281 92.777344 54.621094 92.558594 C 54.707031 92.539062 54.789062 92.515625 54.867188 92.480469 C 55.308594 92.285156 55.640625 92.429688 55.960938 92.757812 C 56.261719 93.070312 56.53125 93.441406 56.96875 93.632812 C 57.050781 93.367188 57 93.160156 56.957031 92.949219 C 56.890625 92.632812 56.796875 92.304688 57.101562 92.054688 C 57.433594 91.78125 57.683594 92.082031 57.976562 92.261719 C 58.394531 91.652344 58.960938 91.292969 59.671875 91.34375 C 60.082031 91.371094 60.378906 91.324219 60.714844 91.058594 C 61.339844 90.566406 61.699219 90.722656 61.90625 91.476562 C 62.035156 91.953125 62.097656 92.445312 62.328125 92.890625 C 62.546875 93.308594 62.78125 93.292969 63.042969 92.921875 C 63.203125 92.699219 63.214844 92.445312 63.21875 92.1875 C 63.230469 91.699219 62.988281 91.277344 62.878906 90.820312 C 62.800781 90.507812 62.746094 90.191406 63.132812 90.074219 C 63.527344 89.960938 63.574219 90.3125 63.675781 90.566406 C 63.910156 91.148438 64.007812 91.796875 64.441406 92.304688 C 64.636719 92.164062 64.605469 91.980469 64.617188 91.816406 C 64.667969 91.152344 64.714844 90.492188 64.75 89.828125 C 64.765625 89.527344 64.84375 89.273438 65.152344 89.164062 C 65.445312 89.058594 65.585938 89.296875 65.734375 89.46875 C 66.015625 89.792969 66.257812 90.152344 66.550781 90.464844 C 66.769531 90.703125 66.964844 91.015625 67.367188 91.003906 C 67.476562 90.285156 67.074219 89.367188 66.589844 89.183594 C 66.113281 89.003906 66.078125 88.820312 66.46875 88.5 C 66.839844 88.191406 67.195312 88.105469 67.617188 88.460938 C 67.976562 88.765625 68.332031 89.109375 68.84375 89.234375 C 68.96875 88.597656 68.710938 88.035156 68.757812 87.457031 C 68.777344 87.222656 68.851562 87.035156 69.089844 86.957031 C 69.347656 86.875 69.488281 87.035156 69.605469 87.234375 C 69.886719 87.714844 70.160156 88.203125 70.453125 88.675781 C 70.5625 88.847656 70.65625 89.082031 70.9375 89.015625 C 71.132812 88.96875 71.34375 88.902344 71.445312 89.136719 C 71.542969 89.378906 71.34375 89.535156 71.199219 89.683594 C 70.792969 90.101562 70.464844 90.089844 70.054688 89.652344 C 69.960938 89.550781 69.90625 89.371094 69.671875 89.460938 C 69.558594 89.6875 69.632812 89.945312 69.613281 90.195312 C 69.597656 90.402344 69.664062 90.648438 69.421875 90.769531 C 69.210938 90.871094 69.066406 90.6875 68.90625 90.59375 C 68.75 90.5 68.621094 90.3125 68.394531 90.421875 C 68.25 90.601562 68.328125 90.796875 68.363281 90.976562 C 68.40625 91.1875 68.363281 91.351562 68.199219 91.496094 C 67.5 92.113281 67.066406 92.148438 66.347656 91.539062 C 65.96875 91.214844 65.597656 91.339844 65.519531 91.675781 C 65.351562 92.40625 65.265625 93.132812 64.441406 93.445312 C 64.546875 94.007812 64.101562 94.375 63.835938 94.992188 C 68.910156 92.84375 73.117188 89.867188 76.28125 85.476562 C 75.863281 85.105469 75.503906 85.164062 75.15625 85.289062 C 74.632812 85.480469 74.117188 85.695312 73.601562 85.910156 C 72.585938 86.328125 71.632812 86.410156 70.710938 85.621094 C 70.304688 85.269531 69.878906 84.824219 69.195312 85.339844 C 63.238281 89.84375 56.414062 91.789062 49.039062 91.972656 C 45.765625 92.054688 42.515625 91.6875 39.335938 90.851562 C 35.375 89.8125 31.660156 88.230469 28.390625 85.714844 C 27.21875 84.8125 27.175781 84.769531 26.007812 85.691406 C 25.007812 86.484375 24.03125 86.457031 22.945312 85.964844 C 22.324219 85.683594 21.703125 85.359375 21 85.316406 C 20.8125 85.300781 20.59375 85.289062 20.492188 85.503906 C 20.40625 85.695312 20.558594 85.820312 20.652344 85.960938 C 21.242188 86.867188 22 87.636719 22.765625 88.382812 C 25.753906 91.289062 29.128906 93.613281 33.121094 95.175781 M 8.765625 67.84375 C 9.835938 69.707031 11.121094 71.417969 12.441406 73.117188 C 15.367188 76.882812 19.015625 79.800781 23.007812 82.339844 C 24.109375 83.042969 25.183594 83.777344 25.910156 84.96875 C 27 84.332031 28.074219 83.710938 29.144531 83.082031 C 30.023438 82.5625 30.039062 82.320312 29.304688 81.609375 C 28.015625 80.367188 26.390625 79.605469 24.921875 78.582031 C 25.089844 78.914062 25.277344 79.222656 25.152344 79.59375 C 26.515625 79.65625 27.222656 80.605469 26.710938 81.640625 C 26.390625 82.292969 25.84375 82.714844 25.136719 82.863281 C 24.21875 83.054688 23.621094 82.683594 23.304688 81.78125 C 23.242188 81.605469 23.234375 81.375 22.992188 81.335938 C 22.25 81.214844 21.652344 80.902344 21.339844 80.167969 C 21.320312 80.121094 21.242188 80.09375 21.183594 80.070312 C 20.195312 79.601562 20.179688 79.550781 20.636719 78.484375 C 20.285156 78.140625 20.285156 78.140625 19.46875 78.449219 C 18.957031 78.644531 18.433594 78.414062 18.328125 77.898438 C 18.265625 77.597656 18.316406 77.277344 18.316406 76.917969 C 18.164062 77.027344 18.011719 77.109375 17.894531 77.226562 C 17.609375 77.503906 17.355469 77.335938 17.167969 77.140625 C 16.933594 76.894531 17.179688 76.71875 17.347656 76.554688 C 17.535156 76.375 17.726562 76.203125 17.917969 76.027344 C 16.492188 76.425781 16.023438 76.292969 15.1875 75.34375 C 14.863281 74.976562 14.957031 74.761719 15.277344 74.503906 C 15.707031 74.152344 16.128906 73.78125 16.550781 73.417969 C 16.695312 73.292969 16.851562 73.175781 16.835938 72.945312 C 16.792969 72.292969 17.15625 72.472656 17.460938 72.667969 C 18.152344 73.105469 18.699219 73.664062 18.90625 74.519531 C 19.226562 74.4375 19.488281 74.5625 19.753906 74.703125 C 20.53125 75.117188 20.949219 75.65625 20.800781 76.164062 C 20.589844 76.902344 19.9375 76.886719 19.300781 76.921875 C 19.277344 77.152344 19.097656 77.351562 19.289062 77.640625 C 20.128906 77.355469 20.972656 77.0625 21.824219 76.78125 C 22.070312 76.699219 22.332031 76.644531 22.527344 76.90625 C 22.722656 77.175781 22.5625 77.382812 22.417969 77.601562 C 22.054688 78.144531 21.574219 78.617188 21.375 79.28125 C 22.046875 78.308594 22.988281 77.957031 24.296875 78.089844 C 23.972656 77.828125 23.785156 77.664062 23.585938 77.511719 C 22.09375 76.386719 20.683594 75.175781 19.375 73.835938 C 16.25 70.648438 13.636719 67.113281 11.664062 63.109375 C 11.066406 61.894531 10.484375 60.679688 10.304688 59.316406 C 10.253906 58.929688 10.355469 58.511719 10.160156 58.128906 C 9.898438 58.269531 9.820312 58.5 9.714844 58.707031 C 9.242188 59.652344 8.921875 60.652344 8.589844 61.648438 C 8.5 61.929688 8.480469 62.296875 8.121094 62.351562 C 7.773438 62.40625 7.625 62.070312 7.433594 61.847656 C 6.699219 60.996094 6.285156 59.960938 5.761719 58.976562 C 5.785156 59.53125 5.835938 60.082031 5.910156 60.625 C 6.273438 63.226562 7.433594 65.519531 8.765625 67.84375 M 90.898438 59.125 C 90.90625 59.03125 90.992188 58.933594 90.867188 58.816406 C 90.359375 59.816406 89.960938 60.863281 89.230469 61.71875 C 89.039062 61.945312 88.886719 62.28125 88.542969 62.230469 C 88.160156 62.171875 88.121094 61.78125 88.035156 61.480469 C 87.753906 60.464844 87.367188 59.492188 86.925781 58.535156 C 86.824219 58.316406 86.742188 58.070312 86.429688 58.011719 C 86.355469 59.167969 86.25 60.277344 85.777344 61.304688 C 84.804688 63.410156 83.753906 65.472656 82.449219 67.402344 C 80.433594 70.386719 78.105469 73.101562 75.402344 75.492188 C 73.339844 77.316406 71.09375 78.894531 68.765625 80.359375 C 68.160156 80.742188 67.625 81.207031 67.148438 81.734375 C 66.683594 82.246094 66.722656 82.5 67.304688 82.855469 C 68.058594 83.3125 68.820312 83.753906 69.59375 84.179688 C 69.945312 84.375 70.234375 84.773438 70.652344 84.746094 C 71.105469 84.714844 71.179688 84.179688 71.433594 83.890625 C 72.007812 83.234375 72.855469 82.933594 73.320312 82.351562 C 72.769531 81.75 72.246094 81.148438 71.691406 80.585938 C 71.257812 80.152344 70.871094 80.421875 70.523438 80.746094 C 70.121094 81.117188 70.132812 81.464844 70.585938 81.796875 C 70.929688 82.050781 71.269531 82.320312 71.585938 82.609375 C 71.796875 82.796875 71.992188 83.03125 71.71875 83.320312 C 71.476562 83.578125 71.261719 83.449219 71.046875 83.269531 C 70.652344 82.9375 70.253906 82.609375 69.851562 82.285156 C 69.65625 82.125 69.429688 82.019531 69.230469 82.257812 C 68.855469 82.707031 68.5625 82.5 68.289062 82.164062 C 67.953125 81.753906 68.222656 81.488281 68.554688 81.28125 C 69.085938 80.949219 69.519531 80.457031 70.058594 80.1875 C 70.675781 79.878906 71.15625 78.960938 71.988281 79.558594 C 72.253906 78.292969 73.625 78.105469 74.113281 77.058594 C 74.515625 77.484375 74.449219 77.851562 74.253906 78.113281 C 73.886719 78.589844 74.132812 78.871094 74.445312 79.210938 C 74.902344 79.714844 75.648438 79.996094 75.671875 80.832031 C 75.792969 80.792969 75.863281 80.792969 75.910156 80.757812 C 78.800781 78.589844 81.574219 76.320312 83.84375 73.457031 C 85.472656 71.398438 87.019531 69.304688 88.300781 67.015625 C 89.667969 64.574219 90.738281 62.050781 90.898438 59.125 M 22.402344 85 C 23.128906 85.152344 23.710938 85.765625 24.519531 85.660156 C 24.746094 85.628906 25.019531 85.707031 25.152344 85.449219 C 25.273438 85.210938 25.152344 84.976562 25.007812 84.792969 C 24.566406 84.234375 24.007812 83.804688 23.433594 83.394531 C 23.324219 83.316406 23.203125 83.273438 23.074219 83.363281 C 22.507812 83.753906 21.871094 84.066406 21.414062 84.648438 C 21.746094 84.769531 22.027344 84.871094 22.402344 85 M 74.0625 83.566406 C 73.789062 83.425781 73.539062 83.089844 73.195312 83.320312 C 72.609375 83.707031 72.046875 84.152344 71.640625 84.730469 C 71.285156 85.238281 71.457031 85.53125 72.089844 85.535156 C 73.199219 85.542969 74.0625 84.875 75.070312 84.546875 C 74.847656 84.03125 74.453125 83.867188 74.0625 83.566406 M 73.910156 81.769531 C 74.558594 82 74.753906 81.394531 75.238281 81.113281 C 74.519531 80.4375 73.941406 79.734375 73.132812 79.222656 C 72.984375 79.9375 72.984375 79.9375 72.363281 79.957031 C 72.75 80.644531 73.558594 80.953125 73.910156 81.769531 M 23.402344 78.835938 C 22.9375 79.019531 22.511719 79.25 22.324219 79.761719 C 22.230469 80.007812 22.230469 80.210938 22.449219 80.390625 C 22.964844 80.808594 23.917969 80.589844 24.1875 79.988281 C 24.523438 79.238281 24.300781 78.859375 23.402344 78.835938 M 59.417969 92.039062 C 58.703125 92.289062 58.527344 93.113281 59.023438 93.867188 C 59.21875 94.164062 59.476562 94.339844 59.832031 94.242188 C 60.21875 94.136719 60.382812 93.832031 60.355469 93.457031 C 60.3125 92.855469 60.105469 92.332031 59.417969 92.039062 M 25.5 81.683594 C 25.804688 81.371094 26.296875 81.039062 25.902344 80.574219 C 25.546875 80.160156 25.109375 80.527344 24.761719 80.753906 C 24.234375 81.089844 23.972656 81.714844 24.253906 81.96875 C 24.710938 82.375 25.074219 82.023438 25.5 81.683594 M 17.371094 73.859375 C 16.917969 74.277344 16.390625 74.613281 15.996094 75.121094 C 16.300781 75.542969 16.703125 75.535156 17.089844 75.359375 C 17.53125 75.160156 17.917969 74.835938 17.976562 74.335938 C 18.003906 74.070312 17.875 73.722656 17.371094 73.859375 M 63 93.910156 C 62.230469 94.289062 61.792969 93.765625 61.371094 93.1875 C 61.167969 93.570312 61.066406 93.863281 61.042969 94.242188 C 61.894531 94.464844 62.722656 94.53125 63.511719 94.0625 C 63.746094 93.921875 63.972656 93.707031 63.8125 93.285156 C 63.542969 93.503906 63.3125 93.683594 63 93.910156 M 55.074219 94.140625 C 55.050781 93.804688 55.136719 93.40625 54.523438 93.328125 C 54.527344 94.023438 54.550781 94.644531 54.867188 95.308594 C 55.199219 94.925781 55.0625 94.574219 55.074219 94.140625 Z M 55.074219 94.140625 "/>
<path style=" stroke:none;fill-rule:nonzero;fill:rgb(0%,0%,0%);fill-opacity:1;" d="M 9.734375 20.667969 C 11.242188 18.601562 12.777344 16.613281 14.40625 14.699219 C 14.808594 14.222656 14.871094 13.863281 14.496094 13.308594 C 13.117188 11.28125 13.199219 11.03125 15.3125 9.84375 C 19.652344 7.398438 24.296875 5.773438 29.121094 4.597656 C 31.835938 3.9375 34.582031 3.417969 37.351562 3.097656 C 41.753906 2.59375 46.171875 2.40625 50.605469 2.621094 C 53.421875 2.757812 56.226562 2.921875 59.015625 3.320312 C 65.382812 4.222656 71.558594 5.828125 77.398438 8.582031 C 79.027344 9.351562 80.722656 9.996094 82.230469 11.007812 C 82.496094 11.1875 82.765625 11.363281 83.015625 11.570312 C 83.496094 11.96875 83.609375 12.449219 83.238281 12.984375 C 82.945312 13.410156 82.65625 13.835938 82.335938 14.242188 C 82.078125 14.566406 82.097656 14.832031 82.347656 15.15625 C 83.78125 17.007812 85.226562 18.847656 86.53125 20.796875 C 87.132812 21.695312 87.808594 22.511719 87.917969 23.699219 C 87.984375 24.425781 88.527344 25.101562 88.839844 25.808594 C 88.960938 26.085938 89.148438 26.359375 88.976562 26.726562 C 88.816406 26.390625 88.652344 26.058594 88.492188 25.71875 C 88.269531 25.25 87.96875 24.832031 87.605469 24.464844 C 87.34375 24.195312 87.089844 23.976562 87.179688 23.535156 C 87.238281 23.234375 86.933594 23.054688 86.769531 22.835938 C 86.363281 22.300781 85.824219 21.90625 85.289062 21.5 C 85.179688 21.597656 85.296875 21.644531 85.335938 21.6875 C 87.175781 23.960938 88.09375 26.746094 89.652344 29.230469 C 89.253906 29.359375 89.09375 29.125 88.980469 28.964844 C 88.53125 28.320312 87.859375 28.113281 87.144531 28.042969 C 86.695312 28 86.515625 27.804688 86.570312 27.386719 C 86.65625 26.757812 86.34375 26.339844 85.910156 25.941406 C 83.632812 23.867188 80.875 22.703125 78.019531 21.695312 C 76.652344 21.210938 75.230469 21 73.8125 20.765625 C 73.621094 20.734375 73.429688 20.710938 73.246094 20.652344 C 72.207031 20.332031 71.96875 19.726562 72.523438 18.796875 C 72.742188 18.429688 72.992188 18.085938 73.300781 17.617188 C 68.507812 15.773438 63.601562 14.652344 58.589844 14.109375 C 46.804688 12.828125 35.203125 13.621094 23.820312 17.519531 C 24.0625 17.929688 24.253906 18.25 24.445312 18.574219 C 25.242188 19.90625 24.882812 20.714844 23.324219 20.863281 C 21.148438 21.074219 19.042969 21.535156 16.996094 22.28125 C 14.660156 23.132812 12.433594 24.171875 10.527344 25.808594 C 10.015625 26.246094 9.589844 26.683594 9.695312 27.433594 C 9.746094 27.789062 9.589844 28.105469 9.179688 28.105469 C 8.289062 28.105469 7.554688 28.40625 6.976562 29.09375 C 6.878906 29.210938 6.761719 29.375 6.40625 29.257812 C 8.105469 26.628906 9.195312 23.6875 11.199219 21.273438 C 10.460938 21.640625 9.910156 22.199219 9.402344 22.8125 C 9.375 22.84375 9.328125 22.878906 9.324219 22.910156 C 9.296875 24.058594 8.195312 24.566406 7.777344 25.480469 C 7.601562 25.867188 7.386719 26.230469 7.179688 26.628906 C 6.9375 26.464844 7.042969 26.304688 7.109375 26.164062 C 7.355469 25.640625 7.617188 25.121094 7.863281 24.597656 C 8.148438 23.980469 8.445312 23.394531 8.539062 22.679688 C 8.636719 21.917969 9.269531 21.339844 9.734375 20.667969 M 48.671875 12.769531 C 51.027344 12.914062 53.390625 12.855469 55.75 13.074219 C 58.597656 13.34375 61.425781 13.699219 64.226562 14.265625 C 67.089844 14.84375 69.929688 15.523438 72.65625 16.59375 C 74.253906 17.222656 75.839844 17.878906 77.417969 18.550781 C 77.738281 18.6875 77.90625 18.636719 78.125 18.386719 C 79.625 16.648438 80.992188 14.800781 82.398438 12.988281 C 82.746094 12.539062 82.738281 12.222656 82.222656 11.898438 C 81.003906 11.125 79.714844 10.496094 78.410156 9.886719 C 74.054688 7.855469 69.5625 6.238281 64.878906 5.15625 C 60.835938 4.222656 56.734375 3.679688 52.589844 3.480469 C 47.476562 3.242188 42.371094 3.320312 37.28125 3.96875 C 33.722656 4.421875 30.226562 5.175781 26.753906 6.09375 C 22.554688 7.207031 18.585938 8.847656 14.828125 11.015625 C 14.292969 11.324219 14.257812 11.636719 14.574219 12.101562 C 15.882812 14.011719 17.175781 15.933594 18.53125 17.8125 C 18.976562 18.429688 19.382812 18.472656 20.03125 18.1875 C 23.417969 16.6875 26.933594 15.570312 30.535156 14.71875 C 34.261719 13.835938 38.035156 13.265625 41.855469 12.988281 C 44.082031 12.824219 46.3125 12.6875 48.671875 12.769531 M 13.554688 16.9375 C 12.714844 18.070312 11.699219 19.074219 10.960938 20.398438 C 11.503906 20.207031 12.085938 19.84375 12.4375 20.347656 C 12.828125 20.914062 12.207031 21.316406 11.894531 21.714844 C 11.214844 22.578125 10.515625 23.417969 9.957031 24.367188 C 9.804688 24.628906 9.609375 24.902344 9.832031 25.277344 C 13.90625 22 18.675781 20.625 23.738281 19.980469 C 23.414062 19.886719 23.105469 19.847656 22.792969 19.851562 C 21.953125 19.851562 21.113281 19.863281 20.277344 19.878906 C 19.601562 19.890625 19.054688 19.613281 18.644531 19.109375 C 17.726562 17.972656 16.84375 16.808594 16.054688 15.578125 C 15.863281 15.28125 15.675781 14.96875 15.34375 14.746094 C 14.746094 15.472656 14.179688 16.167969 13.554688 16.9375 M 80.125 17.039062 C 79.519531 17.761719 78.921875 18.492188 78.304688 19.207031 C 77.804688 19.785156 77.160156 19.992188 76.398438 19.9375 C 75.382812 19.859375 74.363281 19.820312 73.34375 19.765625 C 73.332031 19.828125 73.320312 19.886719 73.304688 19.949219 C 78.128906 20.738281 82.691406 22.152344 86.503906 25.410156 C 86.660156 24.96875 86.503906 24.691406 86.335938 24.410156 C 85.742188 23.410156 85.042969 22.488281 84.332031 21.570312 C 84.125 21.304688 83.957031 20.988281 84.167969 20.683594 C 84.390625 20.359375 84.75 20.507812 85.058594 20.597656 C 85.214844 20.640625 85.363281 20.710938 85.625 20.816406 C 84.382812 18.8125 82.914062 17.136719 81.582031 15.332031 C 80.980469 15.800781 80.667969 16.457031 80.125 17.039062 M 23.203125 18.152344 C 23.070312 17.960938 22.917969 17.839844 22.664062 17.9375 C 21.734375 18.289062 20.804688 18.636719 19.875 18.984375 C 21.183594 19.25 22.460938 19.007812 23.777344 19.085938 C 23.671875 18.703125 23.457031 18.464844 23.203125 18.152344 M 76.496094 19.1875 C 76.65625 19.195312 76.8125 19.207031 77.128906 19.222656 C 76.324219 18.859375 75.675781 18.535156 75.007812 18.265625 C 74.054688 17.878906 73.757812 18.027344 73.253906 19.1875 C 74.347656 19.1875 75.371094 19.1875 76.496094 19.1875 Z M 76.496094 19.1875 "/>
<path style=" stroke:none;fill-rule:nonzero;fill:rgb(0%,0%,0%);fill-opacity:1;" d="M 66.101562 99.746094 C 66.132812 99.636719 66.144531 99.570312 66.179688 99.519531 C 66.375 99.222656 66.535156 98.808594 66.964844 98.890625 C 67.4375 98.980469 67.246094 99.433594 67.28125 99.746094 C 67.296875 99.886719 67.394531 100.03125 67.246094 100.234375 C 67.003906 99.695312 66.230469 100.726562 66.101562 99.746094 Z M 66.101562 99.746094 "/>
<path style=" stroke:none;fill-rule:nonzero;fill:rgb(0%,0%,0%);fill-opacity:1;" d="M 89.671875 99.167969 C 89.839844 98.929688 89.910156 98.664062 90.179688 98.578125 C 90.566406 98.988281 90.636719 99.148438 90.707031 99.832031 C 90.210938 99.644531 89.792969 99.800781 89.375 100.136719 C 89.261719 99.714844 89.519531 99.480469 89.671875 99.167969 Z M 89.671875 99.167969 "/>
<path style=" stroke:none;fill-rule:nonzero;fill:rgb(0%,0%,0%);fill-opacity:1;" d="M 86.195312 99.691406 C 86.121094 99.867188 85.996094 99.898438 85.875 99.945312 C 85.652344 100.035156 85.472656 100.355469 85.199219 100.125 C 84.949219 99.921875 85.0625 99.648438 85.1875 99.421875 C 85.339844 99.132812 85.539062 98.824219 85.910156 98.882812 C 86.386719 98.953125 86.242188 99.339844 86.195312 99.691406 Z M 86.195312 99.691406 "/>
<path style=" stroke:none;fill-rule:nonzero;fill:rgb(0%,0%,0%);fill-opacity:1;" d="M 80.367188 99.289062 C 80.738281 98.910156 81.253906 98.753906 81.460938 98.21875 C 81.574219 98.875 81.144531 99.449219 81.398438 100.113281 C 80.917969 99.960938 80.808594 99.6875 81 99.261719 C 80.441406 99.492188 80.421875 99.535156 80.558594 100.117188 C 80.066406 99.988281 80.046875 99.929688 80.367188 99.289062 Z M 80.367188 99.289062 "/>
<path style=" stroke:none;fill-rule:nonzero;fill:rgb(0%,0%,0%);fill-opacity:1;" d="M 78.914062 99.035156 C 79.347656 98.707031 79.367188 99.132812 79.519531 99.34375 C 79.6875 99.148438 79.648438 98.972656 79.503906 98.832031 C 79.183594 98.515625 78.875 98.820312 78.425781 98.914062 C 78.738281 98.480469 79.035156 98.300781 79.441406 98.464844 C 79.753906 98.59375 79.992188 98.859375 79.898438 99.222656 C 79.71875 99.898438 79.125 99.511719 78.773438 99.71875 C 78.570312 99.382812 78.796875 99.246094 78.914062 99.035156 Z M 78.914062 99.035156 "/>
<path style=" stroke:none;fill-rule:nonzero;fill:rgb(0%,0%,0%);fill-opacity:1;" d="M 63.40625 99.527344 C 63.429688 99.457031 63.4375 99.4375 63.445312 99.417969 C 63.597656 99.125 63.765625 98.847656 64.144531 98.847656 C 64.285156 98.847656 64.386719 98.949219 64.40625 99.089844 C 64.46875 99.484375 64.140625 99.628906 63.894531 99.824219 C 64.050781 99.988281 64.226562 99.695312 64.394531 99.898438 C 64.292969 100.210938 64.050781 100.300781 63.753906 100.226562 C 63.429688 100.144531 63.339844 99.890625 63.40625 99.527344 Z M 63.40625 99.527344 "/>
<path style=" stroke:none;fill-rule:nonzero;fill:rgb(0%,0%,0%);fill-opacity:1;" d="M 64.773438 99.570312 C 64.953125 98.359375 65.050781 98.273438 65.9375 98.519531 C 65.871094 98.773438 65.628906 98.683594 65.480469 98.757812 C 65.3125 98.84375 65.195312 98.949219 65.265625 99.160156 C 65.425781 99.351562 65.742188 99.03125 65.898438 99.378906 C 65.566406 99.613281 65.046875 99.632812 64.96875 100.15625 C 64.695312 100.011719 64.792969 99.796875 64.773438 99.570312 Z M 64.773438 99.570312 "/>
<path style=" stroke:none;fill-rule:nonzero;fill:rgb(0%,0%,0%);fill-opacity:1;" d="M 82.441406 99.90625 C 82.605469 99.902344 82.703125 99.953125 82.601562 100.082031 C 82.488281 100.222656 82.320312 100.273438 82.140625 100.230469 C 81.929688 100.179688 81.808594 100.042969 81.78125 99.828125 C 81.738281 99.535156 81.824219 99.285156 82.03125 99.070312 C 82.222656 98.875 82.441406 98.699219 82.691406 98.925781 C 82.960938 99.167969 82.753906 99.375 82.574219 99.574219 C 82.472656 99.679688 82.285156 99.675781 82.242188 99.847656 C 82.242188 99.859375 82.265625 99.890625 82.28125 99.894531 C 82.320312 99.90625 82.363281 99.90625 82.441406 99.90625 Z M 82.441406 99.90625 "/>
<path style=" stroke:none;fill-rule:nonzero;fill:rgb(0%,0%,0%);fill-opacity:1;" d="M 91.617188 99.363281 C 91.546875 99.511719 91.582031 99.679688 91.40625 99.699219 C 91.21875 99.140625 91.40625 98.671875 91.871094 98.53125 C 92.148438 98.445312 92.433594 98.402344 92.621094 98.695312 C 92.789062 98.960938 92.625 99.152344 92.421875 99.292969 C 92.25 99.414062 92.296875 99.589844 92.25 99.746094 C 92.058594 99.726562 91.929688 99.636719 91.863281 99.460938 C 91.949219 99.207031 92.332031 99.203125 92.339844 98.890625 C 91.851562 98.582031 91.773438 98.628906 91.617188 99.363281 Z M 91.617188 99.363281 "/>
<path style=" stroke:none;fill-rule:nonzero;fill:rgb(0%,0%,0%);fill-opacity:1;" d="M 83.632812 99.503906 C 83.824219 99.253906 83.914062 98.9375 84.34375 98.902344 C 84.222656 99.472656 83.765625 99.753906 83.546875 100.269531 C 83.109375 99.847656 82.933594 99.46875 83.082031 98.96875 C 83.515625 99.003906 83.226562 99.527344 83.632812 99.503906 Z M 83.632812 99.503906 "/>
<path style=" stroke:none;fill-rule:nonzero;fill:rgb(0%,0%,0%);fill-opacity:1;" d="M 86.585938 99.5625 C 86.558594 98.753906 87.25 99.074219 87.457031 99.105469 C 87.890625 99.167969 87.804688 99.617188 87.765625 99.984375 C 87.425781 99.921875 87.550781 99.597656 87.359375 99.46875 C 87.019531 99.445312 87.039062 99.894531 86.753906 99.960938 C 86.539062 99.921875 86.613281 99.738281 86.585938 99.5625 Z M 86.585938 99.5625 "/>
<path style=" stroke:none;fill-rule:nonzero;fill:rgb(0%,0%,0%);fill-opacity:1;" d="M 70.757812 99.183594 C 70.859375 99.480469 70.933594 99.742188 71.015625 100.039062 C 70.570312 100.035156 70.679688 99.625 70.484375 99.449219 C 70.15625 99.460938 70.171875 99.964844 69.777344 99.941406 C 69.609375 99.671875 69.691406 99.394531 69.800781 99.058594 C 70.105469 99.375 70.425781 98.886719 70.757812 99.183594 Z M 70.757812 99.183594 "/>
<path style=" stroke:none;fill-rule:nonzero;fill:rgb(0%,0%,0%);fill-opacity:1;" d="M 94.042969 98.921875 C 93.921875 99.160156 93.960938 99.425781 93.683594 99.59375 C 93.558594 99.238281 93.589844 98.777344 93.066406 98.679688 C 93.53125 98.496094 93.96875 98.445312 94.429688 98.484375 C 94.445312 98.785156 94.140625 98.722656 94.042969 98.921875 Z M 94.042969 98.921875 "/>
<path style=" stroke:none;fill-rule:nonzero;fill:rgb(0%,0%,0%);fill-opacity:1;" d="M 68.722656 99.148438 C 68.628906 99.511719 68.8125 99.878906 68.53125 100.167969 C 68.1875 99.699219 68.300781 98.730469 68.761719 98.191406 C 68.984375 98.515625 68.773438 98.804688 68.722656 99.148438 Z M 68.722656 99.148438 "/>
<path style=" stroke:none;fill-rule:nonzero;fill:rgb(0%,0%,0%);fill-opacity:1;" d="M 67.882812 98.347656 C 68.074219 98.210938 68.144531 98.289062 68.160156 98.445312 C 68.167969 98.507812 68.160156 98.578125 68.144531 98.636719 C 67.996094 99.140625 67.949219 99.664062 67.859375 100.1875 C 67.441406 99.585938 67.683594 98.988281 67.882812 98.347656 Z M 67.882812 98.347656 "/>
<path style=" stroke:none;fill-rule:nonzero;fill:rgb(0%,0%,0%);fill-opacity:1;" d="M 71.433594 100.824219 C 72.292969 100.53125 71.953125 99.59375 72.335938 99.019531 C 72.679688 100.023438 72.242188 100.894531 71.433594 100.824219 Z M 71.433594 100.824219 "/>
<path style=" stroke:none;fill-rule:nonzero;fill:rgb(0%,0%,0%);fill-opacity:1;" d="M 88.734375 98.683594 C 88.863281 98.8125 88.960938 98.921875 89.097656 99.074219 C 88.558594 99.277344 88.503906 99.691406 88.6875 100.226562 C 88.054688 99.785156 88.101562 99.089844 88.734375 98.683594 Z M 88.734375 98.683594 "/>
<path style=" stroke:none;fill-rule:nonzero;fill:rgb(0%,0%,0%);fill-opacity:1;" d="M 58.550781 100.207031 C 57.828125 99.824219 58.441406 99.398438 58.355469 98.847656 C 58.792969 99.230469 58.261719 100.097656 59.214844 99.859375 C 59.023438 100.128906 58.78125 100.105469 58.550781 100.207031 Z M 58.550781 100.207031 "/>
<path style=" stroke:none;fill-rule:nonzero;fill:rgb(0%,0%,0%);fill-opacity:1;" d="M 63.109375 99.617188 C 63.078125 99.785156 63.09375 99.933594 62.816406 99.941406 C 62.800781 99.457031 62.75 98.988281 63.109375 98.464844 C 63.277344 98.898438 63.082031 99.238281 63.109375 99.617188 Z M 63.109375 99.617188 "/>
<path style=" stroke:none;fill-rule:nonzero;fill:rgb(0%,0%,0%);fill-opacity:1;" d="M 69.007812 99.609375 C 69.054688 99.351562 68.972656 99.085938 69.320312 98.972656 C 69.527344 99.386719 69.332031 99.746094 69.234375 100.128906 C 68.917969 100.042969 69.007812 99.832031 69.007812 99.609375 Z M 69.007812 99.609375 "/>
<path style=" stroke:none;fill-rule:nonzero;fill:rgb(0%,0%,0%);fill-opacity:1;" d="M 84.789062 99.53125 C 84.699219 99.738281 84.785156 99.964844 84.535156 100.089844 C 84.300781 99.703125 84.507812 99.375 84.609375 99.011719 C 84.917969 99.105469 84.785156 99.320312 84.789062 99.53125 Z M 84.789062 99.53125 "/>
<path style=" stroke:none;fill-rule:nonzero;fill:rgb(0%,0%,0%);fill-opacity:1;" d="M 60.746094 99.007812 C 60.988281 98.894531 61.125 98.933594 61.023438 99.191406 C 60.9375 99.402344 60.804688 99.59375 60.648438 99.875 C 60.519531 99.519531 60.65625 99.28125 60.746094 99.007812 Z M 60.746094 99.007812 "/>
<path style=" stroke:none;fill-rule:nonzero;fill:rgb(0%,0%,0%);fill-opacity:1;" d="M 54.558594 43.894531 C 53.761719 44.179688 53.472656 44.738281 53.476562 45.507812 C 53.480469 49.070312 53.484375 52.628906 53.472656 56.191406 C 53.46875 56.667969 53.628906 57.019531 54 57.296875 C 54.148438 57.40625 54.332031 57.503906 54.300781 57.863281 C 53.039062 57.882812 51.785156 57.921875 50.496094 57.84375 C 50.519531 57.679688 50.511719 57.589844 50.542969 57.566406 C 51.339844 57.078125 51.394531 56.324219 51.359375 55.492188 C 51.3125 54.378906 51.335938 53.261719 51.34375 52.148438 C 51.347656 51.664062 51.144531 51.4375 50.652344 51.441406 C 49.191406 51.445312 47.726562 51.445312 46.265625 51.433594 C 45.804688 51.429688 45.601562 51.632812 45.605469 52.09375 C 45.613281 53.507812 45.613281 54.925781 45.609375 56.339844 C 45.605469 56.695312 45.773438 56.949219 46.011719 57.179688 C 46.179688 57.339844 46.410156 57.449219 46.460938 57.839844 C 45.175781 57.914062 43.910156 57.914062 42.644531 57.839844 C 42.644531 57.691406 42.636719 57.65625 42.648438 57.652344 C 43.636719 56.988281 43.480469 55.976562 43.476562 55 C 43.46875 51.824219 43.472656 48.652344 43.46875 45.476562 C 43.46875 44.480469 43.070312 44.011719 42.105469 43.871094 C 41.953125 43.851562 41.78125 43.878906 41.765625 43.675781 C 41.753906 43.496094 41.875 43.386719 42.046875 43.390625 C 43.652344 43.40625 45.261719 43.265625 46.863281 43.464844 C 46.875 43.464844 46.882812 43.5 46.898438 43.535156 C 46.890625 43.847656 46.601562 43.851562 46.398438 43.917969 C 45.855469 44.101562 45.609375 44.480469 45.609375 45.035156 C 45.605469 46.28125 45.613281 47.523438 45.601562 48.769531 C 45.597656 49.152344 45.753906 49.316406 46.136719 49.316406 C 47.683594 49.308594 49.230469 49.3125 50.777344 49.316406 C 51.1875 49.316406 51.363281 49.117188 51.359375 48.722656 C 51.351562 47.5 51.347656 46.277344 51.339844 45.054688 C 51.335938 44.503906 50.980469 44.210938 50.535156 43.992188 C 50.320312 43.886719 50.003906 43.910156 49.941406 43.46875 C 51.640625 43.46875 53.320312 43.46875 55.003906 43.46875 C 55.054688 43.816406 54.785156 43.804688 54.558594 43.894531 Z M 54.558594 43.894531 "/>
<path style=" stroke:none;fill-rule:nonzero;fill:rgb(0%,0%,0%);fill-opacity:1;" d="M 35.328125 93.230469 C 35.320312 93.078125 35.316406 92.972656 35.3125 92.867188 C 35.136719 92.792969 35.140625 92.953125 35.089844 93.023438 C 34.855469 93.351562 34.8125 93.960938 34.257812 93.863281 C 33.636719 93.753906 32.980469 93.5625 32.800781 92.789062 C 32.746094 92.546875 32.65625 92.3125 32.558594 91.992188 C 32.429688 92.234375 32.34375 92.398438 32.257812 92.566406 C 32.09375 92.878906 31.855469 92.925781 31.558594 92.769531 C 31.261719 92.613281 31.351562 92.386719 31.460938 92.164062 C 31.671875 91.742188 31.878906 91.320312 32.09375 90.898438 C 32.261719 90.566406 32.523438 90.289062 32.234375 89.851562 C 32.078125 89.609375 32.359375 89.464844 32.601562 89.515625 C 33.191406 89.640625 33.773438 89.832031 34.253906 90.203125 C 34.785156 90.609375 34.664062 91.3125 34.039062 91.691406 C 33.355469 92.109375 33.359375 92.484375 34.050781 93.03125 C 34.695312 92.542969 35.015625 91.683594 34.808594 90.980469 C 34.742188 90.738281 34.835938 90.609375 35.074219 90.574219 C 35.578125 90.5 36.011719 90.796875 36.082031 91.3125 C 36.152344 91.8125 36.175781 92.324219 36.234375 93.003906 C 36.644531 92.582031 36.972656 92.257812 37.277344 91.917969 C 37.601562 91.558594 37.871094 91.410156 38.433594 91.613281 C 39.714844 92.070312 41.082031 92.253906 42.429688 92.460938 C 42.957031 92.542969 43.304688 92.695312 43.507812 93.203125 C 43.679688 93.632812 43.921875 94.039062 44.183594 94.5625 C 44.292969 94.039062 44.363281 93.628906 44.46875 93.226562 C 44.566406 92.847656 44.867188 92.648438 45.195312 92.871094 C 45.507812 93.089844 45.730469 92.976562 46.019531 92.894531 C 46.832031 92.660156 47.4375 93.042969 47.308594 93.683594 C 47.28125 93.828125 47.277344 93.996094 47.09375 94.046875 C 46.890625 94.101562 46.765625 94.003906 46.695312 93.820312 C 46.625 93.617188 46.511719 93.476562 46.269531 93.53125 C 46.160156 93.558594 46.0625 93.617188 46.042969 93.734375 C 46.011719 93.96875 46.1875 94.074219 46.347656 94.183594 C 46.453125 94.257812 46.570312 94.3125 46.679688 94.378906 C 47.09375 94.628906 47.382812 94.953125 47.296875 95.476562 C 47.222656 95.929688 46.941406 96.210938 46.511719 96.324219 C 46.003906 96.460938 45.46875 96.515625 45.046875 96.128906 C 44.742188 95.847656 44.859375 95.445312 45.082031 95.191406 C 45.304688 94.925781 45.507812 95.144531 45.582031 95.402344 C 45.664062 95.675781 45.824219 95.804688 46.097656 95.773438 C 46.25 95.753906 46.398438 95.679688 46.414062 95.5 C 46.4375 95.234375 46.214844 95.136719 46.035156 95.03125 C 45.601562 94.777344 45.175781 94.527344 45.109375 93.925781 C 44.945312 94.527344 44.851562 95.105469 44.804688 95.695312 C 44.789062 95.910156 44.746094 96.136719 44.5 96.210938 C 44.207031 96.300781 44.066406 96.085938 43.949219 95.878906 C 43.628906 95.328125 43.320312 94.773438 42.960938 94.132812 C 42.832031 94.640625 42.734375 95.054688 42.625 95.457031 C 42.527344 95.808594 42.335938 96.011719 41.917969 95.917969 C 41.214844 95.761719 40.503906 95.621094 39.792969 95.5 C 39.40625 95.429688 39.285156 95.265625 39.402344 94.878906 C 39.582031 94.285156 39.722656 93.679688 39.886719 93.078125 C 39.949219 92.847656 39.972656 92.648438 39.578125 92.605469 C 39.390625 93.25 39.183594 93.894531 39.011719 94.550781 C 38.871094 95.085938 38.632812 95.371094 38.058594 95.050781 C 38.019531 95.03125 37.984375 95.007812 37.941406 94.996094 C 37.539062 94.902344 37.035156 95.035156 36.808594 94.546875 C 36.621094 94.140625 36.929688 93.761719 36.949219 93.148438 C 36.617188 93.515625 36.390625 93.78125 36.148438 94.027344 C 36.003906 94.175781 35.875 94.402344 35.621094 94.320312 C 35.339844 94.230469 35.351562 93.964844 35.339844 93.730469 C 35.328125 93.578125 35.332031 93.429688 35.328125 93.230469 M 41.613281 94.699219 C 42.152344 94.671875 42.449219 93.992188 42.25 93.210938 C 41.988281 93.296875 41.75 93.863281 41.457031 93.28125 C 41.351562 93.074219 41.273438 92.863281 41.007812 92.949219 C 40.738281 93.035156 40.707031 93.273438 40.777344 93.550781 C 40.875 93.574219 40.976562 93.601562 41.078125 93.628906 C 41.332031 93.691406 41.722656 93.636719 41.640625 94.054688 C 41.566406 94.425781 41.207031 94.378906 40.945312 94.308594 C 40.453125 94.179688 40.402344 94.460938 40.386719 94.820312 C 40.804688 95.144531 41.175781 95.085938 41.613281 94.699219 M 38.429688 93.441406 C 38.507812 93.171875 38.589844 92.90625 38.65625 92.636719 C 38.6875 92.503906 38.667969 92.375 38.515625 92.320312 C 38.402344 92.28125 38.300781 92.320312 38.246094 92.429688 C 38.011719 92.933594 37.796875 93.449219 37.730469 94.007812 C 37.707031 94.207031 37.835938 94.320312 38.058594 94.328125 C 38.3125 94.132812 38.296875 93.804688 38.429688 93.441406 M 33.21875 90.597656 C 33.175781 90.773438 32.96875 90.910156 33.089844 91.128906 C 33.398438 91.226562 33.621094 91.140625 33.644531 90.808594 C 33.660156 90.585938 33.574219 90.359375 33.21875 90.597656 Z M 33.21875 90.597656 "/>
<path style=" stroke:none;fill-rule:nonzero;fill:rgb(0%,0%,0%);fill-opacity:1;" d="M 30.613281 91.933594 C 29.277344 92.105469 28.464844 91.339844 28.492188 89.914062 C 27.433594 90.496094 26.539062 90.191406 25.667969 89.496094 C 25.253906 89.164062 25.257812 88.933594 25.582031 88.566406 C 25.894531 88.214844 26.164062 87.824219 26.4375 87.441406 C 26.609375 87.207031 26.773438 87.023438 26.644531 86.644531 C 26.488281 86.179688 26.90625 86.222656 27.15625 86.355469 C 28.152344 86.882812 29.292969 87.296875 29.246094 88.789062 C 29.757812 88.566406 30.207031 88.339844 30.71875 88.46875 C 31.3125 88.621094 31.824219 88.902344 31.992188 89.523438 C 32.195312 90.261719 31.980469 90.921875 31.429688 91.460938 C 31.214844 91.671875 30.960938 91.835938 30.613281 91.933594 M 30.863281 90.761719 C 31.316406 89.890625 31.28125 89.378906 30.757812 89.148438 C 30.347656 88.96875 29.839844 89.335938 29.527344 90.023438 C 29.332031 90.453125 29.289062 90.871094 29.722656 91.164062 C 30.183594 91.476562 30.527344 91.21875 30.863281 90.761719 M 26.933594 88.261719 C 26.757812 88.546875 26.480469 88.769531 26.386719 89.132812 C 26.71875 89.53125 27.152344 89.640625 27.585938 89.421875 C 28.066406 89.179688 28.347656 88.730469 28.332031 88.175781 C 28.320312 87.835938 28.085938 87.574219 27.773438 87.457031 C 27.46875 87.34375 27.40625 87.675781 27.253906 87.832031 C 27.152344 87.9375 27.078125 88.070312 26.933594 88.261719 Z M 26.933594 88.261719 "/>
<path style=" stroke:none;fill-rule:nonzero;fill:rgb(0%,0%,0%);fill-opacity:1;" d="M 82.160156 71.6875 C 81.8125 71.347656 81.550781 70.933594 81.015625 71.121094 C 80.808594 70.332031 81.191406 69.890625 81.914062 70.039062 C 82.328125 70.121094 82.746094 70.207031 83.292969 70.320312 C 82.980469 69.964844 82.753906 69.71875 82.542969 69.460938 C 82.265625 69.121094 82.191406 68.808594 82.554688 68.445312 C 82.777344 68.222656 82.898438 67.90625 83.0625 67.628906 C 83.371094 67.125 83.746094 66.691406 84.34375 66.527344 C 84.40625 66.324219 84.207031 66.15625 84.300781 65.960938 C 84.429688 65.699219 84.445312 65.339844 84.785156 65.25 C 85.113281 65.160156 85.273438 65.453125 85.460938 65.652344 C 85.863281 66.074219 86.113281 66.660156 86.769531 66.875 C 87.003906 66.222656 86.6875 65.761719 86.351562 65.320312 C 86.132812 65.03125 85.859375 64.78125 85.621094 64.507812 C 85.457031 64.320312 85.355469 64.109375 85.488281 63.859375 C 85.628906 63.585938 85.855469 63.621094 86.144531 63.78125 C 86.007812 63.191406 86 62.683594 86.296875 62.222656 C 86.605469 61.742188 87.007812 61.726562 87.300781 62.210938 C 87.480469 62.503906 87.546875 62.820312 87.027344 62.773438 C 86.746094 62.75 86.65625 62.882812 86.6875 63.097656 C 86.722656 63.34375 86.925781 63.371094 87.136719 63.320312 C 87.179688 63.308594 87.21875 63.289062 87.257812 63.273438 C 87.691406 63.074219 88.121094 62.839844 88.546875 63.308594 C 88.917969 63.71875 89.085938 64.535156 88.726562 65.046875 C 88.390625 65.515625 88.339844 66.207031 87.695312 66.449219 C 87.582031 66.492188 87.582031 66.617188 87.558594 66.722656 C 87.300781 67.933594 87.050781 68.0625 85.875 67.546875 C 86.25 68.4375 86.3125 69.273438 85.699219 70.058594 C 85.226562 70.664062 85.058594 70.6875 84.566406 70.109375 C 84.191406 69.664062 83.753906 69.296875 83.257812 68.960938 C 83.335938 69.351562 83.625 69.613281 83.875 69.890625 C 84.089844 70.132812 84.335938 70.34375 84.558594 70.578125 C 84.714844 70.742188 84.945312 70.902344 84.792969 71.179688 C 84.636719 71.457031 84.359375 71.421875 84.101562 71.382812 C 83.667969 71.316406 83.238281 71.234375 82.761719 71.152344 C 82.851562 71.5 83.0625 71.660156 83.21875 71.855469 C 83.480469 72.183594 83.855469 72.449219 83.472656 72.957031 C 83.097656 73.453125 82.734375 73.804688 82.089844 73.390625 C 81.933594 73.289062 81.753906 73.164062 81.570312 73.359375 C 81.429688 73.503906 81.28125 73.695312 81.4375 73.867188 C 82.324219 74.863281 81.492188 75.425781 80.886719 76.015625 C 80.15625 76.726562 79.375 77.386719 78.640625 78.097656 C 78.339844 78.390625 78.15625 78.34375 77.910156 78.050781 C 77.558594 77.617188 77.175781 77.207031 76.800781 76.796875 C 76.65625 76.644531 76.527344 76.453125 76.285156 76.441406 C 76.082031 76.433594 75.8125 76.550781 75.761719 76.234375 C 75.707031 75.917969 75.945312 75.722656 76.175781 75.5625 C 76.398438 75.402344 76.628906 75.449219 76.816406 75.640625 C 77.136719 75.957031 77.4375 76.292969 77.761719 76.605469 C 77.992188 76.828125 78.140625 77.285156 78.570312 77.050781 C 79.003906 76.816406 78.910156 76.265625 78.851562 75.957031 C 78.773438 75.554688 78.378906 75.195312 77.9375 75.035156 C 77.738281 74.960938 77.421875 75.105469 77.417969 74.730469 C 77.414062 74.449219 77.578125 74.242188 77.800781 74.097656 C 78.058594 73.929688 78.300781 74.027344 78.5 74.222656 C 78.742188 74.464844 78.972656 74.722656 79.207031 74.972656 C 79.367188 75.144531 79.523438 75.324219 79.695312 75.484375 C 79.820312 75.597656 79.949219 75.738281 80.148438 75.625 C 80.324219 75.523438 80.472656 75.40625 80.398438 75.164062 C 80.351562 75.019531 80.296875 74.808594 80.441406 74.75 C 81.058594 74.488281 80.734375 74.125 80.589844 73.761719 C 80.386719 73.242188 80.191406 72.71875 80.007812 72.195312 C 79.921875 71.953125 79.839844 71.699219 80.09375 71.484375 C 80.367188 71.253906 80.578125 71.441406 80.785156 71.578125 C 81.386719 71.972656 81.980469 72.371094 82.738281 72.671875 C 82.667969 72.203125 82.371094 71.996094 82.160156 71.6875 M 83.921875 68.230469 C 84.328125 68.660156 84.730469 69.089844 85.148438 69.535156 C 85.710938 68.75 85.230469 67.585938 84.40625 67.453125 C 84 67.386719 83.765625 67.699219 83.921875 68.230469 M 87.96875 64.714844 C 88.359375 64.636719 88.292969 64.351562 88.1875 64.128906 C 88.074219 63.886719 87.851562 64.003906 87.695312 64.109375 C 87.3125 64.359375 86.917969 64.414062 86.414062 64.1875 C 86.75 64.535156 87.015625 64.804688 87.332031 65.132812 C 87.425781 64.828125 87.515625 64.539062 87.96875 64.714844 Z M 87.96875 64.714844 "/>
<path style=" stroke:none;fill-rule:nonzero;fill:rgb(0%,0%,0%);fill-opacity:1;" d="M 75.976562 78.375 C 75.554688 77.996094 75.292969 77.492188 74.691406 77.398438 C 74.492188 77.371094 74.390625 77.132812 74.515625 76.933594 C 74.679688 76.679688 74.886719 76.425781 75.238281 76.519531 C 75.394531 76.5625 75.554688 76.667969 75.667969 76.785156 C 76.179688 77.335938 76.671875 77.898438 77.171875 78.457031 C 77.378906 78.6875 77.5 78.921875 77.214844 79.175781 C 76.933594 79.425781 76.753906 79.222656 76.574219 79.023438 C 76.386719 78.816406 76.195312 78.613281 75.976562 78.375 Z M 75.976562 78.375 "/>
<path style=" stroke:none;fill-rule:nonzero;fill:rgb(0%,0%,0%);fill-opacity:1;" d="M 46.792969 7.28125 C 46.929688 7.570312 46.878906 7.890625 47.21875 8.097656 C 47.574219 7.234375 47.796875 6.355469 47.960938 5.457031 C 48.007812 5.195312 47.800781 5.035156 47.65625 4.847656 C 47.367188 4.46875 47.457031 4.15625 47.90625 4.109375 C 48.457031 4.054688 49.023438 4.054688 49.578125 4.101562 C 49.953125 4.136719 50.09375 4.433594 49.890625 4.761719 C 48.925781 6.324219 48.722656 8.15625 48.082031 9.832031 C 47.90625 10.292969 47.917969 10.695312 48.347656 11.03125 C 48.527344 11.175781 48.710938 11.371094 48.578125 11.640625 C 48.453125 11.890625 48.199219 11.894531 47.960938 11.894531 C 46.296875 11.894531 44.636719 11.972656 42.980469 12.132812 C 42.746094 12.152344 42.488281 12.152344 42.355469 11.902344 C 42.222656 11.652344 42.335938 11.441406 42.535156 11.28125 C 42.789062 11.082031 42.757812 10.84375 42.660156 10.589844 C 42.148438 9.292969 41.632812 8 41.132812 6.699219 C 41 6.359375 40.699219 6.242188 40.425781 6.078125 C 40.210938 5.949219 40.039062 5.792969 40.097656 5.511719 C 40.152344 5.253906 40.382812 5.1875 40.589844 5.167969 C 41.402344 5.09375 42.214844 5.015625 43.027344 5 C 43.488281 4.988281 43.695312 5.378906 43.386719 5.675781 C 42.894531 6.144531 43.054688 6.574219 43.273438 7.0625 C 43.457031 7.46875 43.617188 7.886719 43.828125 8.398438 C 44.269531 7.464844 44.351562 6.539062 44.621094 5.671875 C 44.738281 5.289062 44.777344 4.875 45.347656 4.84375 C 45.917969 4.8125 46.085938 5.15625 46.226562 5.589844 C 46.402344 6.140625 46.589844 6.6875 46.792969 7.28125 M 44.847656 10.804688 C 45.0625 10.988281 45.195312 11.339844 45.574219 11.183594 C 45.773438 11.101562 46 10.957031 45.960938 10.726562 C 45.84375 10.058594 45.601562 9.425781 45.242188 8.835938 C 45.066406 9.484375 44.675781 10.050781 44.847656 10.804688 Z M 44.847656 10.804688 "/>
<path style=" stroke:none;fill-rule:nonzero;fill:rgb(0%,0%,0%);fill-opacity:1;" d="M 24.398438 15.328125 C 24.425781 15.691406 24.222656 15.875 23.90625 15.984375 C 23.277344 16.199219 22.652344 16.429688 22.019531 16.640625 C 21.824219 16.707031 21.609375 16.808594 21.417969 16.613281 C 21.226562 16.425781 21.28125 16.214844 21.390625 16.023438 C 21.539062 15.765625 21.453125 15.527344 21.371094 15.28125 C 21.011719 14.226562 20.65625 13.171875 20.289062 12.117188 C 20.101562 11.582031 19.984375 11.023438 19.316406 10.777344 C 18.980469 10.65625 18.988281 10.242188 19.359375 10.085938 C 20.128906 9.765625 20.925781 9.503906 21.71875 9.234375 C 21.910156 9.167969 22.101562 9.203125 22.234375 9.390625 C 22.367188 9.574219 22.355469 9.757812 22.226562 9.925781 C 21.703125 10.582031 22.164062 11.175781 22.425781 11.710938 C 22.632812 12.136719 23.074219 11.75 23.402344 11.691406 C 23.648438 11.644531 23.878906 11.507812 23.769531 11.203125 C 23.554688 10.605469 23.609375 9.878906 22.828125 9.566406 C 22.453125 9.414062 22.492188 9 22.890625 8.855469 C 23.679688 8.570312 24.484375 8.34375 25.289062 8.105469 C 25.460938 8.054688 25.628906 8.09375 25.742188 8.261719 C 25.867188 8.453125 25.839844 8.65625 25.707031 8.800781 C 25.34375 9.203125 25.449219 9.613281 25.59375 10.058594 C 25.929688 11.121094 26.242188 12.191406 26.542969 13.261719 C 26.652344 13.652344 26.816406 13.960938 27.179688 14.179688 C 27.546875 14.398438 27.578125 14.726562 27.175781 14.917969 C 26.457031 15.261719 25.667969 15.402344 24.902344 15.609375 C 24.722656 15.65625 24.574219 15.539062 24.441406 15.324219 C 25.019531 14.417969 24.558594 13.671875 24.25 12.855469 C 24.023438 12.914062 23.820312 12.96875 23.613281 13.011719 C 23.066406 13.125 22.980469 13.40625 23.140625 13.941406 C 23.34375 14.632812 23.691406 15.121094 24.398438 15.328125 Z M 24.398438 15.328125 "/>
<path style=" stroke:none;fill-rule:nonzero;fill:rgb(0%,0%,0%);fill-opacity:1;" d="M 38.269531 10.480469 C 38.230469 10.214844 38.183594 10.003906 38.171875 9.789062 C 38.144531 9.238281 37.898438 8.851562 37.363281 8.675781 C 37.195312 8.617188 37.007812 8.574219 37.019531 8.355469 C 37.035156 8.082031 37.269531 8.109375 37.453125 8.078125 C 38.300781 7.917969 39.15625 7.835938 40.015625 7.808594 C 40.210938 7.800781 40.425781 7.765625 40.523438 7.988281 C 40.605469 8.179688 40.578125 8.382812 40.433594 8.53125 C 39.660156 9.304688 40.164062 10.1875 40.21875 11.027344 C 40.230469 11.210938 40.449219 11.257812 40.589844 11.355469 C 40.792969 11.492188 40.945312 11.675781 40.882812 11.945312 C 40.824219 12.199219 40.628906 12.25 40.40625 12.300781 C 39.207031 12.566406 37.984375 12.679688 36.769531 12.761719 C 35.136719 12.875 33.496094 11.144531 33.390625 9.324219 C 33.253906 6.933594 34.699219 5.46875 37.375 5.289062 C 37.992188 5.25 38.609375 5.320312 39.222656 5.09375 C 39.570312 4.964844 39.820312 5.230469 39.714844 5.609375 C 39.542969 6.226562 39.34375 6.84375 39.105469 7.4375 C 38.949219 7.828125 38.621094 7.820312 38.375 7.46875 C 37.800781 6.65625 37.269531 6.421875 36.503906 6.644531 C 35.867188 6.832031 35.398438 7.570312 35.378906 8.429688 C 35.363281 9.261719 35.457031 10.0625 35.976562 10.753906 C 36.4375 11.363281 37.230469 11.613281 37.9375 11.390625 C 38.414062 11.238281 38.273438 10.863281 38.269531 10.480469 Z M 38.269531 10.480469 "/>
<path style=" stroke:none;fill-rule:nonzero;fill:rgb(0%,0%,0%);fill-opacity:1;" d="M 56.367188 9.765625 C 56.34375 10.484375 56.550781 11.058594 57.128906 11.46875 C 57.351562 11.628906 57.617188 11.820312 57.445312 12.152344 C 57.296875 12.4375 57.019531 12.351562 56.757812 12.324219 C 56.035156 12.238281 55.304688 12.183594 54.582031 12.105469 C 54.375 12.082031 54.132812 12.078125 54.054688 11.816406 C 53.984375 11.570312 54.121094 11.386719 54.316406 11.28125 C 54.785156 11.019531 54.558594 10.664062 54.46875 10.328125 C 54.371094 9.980469 54.238281 9.679688 53.785156 9.699219 C 53.507812 9.710938 53.226562 9.6875 52.949219 9.667969 C 52.632812 9.644531 52.417969 9.757812 52.285156 10.058594 C 52.152344 10.351562 52.109375 10.628906 52.324219 10.902344 C 52.433594 11.035156 52.5625 11.15625 52.652344 11.296875 C 52.910156 11.710938 52.796875 11.988281 52.320312 11.992188 C 51.484375 11.992188 50.648438 11.929688 49.816406 11.882812 C 49.640625 11.871094 49.480469 11.789062 49.429688 11.59375 C 49.359375 11.335938 49.511719 11.1875 49.707031 11.074219 C 50.265625 10.757812 50.734375 10.367188 50.945312 9.671875 C 50.421875 9.480469 50.535156 9.097656 50.699219 8.703125 C 50.773438 8.523438 50.851562 8.347656 50.921875 8.167969 C 51.183594 7.480469 51.246094 7.457031 51.871094 7.816406 C 52.089844 7.328125 52.292969 6.839844 52.523438 6.359375 C 52.667969 6.0625 52.574219 5.839844 52.40625 5.589844 C 52.132812 5.175781 52.335938 4.890625 52.765625 4.890625 C 53.558594 4.890625 54.355469 4.953125 55.140625 5.042969 C 55.496094 5.085938 55.824219 5.40625 55.507812 5.714844 C 54.960938 6.242188 55.21875 6.71875 55.410156 7.234375 C 55.492188 7.453125 55.546875 7.6875 55.730469 7.871094 C 55.960938 7.953125 56.339844 7.609375 56.445312 8.007812 C 56.597656 8.570312 56.796875 9.167969 56.367188 9.765625 Z M 56.367188 9.765625 "/>
<path style=" stroke:none;fill-rule:nonzero;fill:rgb(0%,0%,0%);fill-opacity:1;" d="M 63.273438 11.699219 C 63.585938 12.21875 63.863281 12.703125 64.171875 13.167969 C 64.328125 13.402344 64.445312 13.621094 64.226562 13.859375 C 63.980469 14.128906 63.710938 14.011719 63.480469 13.832031 C 62.476562 13.039062 61.792969 12.015625 61.382812 10.8125 C 61.324219 10.652344 61.289062 10.480469 61.238281 10.316406 C 61.167969 10.089844 61.03125 9.960938 60.769531 9.972656 C 60.527344 9.984375 60.347656 10.054688 60.289062 10.308594 C 60.15625 10.882812 60.0625 11.457031 60.488281 11.960938 C 60.640625 12.144531 60.832031 12.324219 60.671875 12.582031 C 60.496094 12.859375 60.234375 12.753906 59.976562 12.714844 C 59.425781 12.632812 58.867188 12.597656 58.316406 12.515625 C 58.078125 12.476562 57.769531 12.484375 57.683594 12.167969 C 57.597656 11.859375 57.8125 11.695312 58.046875 11.5625 C 58.570312 11.265625 58.535156 10.753906 58.550781 10.261719 C 58.558594 10.117188 58.46875 10.007812 58.328125 9.988281 C 58.058594 9.953125 57.785156 9.910156 57.808594 9.558594 C 57.832031 9.230469 57.976562 8.933594 58.269531 8.75 C 58.925781 8.339844 59.117188 7.367188 58.65625 6.710938 C 58.429688 6.390625 58.472656 6.136719 58.855469 6.007812 C 60.578125 5.441406 62.265625 5.515625 63.785156 6.554688 C 65.011719 7.390625 64.78125 8.976562 63.414062 9.59375 C 62.566406 9.972656 62.5625 9.976562 62.890625 10.835938 C 62.996094 11.113281 63.132812 11.382812 63.273438 11.699219 M 61.027344 8.726562 C 61.460938 8.738281 61.886719 8.714844 62.257812 8.460938 C 62.5 8.292969 62.6875 8.078125 62.613281 7.765625 C 62.496094 7.300781 62.125 7.09375 61.699219 6.960938 C 61.429688 6.875 61.152344 6.785156 60.914062 7.003906 C 60.625 7.265625 60.644531 8.355469 61.027344 8.726562 Z M 61.027344 8.726562 "/>
<path style=" stroke:none;fill-rule:nonzero;fill:rgb(0%,0%,0%);fill-opacity:1;" d="M 71.710938 10.175781 C 72.171875 8.914062 73.277344 8.414062 74.671875 8.796875 C 75.214844 8.945312 75.710938 9.199219 76.191406 9.488281 C 76.523438 9.6875 76.84375 9.875 77.253906 9.902344 C 77.683594 9.929688 77.8125 10.199219 77.558594 10.574219 C 77.246094 11.039062 76.851562 11.445312 76.402344 11.773438 C 75.996094 12.074219 75.644531 11.914062 75.597656 11.410156 C 75.539062 10.742188 75.230469 10.273438 74.609375 10.035156 C 74.222656 9.890625 73.808594 9.882812 73.570312 10.269531 C 73.335938 10.648438 73.699219 10.859375 73.9375 11.050781 C 74.273438 11.3125 74.648438 11.527344 75 11.773438 C 75.300781 11.980469 75.613281 12.179688 75.878906 12.425781 C 76.746094 13.230469 76.890625 13.9375 76.414062 14.878906 C 75.933594 15.828125 75.003906 16.285156 73.953125 16.105469 C 73.246094 15.988281 72.578125 15.757812 71.972656 15.378906 C 71.496094 15.082031 71.039062 14.769531 70.433594 14.832031 C 70.21875 14.855469 70.078125 14.695312 70 14.507812 C 69.910156 14.292969 70.03125 14.136719 70.171875 13.996094 C 70.519531 13.648438 70.871094 13.300781 71.21875 12.949219 C 71.382812 12.777344 71.542969 12.570312 71.8125 12.636719 C 72.105469 12.707031 72.15625 12.976562 72.214844 13.234375 C 72.457031 14.3125 72.882812 14.75 73.816406 14.886719 C 74.199219 14.941406 74.574219 14.917969 74.757812 14.511719 C 74.921875 14.140625 74.710938 13.839844 74.453125 13.601562 C 74.058594 13.230469 73.578125 12.992188 73.089844 12.761719 C 71.988281 12.234375 71.464844 11.273438 71.710938 10.175781 Z M 71.710938 10.175781 "/>
<path style=" stroke:none;fill-rule:nonzero;fill:rgb(0%,0%,0%);fill-opacity:1;" d="M 33.25 9.644531 C 33.363281 10.570312 33.503906 11.4375 33.109375 12.285156 C 32.535156 13.511719 31.523438 14.019531 30.222656 14.09375 C 28.796875 14.175781 27.777344 13.546875 27.117188 12.328125 C 26.648438 11.460938 26.398438 10.523438 26.613281 9.535156 C 26.953125 7.96875 28.269531 6.945312 29.921875 6.914062 C 31.582031 6.886719 32.753906 7.832031 33.25 9.644531 M 30.058594 12.859375 C 30.9375 12.828125 31.390625 12.457031 31.445312 11.683594 C 31.515625 10.726562 31.324219 9.8125 30.914062 8.945312 C 30.652344 8.402344 30.003906 8.078125 29.488281 8.191406 C 28.914062 8.320312 28.492188 8.804688 28.445312 9.429688 C 28.378906 10.371094 28.605469 11.253906 29.054688 12.078125 C 29.253906 12.433594 29.519531 12.746094 30.058594 12.859375 Z M 30.058594 12.859375 "/>
<path style=" stroke:none;fill-rule:nonzero;fill:rgb(0%,0%,0%);fill-opacity:1;" d="M 67.085938 10.164062 C 67.203125 9.652344 67.324219 9.195312 67.429688 8.738281 C 67.492188 8.476562 67.523438 8.210938 67.207031 8.082031 C 66.929688 7.972656 66.699219 8.070312 66.523438 8.296875 C 66.445312 8.398438 66.386719 8.515625 66.320312 8.621094 C 66.203125 8.8125 66.058594 8.972656 65.804688 8.933594 C 65.515625 8.882812 65.460938 8.648438 65.40625 8.410156 C 65.324219 8.058594 65.242188 7.703125 65.148438 7.351562 C 64.953125 6.605469 65.136719 6.402344 65.910156 6.574219 C 67.230469 6.871094 68.542969 7.191406 69.859375 7.511719 C 70.503906 7.667969 71.148438 7.839844 71.785156 8.035156 C 72.402344 8.21875 72.46875 8.480469 72.050781 8.941406 C 71.761719 9.261719 71.476562 9.582031 71.160156 9.875 C 70.785156 10.226562 70.449219 10.109375 70.328125 9.605469 C 70.289062 9.4375 70.292969 9.257812 70.230469 9.101562 C 70.132812 8.839844 69.9375 8.683594 69.644531 8.683594 C 69.332031 8.6875 69.273438 8.914062 69.214844 9.15625 C 68.933594 10.257812 68.640625 11.355469 68.371094 12.457031 C 68.269531 12.878906 68.273438 13.285156 68.488281 13.707031 C 68.730469 14.1875 68.542969 14.429688 68.019531 14.328125 C 67.328125 14.191406 66.640625 14 65.964844 13.800781 C 65.601562 13.691406 65.421875 13.3125 65.785156 13.152344 C 66.597656 12.792969 66.605469 12.066406 66.792969 11.40625 C 66.902344 11.011719 66.984375 10.613281 67.085938 10.164062 Z M 67.085938 10.164062 "/>
</g>
</svg>
