<svg version="1.1" id="Layer_1" xmlns="http://www.w3.org/2000/svg" xmlns:xlink="http://www.w3.org/1999/xlink" x="0px" y="0px"
	 width="100%" viewBox="0 0 688 688" enable-background="new 0 0 688 688" xml:space="preserve">
<path fill="#000000" opacity="1.000000" stroke="none" 
	d="
M511.939178,461.972839 
	C503.462097,469.859650 492.934357,471.065094 482.571442,472.118713 
	C477.834442,472.600342 474.871216,474.185303 471.854675,477.932281 
	C462.055511,490.104401 450.245270,498.513123 433.751190,500.524017 
	C423.222321,501.807648 413.898163,499.683624 404.605682,496.297974 
	C399.005127,494.257446 394.896790,495.534302 390.912476,498.977966 
	C388.682343,500.905457 386.602936,502.631775 383.384613,501.805145 
	C382.848083,501.667358 382.060364,501.984253 381.553436,502.331512 
	C370.363434,509.997803 357.670288,511.613403 344.595490,511.253967 
	C338.372589,511.082886 332.425842,508.633606 327.156311,505.814453 
	C315.721741,499.697052 304.472198,500.575195 292.460907,503.431030 
	C276.813385,507.151428 260.960724,507.279144 246.468933,499.136810 
	C241.285156,496.224213 236.522171,492.081635 232.912643,486.824585 
	C227.205185,478.512146 220.257004,471.139282 214.665207,462.667419 
	C206.518280,450.324341 201.383041,436.687103 195.904343,423.131317 
	C192.041336,413.573151 189.260269,403.569092 187.784805,393.594269 
	C186.344254,383.855682 185.090088,373.974945 184.221497,364.147614 
	C183.529648,356.320190 185.083527,348.264801 185.915298,340.339478 
	C187.007538,329.932495 188.180466,319.526764 189.663681,309.169891 
	C191.496841,296.369690 192.750320,283.331970 197.546417,271.247772 
	C204.545547,253.612762 211.896225,236.106537 225.092575,221.788223 
	C232.601151,213.641251 239.941406,205.146820 249.030914,198.976639 
	C261.716003,190.365677 274.780182,182.292969 289.294098,176.614441 
	C304.467041,170.678055 320.222198,168.840103 336.083954,166.460876 
	C348.318939,164.625641 360.369598,165.557571 372.144165,167.396683 
	C385.475494,169.478943 398.091827,174.810242 410.467041,180.619812 
	C422.312256,186.180542 431.882996,194.393372 440.903412,203.365601 
	C451.182434,213.589844 458.635223,225.773865 464.400024,239.147278 
	C468.215698,247.999039 470.597412,257.273346 473.606049,266.339691 
	C476.041229,273.677979 476.350067,281.692719 478.231354,289.250793 
	C481.043915,300.550262 482.407990,312.299042 488.663879,322.603271 
	C490.695557,325.949646 491.470001,330.048798 492.901306,333.772186 
	C497.996307,347.026489 506.185547,358.560120 513.852417,370.309296 
	C522.871338,384.130524 530.591431,398.736237 531.304016,415.159058 
	C531.975708,430.639771 530.545837,446.636963 516.599060,457.656708 
	C515.037048,458.890839 513.664307,460.364441 511.939178,461.972839 
M432.890961,485.364014 
	C448.951782,483.325928 459.945831,472.806610 470.720734,462.242859 
	C473.868927,459.156372 476.716400,457.434540 481.099548,457.768127 
	C485.516235,458.104279 490.075836,457.953278 494.149719,456.095825 
	C506.630402,450.405365 513.534485,440.099091 516.092712,427.065338 
	C517.138855,421.735626 517.833252,416.135925 515.816467,410.455139 
	C512.638794,401.504333 510.228424,392.369965 504.978485,384.181305 
	C502.773529,380.742035 501.270294,376.726288 498.478729,373.639893 
	C491.771576,366.224304 487.164276,357.305023 482.934845,348.592377 
	C476.423889,335.179840 471.419373,321.023468 466.748230,306.722168 
	C461.932190,291.977112 460.489594,276.633606 456.205475,261.813232 
	C453.286377,251.714890 448.274902,242.746658 444.302460,233.343353 
	C442.033051,227.971420 437.550415,222.620422 433.298645,217.716782 
	C425.333862,208.530853 417.349121,199.511871 406.248230,194.121323 
	C392.718445,187.551285 379.708466,179.872971 363.705780,179.786285 
	C355.893463,179.743958 348.104889,179.857849 340.335754,180.309402 
	C328.725433,180.984222 317.250702,182.964798 305.766968,184.754898 
	C299.865204,185.674881 295.550140,190.242035 289.972321,191.819489 
	C283.854126,193.549744 278.287964,196.537827 272.720184,199.361359 
	C260.939392,205.335541 251.332962,214.330185 242.068085,223.547043 
	C233.815872,231.756485 226.816345,241.018280 220.933807,251.132935 
	C217.187531,257.574463 216.630280,265.233948 213.117981,271.564453 
	C206.452042,283.578918 205.275986,296.961212 203.536697,309.918701 
	C201.575500,324.529541 198.739700,339.161163 199.387985,354.134186 
	C199.627960,359.677216 199.223633,365.368286 199.719894,370.897522 
	C200.798401,382.914185 202.097397,394.880554 205.325668,406.658081 
	C207.671844,415.217529 210.734909,423.418884 214.393555,431.377289 
	C222.215775,448.392548 233.454926,463.297607 244.498367,478.289276 
	C249.036560,484.449921 255.384689,488.514526 262.525940,490.119385 
	C274.701904,492.855743 286.766693,490.783325 298.686310,487.247437 
	C302.695709,486.058044 307.419952,484.785370 311.423096,486.251526 
	C320.481201,489.569092 329.644501,492.437775 338.978821,494.786163 
	C349.719177,497.488281 360.280243,496.957611 370.456482,492.358337 
	C378.019714,488.940002 385.467438,485.265472 393.040344,481.869537 
	C396.818329,480.175354 400.821259,480.122742 404.724274,481.571564 
	C413.565277,484.853424 422.373535,488.234528 432.890961,485.364014 
z"/>
<path fill="#000000" opacity="1.000000" stroke="none" 
	d="
M547.888123,209.707855 
	C560.263184,215.105042 563.666077,233.718872 554.366455,244.208130 
	C548.107056,251.268265 540.751465,255.438965 532.416565,257.873871 
	C525.939575,259.766052 519.466675,257.788513 513.080261,254.428513 
	C501.081238,248.115631 492.643585,239.958939 491.851440,225.619751 
	C491.574768,220.611404 496.692444,209.595444 501.036621,207.097366 
	C507.510071,203.374863 515.098877,203.884659 521.087341,208.584869 
	C523.682861,210.622055 526.107849,212.876541 528.744812,215.148193 
	C534.594238,212.137314 539.991089,207.191528 547.888123,209.707855 
M546.038940,230.900024 
	C548.066589,227.206665 546.581848,223.985901 544.185852,221.339233 
	C542.234558,219.183762 539.440552,219.207947 536.773804,220.446152 
	C533.632507,221.904678 530.712280,223.496750 531.447754,227.786758 
	C531.700867,229.262894 531.263367,230.447617 529.651550,230.860947 
	C528.185669,231.236847 527.086670,230.641327 526.155579,229.519577 
	C524.582947,227.624847 524.780518,225.091660 523.752197,223.016663 
	C521.385437,218.240936 517.478333,215.265778 512.300781,214.425827 
	C508.192474,213.759323 505.867676,216.957123 504.039124,219.873444 
	C500.929596,224.832809 503.726349,234.195602 508.999023,237.652481 
	C511.909821,239.560852 515.167664,241.087479 517.680176,243.420410 
	C521.229370,246.715942 525.158264,247.099426 529.144043,245.506989 
	C536.126404,242.717361 543.816345,240.492813 546.038940,230.900024 
z"/>
<path fill="#000000" opacity="1.000000" stroke="none" 
	d="
M160.567474,389.483185 
	C156.312897,393.777039 156.343491,401.215668 150.285538,403.201691 
	C139.120865,406.861908 121.987549,403.419464 115.777901,390.658539 
	C113.083221,385.120972 114.231438,379.588135 118.387535,374.924500 
	C122.467766,370.346008 127.494400,371.176208 132.771835,372.806030 
	C134.757935,369.384766 135.867126,365.481415 138.738586,362.559570 
	C143.333344,357.884277 149.145737,356.166534 154.578171,358.256256 
	C160.943008,360.704681 164.182022,365.522827 165.040268,372.163055 
	C165.847702,378.410217 164.171432,383.995819 160.567474,389.483185 
M134.007233,380.592255 
	C131.349197,378.773529 128.198761,377.287994 126.362938,380.912628 
	C124.714157,384.167999 126.204361,387.713226 129.485168,389.345978 
	C133.467407,391.327820 137.739365,392.893188 142.362274,392.820343 
	C143.704208,392.799194 145.267319,392.913635 146.023529,391.688934 
	C149.837051,385.512604 154.308563,379.591644 153.962204,371.721558 
	C153.775162,367.471741 151.599426,366.244690 147.700821,367.032990 
	C142.788895,368.026215 139.024017,372.395599 138.636536,378.077332 
	C138.440277,380.955292 137.973068,382.853119 134.007233,380.592255 
z"/>
<path fill="#000000" opacity="1.000000" stroke="none" 
	d="
M270.729187,438.301331 
	C269.540131,437.101654 268.465271,436.240570 267.735413,435.148804 
	C264.025299,429.598907 259.919830,425.991669 252.721451,429.992706 
	C249.892990,431.564911 246.959579,429.034668 244.188797,428.185883 
	C230.513214,423.996460 219.558868,415.877319 211.131760,404.352173 
	C210.466949,403.442963 210.021179,402.291138 209.763184,401.184570 
	C209.268646,399.063354 208.793823,396.600616 210.879272,395.228699 
	C212.958939,393.860596 215.118332,394.944489 216.704041,396.612366 
	C223.046188,403.283234 230.935379,407.982330 238.125443,413.571045 
	C244.420288,418.463928 251.550140,417.985321 258.509857,416.067932 
	C262.790039,414.888763 264.663391,408.971466 263.180847,404.238892 
	C260.691772,396.293213 256.694458,390.131927 249.089478,385.345245 
	C241.374115,380.489136 235.272934,373.025146 228.634781,366.529572 
	C226.844421,364.777649 227.003937,362.020660 227.903290,359.925934 
	C229.391495,356.459686 232.276184,359.641113 234.684860,359.072937 
	C236.433304,355.075958 236.829605,350.497742 239.630692,346.804108 
	C250.549454,332.406281 270.151306,324.962219 287.899567,330.052368 
	C292.731720,331.438202 297.357849,334.199554 301.057983,337.761261 
	C303.626770,340.233948 305.471863,340.240204 308.421051,338.502533 
	C316.631927,333.664673 325.339844,330.329132 335.163422,330.611877 
	C348.173187,330.986267 362.519257,340.669769 367.446198,352.946442 
	C368.449005,352.946442 369.611115,352.799744 370.719727,352.980652 
	C372.404205,353.255615 374.074554,353.906097 374.475830,355.778595 
	C374.865509,357.597046 373.862549,359.006927 372.364502,359.973541 
	C363.488373,365.700745 355.267181,372.339661 345.708038,377.149506 
	C338.008881,381.023499 330.527954,392.750824 337.589233,402.242279 
	C341.561981,407.582214 346.768280,409.662292 353.713776,407.212921 
	C361.795166,404.363037 368.686249,399.358551 375.706543,394.648407 
	C380.082947,391.712128 384.123291,388.278961 388.440552,385.248444 
	C390.005127,384.150146 392.091522,382.784637 393.744995,384.988129 
	C395.004669,386.666840 394.266907,388.543976 392.875305,389.964142 
	C379.939148,403.165619 366.839935,416.151703 348.318848,421.440216 
	C346.891174,421.847870 345.352692,422.378906 343.937744,422.218262 
	C340.485931,421.826324 338.342194,423.345428 336.455750,426.034302 
	C327.438782,438.886749 313.854523,446.424225 301.706390,455.625275 
	C300.312531,456.680939 298.797241,456.767792 297.068939,455.800598 
	C287.944305,450.694153 278.842194,445.573120 270.729187,438.301331 
M342.022156,344.439941 
	C324.107513,337.391846 309.910919,342.398895 299.304047,357.940063 
	C297.774658,357.239105 297.586975,356.127960 297.743408,355.213226 
	C298.396729,351.392120 296.179840,349.420990 293.288116,347.766205 
	C291.991211,347.024048 290.595551,346.341980 289.524139,345.335266 
	C275.299194,331.969116 247.534622,342.309174 241.220749,360.068451 
	C240.344894,362.531952 240.038620,364.797882 242.445450,366.257111 
	C248.995148,370.227936 254.254471,375.865662 260.581299,380.086243 
	C270.134155,386.458893 276.616821,394.310577 275.256348,406.750397 
	C274.703766,411.802856 271.709229,415.663879 269.762604,420.020752 
	C268.616425,422.586121 268.622284,424.068420 271.042908,425.834167 
	C279.083466,431.699402 287.501862,436.971832 295.964233,442.179016 
	C298.095520,443.490448 300.094391,443.447296 302.286377,441.540497 
	C307.029449,437.414612 312.238953,433.824371 316.976044,429.692200 
	C321.689026,425.581146 327.322662,422.562653 331.691803,417.595093 
	C330.306915,415.674561 328.984314,413.983978 327.814545,412.193512 
	C322.523285,404.094574 321.209198,395.479370 325.648132,386.704132 
	C329.642761,378.807190 335.981903,372.962341 343.653015,368.548828 
	C346.243500,367.058411 348.674133,365.290375 351.263153,363.797119 
	C352.921844,362.840454 353.249115,361.741302 353.215363,359.772278 
	C353.086639,352.267914 348.891418,347.876770 342.022156,344.439941 
z"/>
<path fill="#000000" opacity="1.000000" stroke="none" 
	d="
M354.158234,277.837891 
	C358.279297,282.516663 361.055023,287.288300 359.319794,293.570160 
	C357.320862,300.806610 351.893494,304.164032 345.195831,305.165131 
	C338.125214,306.221954 328.307770,298.528961 329.918732,288.990631 
	C331.278931,280.937317 336.414246,275.452759 344.391968,273.861420 
	C348.326141,273.076630 350.654144,276.464020 354.158234,277.837891 
z"/>
<path fill="#000000" opacity="1.000000" stroke="none" 
	d="
M248.863205,297.383789 
	C244.626389,291.855865 242.248459,286.694061 245.413788,279.721680 
	C248.782669,272.300903 251.317368,269.577179 259.893860,269.380585 
	C266.099548,269.238312 270.180115,273.087555 272.559265,278.327087 
	C274.960938,283.616180 273.378357,288.989227 270.182953,293.364746 
	C266.932312,297.815918 262.027740,300.154816 256.320587,299.602905 
	C253.888885,299.367798 251.535263,298.325226 248.863205,297.383789 
z"/>
<path fill="#000000" opacity="1.000000" stroke="none" 
	d="
M285.474304,295.837585 
	C287.897491,294.049561 290.131897,294.278961 292.262726,295.545776 
	C296.880829,298.291321 301.704865,298.163544 306.637543,296.733459 
	C308.750763,296.120789 310.694916,296.118195 311.741760,298.385651 
	C312.820801,300.722839 312.498901,302.855438 310.379822,304.627716 
	C303.509613,310.373627 291.006897,308.903290 285.756683,301.770081 
	C284.389526,299.912567 284.467255,298.114349 285.474304,295.837585 
z"/>
<path fill="#000000" opacity="1.000000" stroke="none" 
	d="
M232.187180,320.222321 
	C230.741714,321.999268 229.252594,322.432098 227.831528,320.957153 
	C226.648071,319.728821 227.016129,318.228424 227.921768,316.935913 
	C228.724243,315.790588 229.868759,315.016113 231.253357,315.694275 
	C233.106567,316.601990 232.950104,318.242126 232.187180,320.222321 
z"/>
<path fill="#000000" opacity="1.000000" stroke="none" 
	d="
M236.109344,318.642303 
	C237.940781,315.984344 240.070602,318.192352 242.107239,318.181885 
	C240.372986,320.122955 238.730255,322.486816 236.109344,318.642303 
z"/>
</svg>