<?xml version="1.0" encoding="UTF-8"?>
<svg xmlns="http://www.w3.org/2000/svg" xmlns:xlink="http://www.w3.org/1999/xlink" width="40px" height="40px" viewBox="0 0 40 40" version="1.1">
<g id="surface1">
<path style=" stroke:none;fill-rule:nonzero;fill:rgb(0%,0%,0%);fill-opacity:1;" d="M 7.144531 40.078125 C 6.777344 39.796875 6.683594 39.441406 6.683594 39.007812 C 6.691406 26.378906 6.691406 13.75 6.6875 1.121094 C 6.6875 0.726562 6.738281 0.371094 7.097656 0.101562 C 15.730469 0.078125 24.351562 0.078125 33.011719 0.078125 C 33.378906 0.359375 33.472656 0.71875 33.46875 1.148438 C 33.460938 13.789062 33.464844 26.425781 33.46875 39.066406 C 33.46875 39.453125 33.378906 39.78125 33.0625 40.054688 C 32.757812 40.078125 32.46875 40.078125 32.128906 40.058594 C 32.015625 39.992188 31.957031 39.933594 31.894531 39.890625 C 28.109375 37.371094 24.316406 34.855469 20.542969 32.320312 C 20.191406 32.085938 19.957031 32.09375 19.617188 32.320312 C 16.214844 34.597656 12.800781 36.859375 9.398438 39.140625 C 8.960938 39.433594 8.46875 39.65625 8.125 40.078125 C 7.8125 40.078125 7.496094 40.078125 7.144531 40.078125 M 31.195312 1.828125 C 23.789062 1.824219 16.378906 1.824219 8.972656 1.824219 C 8.464844 1.824219 8.464844 1.824219 8.464844 2.347656 C 8.464844 13.90625 8.464844 25.464844 8.46875 37.027344 C 8.46875 37.160156 8.414062 37.3125 8.527344 37.425781 C 8.625 37.449219 8.679688 37.390625 8.746094 37.347656 C 9.835938 36.621094 10.921875 35.890625 12.015625 35.164062 C 14.433594 33.554688 16.851562 31.949219 19.265625 30.332031 C 19.816406 29.960938 20.324219 29.949219 20.882812 30.324219 C 24.253906 32.585938 27.632812 34.835938 31.011719 37.085938 C 31.207031 37.21875 31.386719 37.394531 31.636719 37.433594 C 31.726562 37.277344 31.6875 37.132812 31.691406 36.992188 C 31.691406 34.6875 31.691406 32.382812 31.691406 30.078125 C 31.691406 20.835938 31.691406 11.59375 31.695312 2.355469 C 31.695312 2.046875 31.722656 1.75 31.195312 1.828125 Z M 31.195312 1.828125 "/>
<path style=" stroke:none;fill-rule:nonzero;fill:rgb(0%,0%,0%);fill-opacity:1;" d="M 25.917969 20.121094 C 26.15625 21.425781 26.363281 22.699219 26.613281 23.96875 C 26.691406 24.378906 26.589844 24.699219 26.292969 24.9375 C 25.972656 25.203125 25.585938 25.167969 25.230469 24.992188 C 23.660156 24.210938 22.085938 23.433594 20.527344 22.632812 C 20.199219 22.46875 19.949219 22.46875 19.625 22.632812 C 18.074219 23.425781 16.511719 24.195312 14.957031 24.972656 C 14.597656 25.152344 14.21875 25.210938 13.890625 24.957031 C 13.5625 24.707031 13.460938 24.363281 13.546875 23.921875 C 13.867188 22.234375 14.140625 20.535156 14.453125 18.84375 C 14.492188 18.644531 14.460938 18.519531 14.328125 18.398438 C 13.273438 17.417969 12.21875 16.4375 11.167969 15.453125 C 10.84375 15.152344 10.515625 14.851562 10.230469 14.511719 C 9.753906 13.949219 10.101562 13.148438 10.878906 13.03125 C 12.257812 12.828125 13.644531 12.660156 15.027344 12.46875 C 15.472656 12.40625 15.917969 12.304688 16.363281 12.261719 C 16.617188 12.238281 16.722656 12.097656 16.824219 11.902344 C 17.503906 10.558594 18.1875 9.21875 18.875 7.875 C 19.003906 7.621094 19.140625 7.371094 19.296875 7.132812 C 19.703125 6.511719 20.570312 6.566406 20.917969 7.234375 C 21.710938 8.753906 22.507812 10.273438 23.277344 11.804688 C 23.429688 12.105469 23.617188 12.261719 23.9375 12.304688 C 25.316406 12.488281 26.699219 12.675781 28.082031 12.867188 C 28.539062 12.929688 29.003906 12.984375 29.457031 13.085938 C 30.113281 13.238281 30.371094 14.039062 29.914062 14.53125 C 29.25 15.242188 28.507812 15.875 27.789062 16.535156 C 27.113281 17.160156 26.453125 17.804688 25.789062 18.441406 C 25.675781 18.550781 25.65625 18.664062 25.691406 18.828125 C 25.78125 19.246094 25.835938 19.667969 25.917969 20.121094 M 16.140625 19.679688 C 15.980469 20.617188 15.820312 21.554688 15.660156 22.492188 C 15.835938 22.53125 15.933594 22.464844 16.035156 22.410156 C 17.1875 21.835938 18.339844 21.265625 19.488281 20.679688 C 19.890625 20.472656 20.265625 20.476562 20.671875 20.683594 C 21.78125 21.25 22.902344 21.800781 24.019531 22.359375 C 24.15625 22.425781 24.285156 22.523438 24.472656 22.507812 C 24.480469 22.445312 24.503906 22.382812 24.496094 22.324219 C 24.273438 21.117188 24.03125 19.914062 23.828125 18.707031 C 23.757812 18.292969 23.699219 17.839844 24.0625 17.5 C 24.847656 16.761719 25.628906 16.019531 26.425781 15.292969 C 26.660156 15.082031 26.921875 14.898438 27.128906 14.59375 C 25.765625 14.34375 24.433594 14.191406 23.101562 14.015625 C 22.636719 13.957031 22.257812 13.796875 22.035156 13.355469 C 21.597656 12.5 21.15625 11.644531 20.707031 10.796875 C 20.511719 10.421875 20.382812 10.007812 20.082031 9.691406 C 19.914062 9.820312 19.847656 9.992188 19.765625 10.152344 C 19.230469 11.191406 18.6875 12.226562 18.167969 13.273438 C 17.964844 13.683594 17.664062 13.917969 17.222656 13.992188 C 16.980469 14.03125 16.734375 14.054688 16.492188 14.089844 C 15.34375 14.25 14.199219 14.40625 13.007812 14.574219 C 13.066406 14.664062 13.085938 14.710938 13.121094 14.746094 C 14.066406 15.617188 15.007812 16.492188 15.953125 17.359375 C 16.203125 17.585938 16.363281 17.835938 16.363281 18.199219 C 16.359375 18.683594 16.238281 19.144531 16.140625 19.679688 Z M 16.140625 19.679688 "/>
</g>
</svg>
