<?xml version="1.0" encoding="UTF-8"?>
<svg xmlns="http://www.w3.org/2000/svg" xmlns:xlink="http://www.w3.org/1999/xlink" width="95px" height="95px" viewBox="0 0 95 95" version="1.1">
<g id="surface1">
<path style=" stroke:none;fill-rule:nonzero;fill:rgb(100%,100%,100%);fill-opacity:1;" d="M 61.117188 95.078125 C 40.746094 95.078125 20.410156 95.078125 0.078125 95.078125 C 0.078125 63.414062 0.078125 31.746094 0.078125 0.078125 C 31.746094 0.078125 63.414062 0.078125 95.078125 0.078125 C 95.078125 31.746094 95.078125 63.414062 95.078125 95.078125 C 83.773438 95.078125 72.464844 95.078125 61.117188 95.078125 M 37.921875 51.410156 C 37.894531 51.390625 37.871094 51.375 37.820312 51.3125 C 36.613281 50.625 35.40625 49.933594 34.15625 49.210938 C 33.914062 49.078125 33.671875 48.945312 33.425781 48.820312 C 33.425781 48.820312 33.4375 48.816406 33.40625 48.773438 C 33.09375 48.609375 32.777344 48.441406 32.464844 48.285156 C 32.464844 48.285156 32.472656 48.28125 32.449219 48.234375 C 31.925781 47.933594 31.402344 47.632812 30.878906 47.339844 C 30.878906 47.339844 30.882812 47.335938 30.847656 47.296875 C 30.15625 46.902344 29.464844 46.507812 28.757812 46.125 C 28.757812 46.125 28.765625 46.113281 28.730469 46.074219 C 28.613281 46.011719 28.496094 45.949219 28.375 45.886719 C 28.375 45.886719 28.371094 45.894531 28.347656 45.855469 C 28.320312 45.84375 28.292969 45.835938 28.265625 45.832031 C 28.265625 45.832031 28.273438 45.832031 28.242188 45.792969 C 28.199219 45.773438 28.15625 45.757812 28.109375 45.75 C 28.109375 45.75 28.121094 45.746094 28.089844 45.703125 C 27.578125 45.40625 27.066406 45.109375 26.554688 44.816406 C 24.738281 43.773438 22.917969 42.726562 21.089844 41.6875 C 21.089844 41.6875 21.085938 41.683594 21.054688 41.644531 C 20.921875 41.566406 20.792969 41.492188 20.652344 41.410156 C 20.382812 41.871094 20.132812 42.300781 19.882812 42.734375 C 19.839844 42.8125 19.804688 42.898438 19.722656 43.011719 C 19.507812 43.382812 19.292969 43.753906 19.0625 44.152344 C 19.613281 44.457031 20.136719 44.75 20.699219 45.078125 C 20.757812 45.105469 20.816406 45.132812 20.878906 45.160156 C 20.878906 45.160156 20.875 45.152344 20.90625 45.199219 C 21.933594 45.785156 22.960938 46.371094 24 46.964844 C 24 46.964844 24.011719 46.960938 24.035156 47.003906 C 24.066406 47.015625 24.097656 47.023438 24.15625 47.082031 C 25.050781 47.589844 25.945312 48.101562 26.878906 48.640625 C 27.804688 49.171875 28.730469 49.699219 29.6875 50.21875 C 29.6875 50.21875 29.65625 50.230469 29.691406 50.269531 C 30.179688 50.546875 30.671875 50.824219 31.179688 51.074219 C 31.179688 51.074219 31.164062 51.101562 31.199219 51.140625 C 31.582031 51.355469 31.96875 51.570312 32.386719 51.832031 C 32.980469 52.167969 33.578125 52.503906 34.183594 52.839844 C 34.183594 52.839844 34.175781 52.835938 34.207031 52.878906 C 35.101562 53.386719 35.992188 53.894531 36.886719 54.394531 C 36.886719 54.394531 36.878906 54.398438 36.910156 54.441406 C 37 54.488281 37.09375 54.535156 37.191406 54.570312 C 37.191406 54.570312 37.179688 54.574219 37.210938 54.613281 C 37.28125 54.648438 37.355469 54.683594 37.457031 54.761719 C 37.953125 55.035156 38.445312 55.308594 38.972656 55.628906 C 39.160156 55.730469 39.347656 55.835938 39.574219 55.972656 C 39.695312 56.039062 39.820312 56.105469 39.980469 56.210938 C 41.796875 57.246094 43.617188 58.277344 45.429688 59.316406 C 46.0625 59.683594 46.679688 60.082031 47.316406 60.449219 C 47.429688 60.515625 47.632812 60.558594 47.734375 60.503906 C 49.011719 59.777344 50.277344 59.03125 51.589844 58.277344 C 51.605469 58.257812 51.625 58.238281 51.652344 58.226562 C 51.652344 58.226562 51.667969 58.226562 51.714844 58.207031 C 51.875 58.109375 52.039062 58.011719 52.199219 57.90625 C 52.199219 57.90625 52.207031 57.910156 52.253906 57.894531 C 52.390625 57.808594 52.523438 57.726562 52.652344 57.636719 C 52.652344 57.636719 52.652344 57.644531 52.707031 57.632812 C 54.09375 56.824219 55.484375 56.019531 56.855469 55.203125 C 56.855469 55.203125 56.867188 55.214844 56.921875 55.199219 C 57.375 54.933594 57.828125 54.664062 58.273438 54.390625 C 58.273438 54.390625 58.273438 54.402344 58.328125 54.386719 C 59.214844 53.871094 60.097656 53.355469 60.984375 52.839844 C 60.984375 52.839844 60.988281 52.839844 61.039062 52.824219 C 62.023438 52.253906 63.007812 51.679688 63.996094 51.101562 C 63.996094 51.101562 64.003906 51.101562 64.054688 51.082031 C 64.820312 50.636719 65.585938 50.1875 66.40625 49.726562 C 66.789062 49.496094 67.175781 49.265625 67.53125 49.027344 C 67.53125 49.027344 67.558594 49.042969 67.609375 49.023438 C 67.941406 48.828125 68.273438 48.632812 68.664062 48.429688 C 71.132812 47.003906 73.601562 45.578125 76.089844 44.144531 C 75.554688 43.222656 75.03125 42.316406 74.5 41.394531 C 74.046875 41.667969 73.632812 41.917969 73.164062 42.183594 C 72.226562 42.734375 71.292969 43.28125 70.367188 43.828125 C 70.367188 43.828125 70.355469 43.824219 70.300781 43.839844 C 69.21875 44.46875 68.136719 45.097656 67.015625 45.738281 C 66.972656 45.769531 66.929688 45.800781 66.890625 45.832031 C 66.890625 45.832031 66.890625 45.824219 66.847656 45.832031 C 66.828125 45.851562 66.808594 45.871094 66.800781 45.890625 C 66.800781 45.890625 66.789062 45.878906 66.742188 45.898438 C 66.625 45.96875 66.507812 46.039062 66.390625 46.117188 C 66.390625 46.117188 66.382812 46.113281 66.335938 46.132812 C 66.234375 46.191406 66.128906 46.253906 65.988281 46.320312 C 65.960938 46.328125 65.945312 46.347656 65.898438 46.386719 C 65.878906 46.40625 65.859375 46.425781 65.847656 46.4375 C 65.847656 46.4375 65.835938 46.433594 65.785156 46.449219 C 64.429688 47.238281 63.074219 48.023438 61.746094 48.824219 C 61.746094 48.824219 61.722656 48.808594 61.667969 48.824219 C 61.398438 48.988281 61.128906 49.148438 60.824219 49.316406 C 60.796875 49.320312 60.78125 49.335938 60.789062 49.398438 C 60.78125 49.386719 60.773438 49.371094 60.71875 49.375 C 60.582031 49.460938 60.449219 49.542969 60.320312 49.632812 C 60.320312 49.632812 60.320312 49.625 60.265625 49.636719 C 59.492188 50.085938 58.722656 50.535156 57.894531 50.992188 C 57.566406 51.1875 57.238281 51.386719 56.855469 51.601562 C 56.101562 52.039062 55.351562 52.480469 54.59375 52.925781 C 54.59375 52.925781 54.589844 52.921875 54.539062 52.941406 C 54.054688 53.222656 53.574219 53.507812 53.089844 53.796875 C 53.089844 53.796875 53.082031 53.792969 53.03125 53.8125 C 52.765625 53.972656 52.5 54.132812 52.242188 54.296875 C 52.242188 54.296875 52.238281 54.289062 52.183594 54.300781 C 51.984375 54.421875 51.785156 54.542969 51.585938 54.667969 C 51.585938 54.667969 51.578125 54.664062 51.527344 54.683594 C 50.839844 55.082031 50.152344 55.480469 49.472656 55.882812 C 49.472656 55.882812 49.46875 55.875 49.414062 55.886719 C 48.929688 56.175781 48.445312 56.464844 47.972656 56.757812 C 47.972656 56.757812 47.96875 56.75 47.914062 56.765625 C 47.691406 56.957031 47.488281 56.914062 47.242188 56.765625 C 46.636719 56.398438 46.011719 56.0625 45.359375 55.671875 C 45.203125 55.585938 45.046875 55.5 44.847656 55.382812 C 44.203125 55.015625 43.558594 54.648438 42.886719 54.242188 C 42.179688 53.839844 41.476562 53.441406 40.734375 53.007812 C 40.679688 52.980469 40.621094 52.953125 40.566406 52.9375 C 40.566406 52.9375 40.5625 52.925781 40.527344 52.886719 C 40.003906 52.589844 39.480469 52.292969 38.957031 52.007812 C 38.957031 52.007812 38.960938 52.003906 38.929688 51.960938 C 38.648438 51.8125 38.367188 51.667969 38.085938 51.53125 C 38.085938 51.53125 38.09375 51.527344 38.070312 51.480469 C 38.023438 51.46875 37.972656 51.453125 37.925781 51.453125 C 37.925781 51.453125 37.9375 51.453125 37.921875 51.410156 M 47.726562 52.839844 C 47.707031 52.855469 47.691406 52.871094 47.621094 52.898438 C 47.5625 52.878906 47.503906 52.859375 47.445312 52.839844 C 47.449219 52.882812 47.457031 52.929688 47.460938 52.972656 C 47.546875 52.941406 47.632812 52.914062 47.726562 52.839844 M 48.210938 53.992188 C 48.210938 53.992188 48.207031 53.984375 48.160156 54.011719 C 48.011719 54.207031 47.863281 54.40625 47.6875 54.628906 C 47.714844 54.640625 47.742188 54.648438 47.820312 54.640625 C 48.058594 54.503906 48.292969 54.367188 48.582031 54.210938 C 52.046875 52.210938 55.515625 50.207031 58.980469 48.210938 C 63.15625 45.800781 67.332031 43.398438 71.507812 40.988281 C 71.808594 40.8125 72.105469 40.625 72.402344 40.441406 C 72.386719 40.402344 72.371094 40.367188 72.355469 40.328125 C 70.992188 40.59375 69.617188 40.816406 68.265625 41.136719 C 64.285156 42.074219 60.570312 43.664062 57.128906 45.871094 C 53.957031 47.902344 51.148438 50.351562 48.722656 53.308594 C 48.550781 53.535156 48.378906 53.757812 48.210938 53.992188 M 28.007812 65.617188 C 28.039062 65.648438 28.070312 65.679688 28.121094 65.757812 C 28.65625 66.277344 29.191406 66.792969 29.757812 67.351562 C 38.035156 74.878906 50.453125 76.46875 60.527344 70.84375 C 65.429688 68.109375 69.113281 64.1875 71.570312 59.132812 C 73.332031 55.503906 74.191406 51.664062 74.1875 47.578125 C 73.171875 48.167969 72.203125 48.722656 71.242188 49.292969 C 71.15625 49.34375 71.101562 49.492188 71.082031 49.605469 C 70.910156 50.652344 70.808594 51.71875 70.570312 52.753906 C 69.296875 58.285156 66.414062 62.808594 61.917969 66.273438 C 58.054688 69.25 53.664062 70.871094 48.726562 71.089844 C 48.660156 71.101562 48.59375 71.113281 48.457031 71.140625 C 48.21875 71.144531 47.980469 71.152344 47.703125 71.125 C 47.605469 71.132812 47.511719 71.144531 47.347656 71.160156 C 47.136719 71.152344 46.921875 71.144531 46.664062 71.101562 C 46.570312 71.101562 46.476562 71.101562 46.308594 71.101562 C 44.433594 71.03125 42.605469 70.691406 40.808594 70.160156 C 37.6875 69.234375 34.902344 67.683594 32.375 65.574219 C 32.324219 65.539062 32.273438 65.503906 32.195312 65.4375 C 32.183594 65.429688 32.171875 65.421875 32.132812 65.375 C 32.039062 65.285156 31.945312 65.195312 31.847656 65.109375 C 31.367188 64.671875 30.886719 64.234375 30.394531 63.746094 C 30.136719 63.445312 29.878906 63.148438 29.625 62.84375 C 26.484375 59.109375 24.621094 54.828125 24.144531 49.960938 C 24.105469 49.554688 24.003906 49.246094 23.585938 49.082031 C 23.332031 48.984375 23.105469 48.8125 22.867188 48.671875 C 22.246094 48.316406 21.625 47.960938 20.933594 47.5625 C 20.976562 48.375 21.003906 49.105469 21.058594 49.839844 C 21.167969 51.398438 21.445312 52.929688 21.847656 54.4375 C 22.515625 56.957031 23.53125 59.324219 24.902344 61.539062 C 25.800781 62.984375 26.796875 64.359375 27.992188 65.578125 C 27.992188 65.578125 28 65.574219 28.007812 65.617188 M 65.953125 28.335938 C 65.953125 28.335938 65.957031 28.332031 65.933594 28.285156 C 63.550781 26.039062 60.863281 24.265625 57.839844 23.003906 C 54.765625 21.722656 51.5625 21.027344 48.230469 20.980469 C 47.40625 20.96875 46.578125 21.039062 45.75 21.054688 C 43.792969 21.09375 41.882812 21.46875 40.023438 22.042969 C 32.511719 24.375 27.019531 29.09375 23.527344 36.140625 C 23.273438 36.648438 23.066406 37.179688 22.816406 37.75 C 24.074219 37.417969 25.253906 37.113281 26.425781 36.785156 C 26.554688 36.75 26.695312 36.628906 26.761719 36.507812 C 29.183594 32.050781 32.648438 28.679688 37.191406 26.425781 C 40.0625 25 43.101562 24.203125 46.355469 24.074219 C 46.421875 24.0625 46.484375 24.054688 46.621094 24.027344 C 47.304688 24.035156 47.988281 24.042969 48.730469 24.070312 C 48.769531 24.066406 48.8125 24.066406 48.921875 24.0625 C 50.324219 24.265625 51.75 24.367188 53.125 24.6875 C 57.171875 25.621094 60.6875 27.582031 63.753906 30.449219 C 63.957031 30.640625 64.160156 30.832031 64.414062 31.050781 C 64.421875 31.074219 64.425781 31.105469 64.445312 31.121094 C 66.035156 32.738281 67.351562 34.554688 68.417969 36.554688 C 68.464844 36.644531 68.570312 36.738281 68.667969 36.765625 C 69.863281 37.097656 71.058594 37.414062 72.3125 37.746094 C 72.25 37.574219 72.21875 37.453125 72.164062 37.335938 C 71.757812 36.484375 71.378906 35.617188 70.929688 34.789062 C 69.722656 32.578125 68.246094 30.5625 66.414062 28.761719 C 66.285156 28.644531 66.160156 28.527344 66.015625 28.375 C 65.996094 28.359375 65.972656 28.34375 65.953125 28.335938 M 47.417969 54.6875 C 47.4375 54.683594 47.453125 54.683594 47.472656 54.679688 C 47.460938 54.65625 47.449219 54.632812 47.421875 54.554688 C 44.433594 50.628906 40.789062 47.453125 36.535156 44.953125 C 32.957031 42.847656 24.835938 40.128906 22.722656 40.441406 C 23.390625 40.828125 24.027344 41.195312 24.664062 41.5625 C 27.730469 43.335938 30.796875 45.109375 33.863281 46.882812 C 36.929688 48.65625 40 50.425781 43.070312 52.195312 C 44.507812 53.019531 45.949219 53.835938 47.417969 54.6875 M 51.816406 45.84375 C 50.03125 47.878906 48.636719 50.144531 47.746094 52.71875 C 53.980469 44.253906 62.320312 39.71875 72.832031 39.191406 C 72.800781 39.171875 72.773438 39.136719 72.742188 39.128906 C 71.570312 38.964844 70.40625 38.734375 69.226562 38.652344 C 67.53125 38.539062 65.835938 38.636719 64.152344 38.949219 C 61.910156 39.363281 59.78125 40.097656 57.765625 41.167969 C 55.523438 42.359375 53.570312 43.929688 51.816406 45.84375 M 38.941406 42.082031 C 33.800781 38.835938 28.257812 37.90625 22.34375 39.167969 C 32.835938 39.722656 41.175781 44.25 47.410156 52.707031 C 45.765625 48.246094 42.949219 44.726562 38.941406 42.082031 Z M 38.941406 42.082031 "/>
<path style=" stroke:none;fill-rule:nonzero;fill:rgb(1.176471%,68.235296%,92.54902%);fill-opacity:1;" d="M 48.777344 71.105469 C 53.664062 70.871094 58.054688 69.25 61.917969 66.273438 C 66.414062 62.808594 69.296875 58.285156 70.570312 52.753906 C 70.808594 51.71875 70.910156 50.652344 71.082031 49.605469 C 71.101562 49.492188 71.15625 49.34375 71.242188 49.292969 C 72.203125 48.722656 73.171875 48.167969 74.1875 47.578125 C 74.191406 51.664062 73.332031 55.503906 71.570312 59.132812 C 69.113281 64.1875 65.429688 68.109375 60.527344 70.84375 C 50.453125 76.46875 38.035156 74.878906 29.769531 67.3125 C 29.75 67.042969 29.71875 66.8125 29.714844 66.582031 C 29.859375 66.566406 30.019531 66.589844 30.082031 66.523438 C 30.296875 66.296875 30.515625 66.058594 30.667969 65.789062 C 31.027344 65.144531 30.570312 64.207031 29.84375 64.058594 C 29.1875 63.921875 28.207031 64.53125 28.003906 65.203125 C 28.3125 65.304688 28.558594 65.230469 28.75 64.953125 C 28.8125 64.855469 28.910156 64.78125 29 64.699219 C 29.265625 64.464844 29.578125 64.457031 29.882812 64.589844 C 30.1875 64.71875 30.3125 64.972656 30.328125 65.3125 C 30.347656 65.703125 30.039062 65.851562 29.832031 66.070312 C 29.679688 66.226562 29.585938 66.367188 29.660156 66.574219 C 29.308594 66.246094 28.996094 65.902344 28.648438 65.59375 C 28.460938 65.425781 28.214844 65.199219 27.988281 65.578125 C 26.796875 64.359375 25.800781 62.984375 24.902344 61.539062 C 23.53125 59.324219 22.515625 56.957031 21.847656 54.4375 C 21.445312 52.929688 21.167969 51.398438 21.058594 49.839844 C 21.003906 49.105469 20.976562 48.375 20.933594 47.5625 C 21.625 47.960938 22.246094 48.316406 22.867188 48.671875 C 23.105469 48.8125 23.332031 48.984375 23.585938 49.082031 C 24.003906 49.246094 24.105469 49.554688 24.144531 49.960938 C 24.621094 54.828125 26.484375 59.109375 29.625 62.84375 C 29.878906 63.148438 30.136719 63.445312 30.398438 63.800781 C 30.503906 64.019531 30.570312 64.21875 30.699219 64.34375 C 31.140625 64.769531 31.601562 65.167969 32.070312 65.589844 C 32.113281 65.507812 32.136719 65.460938 32.160156 65.414062 C 32.171875 65.421875 32.183594 65.429688 32.210938 65.480469 C 32.28125 65.554688 32.335938 65.589844 32.390625 65.621094 C 34.902344 67.683594 37.6875 69.234375 40.808594 70.160156 C 42.605469 70.691406 44.433594 71.03125 46.367188 71.117188 C 46.523438 71.132812 46.617188 71.132812 46.710938 71.136719 C 46.921875 71.144531 47.136719 71.152344 47.414062 71.167969 C 47.566406 71.167969 47.652344 71.160156 47.742188 71.15625 C 47.980469 71.152344 48.21875 71.144531 48.515625 71.144531 C 48.644531 71.132812 48.710938 71.117188 48.777344 71.105469 Z M 48.777344 71.105469 "/>
<path style=" stroke:none;fill-rule:nonzero;fill:rgb(26.666668%,35.294119%,43.529412%);fill-opacity:1;" d="M 24.011719 46.960938 C 24.011719 46.960938 24 46.964844 23.992188 46.933594 C 23.570312 46.628906 23.152344 46.363281 22.742188 46.082031 C 22.640625 46.015625 22.582031 45.871094 22.476562 45.816406 C 22.210938 45.675781 21.832031 45.636719 21.671875 45.421875 C 21.433594 45.105469 21.191406 45.089844 20.875 45.152344 C 20.875 45.152344 20.878906 45.160156 20.878906 45.132812 C 20.804688 45.085938 20.734375 45.066406 20.664062 45.046875 C 20.136719 44.75 19.613281 44.457031 19.0625 44.152344 C 19.292969 43.753906 19.507812 43.382812 19.769531 42.996094 C 19.964844 42.914062 20.109375 42.851562 20.246094 42.789062 C 20.171875 42.28125 20.542969 41.808594 21.085938 41.683594 C 21.085938 41.683594 21.089844 41.6875 21.085938 41.714844 C 21.648438 42.101562 22.128906 42.605469 22.785156 42.828125 C 22.878906 42.859375 22.972656 42.914062 23.054688 42.972656 C 23.332031 43.167969 23.582031 43.484375 23.882812 43.542969 C 24.644531 43.6875 25.117188 44.28125 25.761719 44.601562 C 25.960938 44.699219 26.132812 44.855469 26.332031 44.953125 C 26.640625 45.109375 26.960938 45.246094 27.28125 45.382812 C 27.558594 45.507812 27.839844 45.625 28.121094 45.746094 C 28.121094 45.746094 28.109375 45.75 28.121094 45.769531 C 28.175781 45.800781 28.226562 45.816406 28.273438 45.832031 C 28.273438 45.832031 28.265625 45.832031 28.277344 45.851562 C 28.3125 45.878906 28.339844 45.886719 28.371094 45.894531 C 28.371094 45.894531 28.375 45.886719 28.359375 45.910156 C 28.371094 46.003906 28.390625 46.125 28.425781 46.128906 C 28.535156 46.148438 28.652344 46.121094 28.765625 46.113281 C 28.765625 46.113281 28.757812 46.125 28.761719 46.152344 C 28.855469 46.300781 28.917969 46.476562 29.042969 46.542969 C 29.4375 46.753906 29.894531 46.875 30.246094 47.140625 C 30.410156 47.261719 30.460938 47.488281 30.726562 47.355469 C 30.773438 47.332031 30.832031 47.339844 30.882812 47.335938 C 30.882812 47.335938 30.878906 47.339844 30.878906 47.363281 C 31.410156 47.6875 31.941406 47.984375 32.472656 48.28125 C 32.472656 48.28125 32.464844 48.285156 32.46875 48.304688 C 32.730469 48.625 33.050781 48.785156 33.4375 48.816406 C 33.4375 48.816406 33.425781 48.820312 33.429688 48.84375 C 33.511719 48.980469 33.582031 49.101562 33.675781 49.195312 C 33.828125 49.351562 33.996094 49.53125 34.199219 49.246094 C 35.40625 49.933594 36.613281 50.625 37.839844 51.359375 C 37.886719 51.417969 37.910156 51.4375 37.9375 51.453125 C 37.9375 51.453125 37.925781 51.453125 37.933594 51.472656 C 37.996094 51.503906 38.042969 51.515625 38.09375 51.527344 C 38.09375 51.527344 38.085938 51.53125 38.089844 51.550781 C 38.386719 51.71875 38.675781 51.859375 38.960938 52.003906 C 38.960938 52.003906 38.957031 52.007812 38.957031 52.03125 C 39.007812 52.109375 39.050781 52.175781 39.113281 52.210938 C 39.40625 52.386719 39.800781 52.492188 39.980469 52.742188 C 40.171875 53.019531 40.316406 53.023438 40.5625 52.925781 C 40.5625 52.925781 40.566406 52.9375 40.5625 52.957031 C 40.601562 53.078125 40.621094 53.265625 40.769531 53.042969 C 41.476562 53.441406 42.179688 53.839844 42.898438 54.289062 C 43.453125 54.847656 44.140625 55.109375 44.761719 55.484375 C 44.785156 55.496094 44.84375 55.441406 44.886719 55.414062 C 45.046875 55.5 45.203125 55.585938 45.355469 55.707031 C 46.070312 56.171875 46.773438 56.617188 47.503906 57.015625 C 47.585938 57.0625 47.8125 56.847656 47.96875 56.75 C 47.96875 56.75 47.972656 56.757812 48 56.757812 C 48.320312 56.628906 48.628906 56.523438 48.902344 56.359375 C 49.113281 56.238281 49.28125 56.039062 49.46875 55.875 C 49.46875 55.875 49.472656 55.882812 49.5 55.886719 C 49.742188 55.84375 49.960938 55.796875 50.199219 55.742188 C 50.222656 55.695312 50.242188 55.570312 50.3125 55.53125 C 50.636719 55.355469 50.984375 55.222656 51.304688 55.035156 C 51.425781 54.964844 51.488281 54.792969 51.578125 54.664062 C 51.578125 54.664062 51.585938 54.667969 51.617188 54.675781 C 51.84375 54.554688 52.039062 54.421875 52.238281 54.289062 C 52.238281 54.289062 52.242188 54.296875 52.265625 54.300781 C 52.617188 54.234375 52.992188 54.230469 53.082031 53.792969 C 53.082031 53.792969 53.089844 53.796875 53.121094 53.808594 C 53.386719 53.816406 53.621094 53.816406 53.894531 53.816406 C 53.890625 53.742188 53.878906 53.621094 53.875 53.5625 C 54.128906 53.332031 54.359375 53.128906 54.589844 52.921875 C 54.589844 52.921875 54.59375 52.925781 54.625 52.9375 C 54.785156 52.996094 54.914062 53.042969 55.015625 53.082031 C 55.117188 52.921875 55.179688 52.679688 55.300781 52.648438 C 55.863281 52.503906 56.253906 52.066406 56.746094 51.816406 C 56.824219 51.777344 56.859375 51.664062 56.910156 51.582031 C 57.238281 51.386719 57.566406 51.1875 57.929688 51.007812 C 58.085938 50.992188 58.21875 50.984375 58.320312 50.925781 C 58.855469 50.625 59.386719 50.320312 59.910156 50 C 60.0625 49.902344 60.183594 49.75 60.320312 49.625 C 60.320312 49.625 60.320312 49.632812 60.347656 49.632812 C 60.503906 49.542969 60.636719 49.453125 60.769531 49.359375 C 60.773438 49.371094 60.78125 49.386719 60.808594 49.390625 C 60.871094 49.390625 60.914062 49.394531 60.988281 49.398438 C 61.433594 49.414062 61.535156 49.058594 61.722656 48.808594 C 61.722656 48.808594 61.746094 48.824219 61.765625 48.828125 C 61.832031 48.832031 61.894531 48.84375 61.933594 48.820312 C 63.175781 48.101562 64.417969 47.382812 65.65625 46.65625 C 65.734375 46.609375 65.777344 46.507812 65.835938 46.433594 C 65.835938 46.433594 65.847656 46.4375 65.867188 46.441406 C 65.902344 46.421875 65.921875 46.398438 65.941406 46.375 C 65.945312 46.347656 65.960938 46.328125 66.023438 46.335938 C 66.164062 46.277344 66.273438 46.195312 66.382812 46.113281 C 66.382812 46.113281 66.390625 46.117188 66.417969 46.128906 C 66.5625 46.050781 66.675781 45.964844 66.789062 45.878906 C 66.789062 45.878906 66.800781 45.890625 66.816406 45.890625 C 66.855469 45.871094 66.871094 45.847656 66.890625 45.824219 C 66.890625 45.824219 66.890625 45.832031 66.914062 45.832031 C 66.976562 45.800781 67.019531 45.773438 67.085938 45.746094 C 67.71875 45.46875 68.332031 45.203125 68.921875 44.894531 C 69.273438 44.710938 69.566406 44.394531 69.929688 44.257812 C 70.179688 44.164062 70.289062 44.042969 70.355469 43.824219 C 70.355469 43.824219 70.367188 43.828125 70.390625 43.839844 C 70.441406 43.851562 70.472656 43.863281 70.492188 43.851562 C 71.390625 43.363281 72.285156 42.878906 73.171875 42.382812 C 73.214844 42.359375 73.207031 42.242188 73.21875 42.167969 C 73.632812 41.917969 74.046875 41.667969 74.5 41.394531 C 75.03125 42.316406 75.554688 43.222656 76.089844 44.144531 C 73.601562 45.578125 71.132812 47.003906 68.613281 48.425781 C 68.226562 48.628906 67.890625 48.835938 67.558594 49.042969 C 67.558594 49.042969 67.53125 49.027344 67.515625 49.023438 C 67.113281 49.222656 66.726562 49.429688 66.308594 49.632812 C 66.050781 49.714844 65.734375 49.730469 65.625 49.886719 C 65.4375 50.167969 65.21875 50.261719 64.914062 50.261719 C 64.902344 50.246094 64.894531 50.242188 64.890625 50.238281 C 64.898438 50.25 64.90625 50.261719 64.917969 50.300781 C 64.839844 50.402344 64.769531 50.476562 64.6875 50.542969 C 64.460938 50.734375 64.234375 50.917969 64.003906 51.101562 C 64.003906 51.101562 63.996094 51.101562 63.96875 51.089844 C 63.800781 51.003906 63.648438 50.625 63.515625 51.03125 C 63.425781 51.300781 63.273438 51.394531 63.046875 51.5 C 62.765625 51.628906 62.425781 51.664062 62.230469 51.964844 C 62.183594 52.035156 62.023438 52.027344 61.917969 52.066406 C 61.839844 52.09375 61.753906 52.121094 61.6875 52.175781 C 61.5625 52.273438 61.445312 52.390625 61.328125 52.5 C 61.210938 52.613281 61.101562 52.726562 60.988281 52.839844 C 60.988281 52.839844 60.984375 52.839844 60.953125 52.828125 C 60.742188 52.753906 60.613281 52.777344 60.449219 52.921875 C 60.179688 53.15625 59.847656 53.320312 59.539062 53.507812 C 59.460938 53.558594 59.363281 53.582031 59.28125 53.628906 C 59.058594 53.746094 58.847656 53.917969 58.609375 53.980469 C 58.363281 54.050781 58.226562 54.132812 58.273438 54.402344 C 58.273438 54.402344 58.273438 54.390625 58.246094 54.390625 C 57.722656 54.589844 57.09375 54.574219 56.867188 55.214844 C 56.867188 55.214844 56.855469 55.203125 56.832031 55.195312 C 56.296875 55.179688 56.007812 55.617188 55.59375 55.800781 C 55.167969 55.988281 54.800781 56.292969 54.382812 56.503906 C 54.109375 56.640625 53.730469 56.574219 53.582031 56.957031 C 53.558594 57.019531 53.429688 57.035156 53.351562 57.082031 C 53.097656 57.242188 52.710938 57.238281 52.652344 57.644531 C 52.652344 57.644531 52.652344 57.636719 52.625 57.636719 C 52.46875 57.726562 52.335938 57.820312 52.207031 57.910156 C 52.207031 57.910156 52.199219 57.90625 52.171875 57.894531 C 51.945312 57.851562 51.742188 57.820312 51.453125 57.777344 C 51.542969 57.964844 51.605469 58.09375 51.667969 58.226562 C 51.667969 58.226562 51.652344 58.226562 51.625 58.21875 C 51.578125 58.238281 51.5625 58.265625 51.542969 58.289062 C 50.277344 59.03125 49.011719 59.777344 47.734375 60.503906 C 47.632812 60.558594 47.429688 60.515625 47.316406 60.449219 C 46.679688 60.082031 46.0625 59.683594 45.429688 59.316406 C 43.617188 58.277344 41.796875 57.246094 39.972656 56.179688 C 39.960938 56.152344 39.980469 56.128906 40.011719 56.128906 C 40.554688 56.109375 40.867188 55.816406 41.03125 55.359375 C 41.132812 55.070312 41.160156 54.761719 40.914062 54.472656 C 40.800781 54.613281 40.71875 54.765625 40.691406 54.921875 C 40.613281 55.425781 40.226562 55.804688 39.792969 55.722656 C 39.265625 55.621094 39.007812 55.378906 39.128906 54.730469 C 39.167969 54.53125 39.398438 54.316406 39.597656 54.210938 C 39.75 54.125 39.988281 54.191406 40.164062 54.191406 C 39.921875 54.484375 39.726562 54.746094 39.5 54.980469 C 39.273438 55.214844 39.332031 55.355469 39.527344 55.453125 C 39.972656 55.015625 40.386719 54.605469 40.824219 54.175781 C 40.546875 53.832031 40.183594 53.617188 39.6875 53.707031 C 39.207031 53.792969 38.894531 54.078125 38.707031 54.523438 C 38.53125 54.933594 38.644531 55.277344 38.949219 55.578125 C 38.945312 55.578125 38.941406 55.585938 38.941406 55.585938 C 38.445312 55.308594 37.953125 55.035156 37.460938 54.722656 C 37.367188 54.648438 37.273438 54.613281 37.179688 54.574219 C 37.179688 54.574219 37.191406 54.570312 37.1875 54.542969 C 37.082031 54.476562 36.980469 54.4375 36.878906 54.398438 C 36.878906 54.398438 36.886719 54.394531 36.882812 54.371094 C 36.832031 54.199219 36.792969 54.09375 36.585938 54.039062 C 36.34375 53.976562 36.148438 53.753906 35.929688 53.605469 C 35.871094 53.5625 35.808594 53.527344 35.742188 53.496094 C 35.464844 53.363281 35.1875 53.226562 34.902344 53.105469 C 34.664062 53.003906 34.417969 52.925781 34.175781 52.835938 C 34.175781 52.835938 34.183594 52.839844 34.179688 52.8125 C 33.601562 52.421875 33.03125 52.058594 32.429688 51.691406 C 32.179688 51.5625 31.855469 51.488281 31.75 51.292969 C 31.582031 50.984375 31.414062 51 31.164062 51.101562 C 31.164062 51.101562 31.179688 51.074219 31.171875 51.058594 C 30.871094 50.765625 30.578125 50.492188 30.277344 50.207031 C 30.277344 50.210938 30.242188 50.285156 30.222656 50.320312 C 30.027344 50.289062 29.84375 50.257812 29.65625 50.230469 C 29.65625 50.230469 29.6875 50.21875 29.675781 50.195312 C 29.550781 50.070312 29.453125 49.949219 29.328125 49.875 C 29.039062 49.707031 28.730469 49.5625 28.4375 49.398438 C 28.203125 49.269531 27.984375 49.113281 27.753906 48.984375 C 27.480469 48.835938 27.09375 48.78125 27.289062 48.277344 C 27.25 48.269531 27.207031 48.257812 27.167969 48.25 C 27.058594 48.371094 26.949219 48.488281 26.835938 48.609375 C 25.945312 48.101562 25.050781 47.589844 24.15625 47.042969 C 24.109375 46.988281 24.058594 46.976562 24.011719 46.960938 M 54.3125 54.351562 C 54.335938 54.378906 54.359375 54.410156 54.382812 54.441406 C 54.398438 54.425781 54.410156 54.414062 54.425781 54.402344 C 54.386719 54.371094 54.347656 54.339844 54.289062 54.273438 C 54.261719 54.25 54.230469 54.226562 54.199219 54.203125 C 54.191406 54.222656 54.179688 54.242188 54.171875 54.257812 C 54.214844 54.277344 54.261719 54.292969 54.3125 54.351562 M 54.660156 54.644531 C 54.628906 54.636719 54.601562 54.632812 54.570312 54.625 C 54.582031 54.667969 54.597656 54.707031 54.609375 54.75 C 54.632812 54.726562 54.65625 54.703125 54.660156 54.644531 M 28.144531 46.1875 C 28.144531 46.1875 28.148438 46.195312 28.144531 46.1875 Z M 28.144531 46.1875 "/>
<path style=" stroke:none;fill-rule:nonzero;fill:rgb(1.176471%,68.235296%,92.54902%);fill-opacity:1;" d="M 63.726562 30.40625 C 60.6875 27.582031 57.171875 25.621094 53.125 24.6875 C 51.75 24.367188 50.324219 24.265625 48.871094 24.046875 C 48.773438 24.042969 48.722656 24.046875 48.671875 24.050781 C 47.988281 24.042969 47.304688 24.035156 46.5625 24.023438 C 46.4375 24.035156 46.371094 24.046875 46.308594 24.0625 C 43.101562 24.203125 40.0625 25 37.191406 26.425781 C 32.648438 28.679688 29.183594 32.050781 26.761719 36.507812 C 26.695312 36.628906 26.554688 36.75 26.425781 36.785156 C 25.253906 37.113281 24.074219 37.417969 22.816406 37.75 C 23.066406 37.179688 23.273438 36.648438 23.527344 36.140625 C 27.019531 29.09375 32.511719 24.375 40.023438 22.042969 C 41.882812 21.46875 43.792969 21.09375 45.75 21.054688 C 46.578125 21.039062 47.40625 20.96875 48.230469 20.980469 C 51.5625 21.027344 54.765625 21.722656 57.839844 23.003906 C 60.863281 24.265625 63.550781 26.039062 65.910156 28.3125 C 65.773438 28.316406 65.65625 28.292969 65.542969 28.273438 C 64.839844 28.148438 64.148438 28.742188 64.121094 29.449219 C 64.085938 30.320312 64.820312 30.855469 65.675781 30.707031 C 66.402344 30.578125 66.832031 29.632812 66.386719 28.890625 C 66.269531 29.15625 66.125 29.347656 66.117188 29.542969 C 66.109375 29.90625 65.921875 30.109375 65.621094 30.222656 C 65.277344 30.355469 64.847656 30.222656 64.703125 29.953125 C 64.535156 29.640625 64.535156 29.320312 64.753906 29.023438 C 64.980469 28.710938 65.269531 28.671875 65.707031 28.824219 C 65.441406 29.097656 65.230469 29.339844 65 29.558594 C 64.769531 29.777344 64.8125 29.929688 65.085938 30.078125 C 65.539062 29.652344 65.988281 29.230469 66.433594 28.808594 C 68.246094 30.5625 69.722656 32.578125 70.929688 34.789062 C 71.378906 35.617188 71.757812 36.484375 72.164062 37.335938 C 72.21875 37.453125 72.25 37.574219 72.3125 37.746094 C 71.058594 37.414062 69.863281 37.097656 68.667969 36.765625 C 68.570312 36.738281 68.464844 36.644531 68.417969 36.554688 C 67.351562 34.554688 66.035156 32.738281 64.445312 31.121094 C 64.425781 31.105469 64.421875 31.074219 64.386719 31.003906 C 64.355469 30.488281 64.128906 30.289062 63.726562 30.40625 Z M 63.726562 30.40625 "/>
<path style=" stroke:none;fill-rule:nonzero;fill:rgb(61.176473%,68.627453%,71.372551%);fill-opacity:1;" d="M 47.390625 54.660156 C 45.949219 53.835938 44.507812 53.019531 43.070312 52.195312 C 40 50.425781 36.929688 48.65625 33.863281 46.882812 C 30.796875 45.109375 27.730469 43.335938 24.664062 41.5625 C 24.027344 41.195312 23.390625 40.828125 22.722656 40.441406 C 24.835938 40.128906 32.957031 42.847656 36.535156 44.953125 C 40.789062 47.453125 44.433594 50.628906 47.417969 54.59375 C 47.414062 54.632812 47.390625 54.660156 47.390625 54.660156 Z M 47.390625 54.660156 "/>
<path style=" stroke:none;fill-rule:nonzero;fill:rgb(61.176473%,68.627453%,71.372551%);fill-opacity:1;" d="M 48.765625 53.277344 C 51.148438 50.351562 53.957031 47.902344 57.128906 45.871094 C 60.570312 43.664062 64.285156 42.074219 68.265625 41.136719 C 69.617188 40.816406 70.992188 40.59375 72.355469 40.328125 C 72.371094 40.367188 72.386719 40.402344 72.402344 40.441406 C 72.105469 40.625 71.808594 40.8125 71.507812 40.988281 C 67.332031 43.398438 63.15625 45.800781 58.980469 48.210938 C 55.515625 50.207031 52.046875 52.210938 48.535156 54.199219 C 48.398438 54.117188 48.300781 54.050781 48.207031 53.984375 C 48.207031 53.984375 48.210938 53.992188 48.238281 53.988281 C 48.542969 53.832031 48.953125 53.769531 48.765625 53.277344 Z M 48.765625 53.277344 "/>
<path style=" stroke:none;fill-rule:nonzero;fill:rgb(61.176473%,68.627453%,71.372551%);fill-opacity:1;" d="M 51.835938 45.820312 C 53.570312 43.929688 55.523438 42.359375 57.765625 41.167969 C 59.78125 40.097656 61.910156 39.363281 64.152344 38.949219 C 65.835938 38.636719 67.53125 38.539062 69.226562 38.652344 C 70.40625 38.734375 71.570312 38.964844 72.742188 39.128906 C 72.773438 39.136719 72.800781 39.171875 72.832031 39.191406 C 62.320312 39.71875 53.980469 44.253906 47.746094 52.71875 C 48.636719 50.144531 50.03125 47.878906 51.835938 45.820312 Z M 51.835938 45.820312 "/>
<path style=" stroke:none;fill-rule:nonzero;fill:rgb(61.176473%,68.627453%,71.372551%);fill-opacity:1;" d="M 38.964844 42.101562 C 42.949219 44.726562 45.765625 48.246094 47.410156 52.707031 C 41.175781 44.25 32.835938 39.722656 22.34375 39.167969 C 28.257812 37.90625 33.800781 38.835938 38.964844 42.101562 Z M 38.964844 42.101562 "/>
<path style=" stroke:none;fill-rule:nonzero;fill:rgb(15.294118%,73.333335%,94.117647%);fill-opacity:1;" d="M 66.421875 28.785156 C 65.988281 29.230469 65.539062 29.652344 65.085938 30.078125 C 64.8125 29.929688 64.769531 29.777344 65 29.558594 C 65.230469 29.339844 65.441406 29.097656 65.707031 28.824219 C 65.269531 28.671875 64.980469 28.710938 64.753906 29.023438 C 64.535156 29.320312 64.535156 29.640625 64.703125 29.953125 C 64.847656 30.222656 65.277344 30.355469 65.621094 30.222656 C 65.921875 30.109375 66.109375 29.90625 66.117188 29.542969 C 66.125 29.347656 66.269531 29.15625 66.386719 28.890625 C 66.832031 29.632812 66.402344 30.578125 65.675781 30.707031 C 64.820312 30.855469 64.085938 30.320312 64.121094 29.449219 C 64.148438 28.742188 64.839844 28.148438 65.542969 28.273438 C 65.65625 28.292969 65.773438 28.316406 65.921875 28.335938 C 65.957031 28.332031 65.953125 28.335938 65.953125 28.351562 C 65.976562 28.382812 66.003906 28.398438 66.03125 28.410156 C 66.160156 28.527344 66.285156 28.644531 66.421875 28.785156 Z M 66.421875 28.785156 "/>
<path style=" stroke:none;fill-rule:nonzero;fill:rgb(20.392157%,29.803923%,37.64706%);fill-opacity:1;" d="M 28.105469 45.722656 C 27.839844 45.625 27.558594 45.507812 27.28125 45.382812 C 26.960938 45.246094 26.640625 45.109375 26.332031 44.953125 C 26.132812 44.855469 25.960938 44.699219 25.761719 44.601562 C 25.117188 44.28125 24.644531 43.6875 23.882812 43.542969 C 23.582031 43.484375 23.332031 43.167969 23.054688 42.972656 C 22.972656 42.914062 22.878906 42.859375 22.785156 42.828125 C 22.128906 42.605469 21.648438 42.101562 21.085938 41.710938 C 22.917969 42.726562 24.738281 43.773438 26.554688 44.816406 C 27.066406 45.109375 27.578125 45.40625 28.105469 45.722656 Z M 28.105469 45.722656 "/>
<path style=" stroke:none;fill-rule:nonzero;fill:rgb(14.509805%,72.941178%,93.725491%);fill-opacity:1;" d="M 29.6875 66.578125 C 29.71875 66.8125 29.75 67.042969 29.757812 67.292969 C 29.191406 66.792969 28.65625 66.277344 28.132812 65.71875 C 28.09375 65.644531 28.046875 65.609375 28 65.574219 C 28 65.574219 27.992188 65.578125 27.992188 65.578125 C 28.214844 65.199219 28.460938 65.425781 28.648438 65.59375 C 28.996094 65.902344 29.308594 66.246094 29.660156 66.574219 C 29.6875 66.578125 29.6875 66.578125 29.6875 66.578125 Z M 29.6875 66.578125 "/>
<path style=" stroke:none;fill-rule:nonzero;fill:rgb(20.392157%,29.803923%,37.64706%);fill-opacity:1;" d="M 52.679688 57.640625 C 52.710938 57.238281 53.097656 57.242188 53.351562 57.082031 C 53.429688 57.035156 53.558594 57.019531 53.582031 56.957031 C 53.730469 56.574219 54.109375 56.640625 54.382812 56.503906 C 54.800781 56.292969 55.167969 55.988281 55.59375 55.800781 C 56.007812 55.617188 56.296875 55.179688 56.839844 55.199219 C 55.484375 56.019531 54.09375 56.824219 52.679688 57.640625 Z M 52.679688 57.640625 "/>
<path style=" stroke:none;fill-rule:nonzero;fill:rgb(20.392157%,29.803923%,37.64706%);fill-opacity:1;" d="M 65.808594 46.441406 C 65.777344 46.507812 65.734375 46.609375 65.65625 46.65625 C 64.417969 47.382812 63.175781 48.101562 61.933594 48.820312 C 61.894531 48.84375 61.832031 48.832031 61.75 48.824219 C 63.074219 48.023438 64.429688 47.238281 65.808594 46.441406 Z M 65.808594 46.441406 "/>
<path style=" stroke:none;fill-rule:nonzero;fill:rgb(20.392157%,29.803923%,37.64706%);fill-opacity:1;" d="M 61.011719 52.832031 C 61.101562 52.726562 61.210938 52.613281 61.328125 52.5 C 61.445312 52.390625 61.5625 52.273438 61.6875 52.175781 C 61.753906 52.121094 61.839844 52.09375 61.917969 52.066406 C 62.023438 52.027344 62.183594 52.035156 62.230469 51.964844 C 62.425781 51.664062 62.765625 51.628906 63.046875 51.5 C 63.273438 51.394531 63.425781 51.300781 63.515625 51.03125 C 63.648438 50.625 63.800781 51.003906 63.964844 51.09375 C 63.007812 51.679688 62.023438 52.253906 61.011719 52.832031 M 63.609375 51.1875 C 63.609375 51.1875 63.601562 51.179688 63.609375 51.1875 Z M 63.609375 51.1875 "/>
<path style=" stroke:none;fill-rule:nonzero;fill:rgb(19.607843%,28.627452%,36.470589%);fill-opacity:1;" d="M 70.328125 43.832031 C 70.289062 44.042969 70.179688 44.164062 69.929688 44.257812 C 69.566406 44.394531 69.273438 44.710938 68.921875 44.894531 C 68.332031 45.203125 67.71875 45.46875 67.085938 45.742188 C 67.054688 45.734375 67.054688 45.730469 67.054688 45.730469 C 68.136719 45.097656 69.21875 44.46875 70.328125 43.832031 Z M 70.328125 43.832031 "/>
<path style=" stroke:none;fill-rule:nonzero;fill:rgb(19.607843%,28.627452%,36.470589%);fill-opacity:1;" d="M 26.859375 48.625 C 26.949219 48.488281 27.058594 48.371094 27.167969 48.25 C 27.207031 48.257812 27.25 48.269531 27.289062 48.277344 C 27.09375 48.78125 27.480469 48.835938 27.753906 48.984375 C 27.984375 49.113281 28.203125 49.269531 28.4375 49.398438 C 28.730469 49.5625 29.039062 49.707031 29.328125 49.875 C 29.453125 49.949219 29.550781 50.070312 29.660156 50.199219 C 28.730469 49.699219 27.804688 49.171875 26.859375 48.625 Z M 26.859375 48.625 "/>
<path style=" stroke:none;fill-rule:nonzero;fill:rgb(19.607843%,28.627452%,36.470589%);fill-opacity:1;" d="M 20.890625 45.175781 C 21.191406 45.089844 21.433594 45.105469 21.671875 45.421875 C 21.832031 45.636719 22.210938 45.675781 22.476562 45.816406 C 22.582031 45.871094 22.640625 46.015625 22.742188 46.082031 C 23.152344 46.363281 23.570312 46.628906 23.988281 46.929688 C 22.960938 46.371094 21.933594 45.785156 20.890625 45.175781 Z M 20.890625 45.175781 "/>
<path style=" stroke:none;fill-rule:nonzero;fill:rgb(20.392157%,29.803923%,37.64706%);fill-opacity:1;" d="M 58.300781 54.394531 C 58.226562 54.132812 58.363281 54.050781 58.609375 53.980469 C 58.847656 53.917969 59.058594 53.746094 59.28125 53.628906 C 59.363281 53.582031 59.460938 53.558594 59.539062 53.507812 C 59.847656 53.320312 60.179688 53.15625 60.449219 52.921875 C 60.613281 52.777344 60.742188 52.753906 60.953125 52.824219 C 60.097656 53.355469 59.214844 53.871094 58.300781 54.394531 Z M 58.300781 54.394531 "/>
<path style=" stroke:none;fill-rule:nonzero;fill:rgb(20%,74.117649%,94.117647%);fill-opacity:1;" d="M 32.144531 65.394531 C 32.136719 65.460938 32.113281 65.507812 32.070312 65.589844 C 31.601562 65.167969 31.140625 64.769531 30.699219 64.34375 C 30.570312 64.21875 30.503906 64.019531 30.40625 63.828125 C 30.886719 64.234375 31.367188 64.671875 31.847656 65.109375 C 31.945312 65.195312 32.039062 65.285156 32.144531 65.394531 Z M 32.144531 65.394531 "/>
<path style=" stroke:none;fill-rule:nonzero;fill:rgb(20.392157%,29.803923%,37.64706%);fill-opacity:1;" d="M 34.191406 52.855469 C 34.417969 52.925781 34.664062 53.003906 34.902344 53.105469 C 35.1875 53.226562 35.464844 53.363281 35.742188 53.496094 C 35.808594 53.527344 35.871094 53.5625 35.929688 53.605469 C 36.148438 53.753906 36.34375 53.976562 36.585938 54.039062 C 36.792969 54.09375 36.832031 54.199219 36.882812 54.375 C 35.992188 53.894531 35.101562 53.386719 34.191406 52.855469 Z M 34.191406 52.855469 "/>
<path style=" stroke:none;fill-rule:nonzero;fill:rgb(19.607843%,28.627452%,36.470589%);fill-opacity:1;" d="M 73.191406 42.175781 C 73.207031 42.242188 73.214844 42.359375 73.171875 42.382812 C 72.285156 42.878906 71.390625 43.363281 70.492188 43.851562 C 70.472656 43.863281 70.441406 43.851562 70.386719 43.839844 C 71.292969 43.28125 72.226562 42.734375 73.191406 42.175781 Z M 73.191406 42.175781 "/>
<path style=" stroke:none;fill-rule:nonzero;fill:rgb(20.392157%,29.803923%,37.64706%);fill-opacity:1;" d="M 56.882812 51.59375 C 56.859375 51.664062 56.824219 51.777344 56.746094 51.816406 C 56.253906 52.066406 55.863281 52.503906 55.300781 52.648438 C 55.179688 52.679688 55.117188 52.921875 55.015625 53.082031 C 54.914062 53.042969 54.785156 52.996094 54.625 52.933594 C 55.351562 52.480469 56.101562 52.039062 56.882812 51.59375 Z M 56.882812 51.59375 "/>
<path style=" stroke:none;fill-rule:nonzero;fill:rgb(20.392157%,29.803923%,37.64706%);fill-opacity:1;" d="M 64.03125 51.09375 C 64.234375 50.917969 64.460938 50.734375 64.6875 50.542969 C 64.769531 50.476562 64.839844 50.402344 64.917969 50.300781 C 64.917969 50.269531 64.917969 50.269531 64.917969 50.269531 C 65.21875 50.261719 65.4375 50.167969 65.625 49.886719 C 65.734375 49.730469 66.050781 49.714844 66.308594 49.660156 C 66.347656 49.703125 66.347656 49.722656 66.351562 49.738281 C 65.585938 50.1875 64.820312 50.636719 64.03125 51.09375 Z M 64.03125 51.09375 "/>
<path style=" stroke:none;fill-rule:nonzero;fill:rgb(19.607843%,28.627452%,36.470589%);fill-opacity:1;" d="M 60.292969 49.628906 C 60.183594 49.75 60.0625 49.902344 59.910156 50 C 59.386719 50.320312 58.855469 50.625 58.320312 50.925781 C 58.21875 50.984375 58.085938 50.992188 57.957031 51.003906 C 58.722656 50.535156 59.492188 50.085938 60.292969 49.628906 Z M 60.292969 49.628906 "/>
<path style=" stroke:none;fill-rule:nonzero;fill:rgb(20.392157%,29.803923%,37.64706%);fill-opacity:1;" d="M 21.070312 41.664062 C 20.542969 41.808594 20.171875 42.28125 20.246094 42.789062 C 20.109375 42.851562 19.964844 42.914062 19.792969 42.980469 C 19.804688 42.898438 19.839844 42.8125 19.882812 42.734375 C 20.132812 42.300781 20.382812 41.871094 20.652344 41.410156 C 20.792969 41.492188 20.921875 41.566406 21.070312 41.664062 Z M 21.070312 41.664062 "/>
<path style=" stroke:none;fill-rule:nonzero;fill:rgb(19.607843%,28.627452%,36.470589%);fill-opacity:1;" d="M 47.941406 56.757812 C 47.8125 56.847656 47.585938 57.0625 47.503906 57.015625 C 46.773438 56.617188 46.070312 56.171875 45.375 55.726562 C 46.011719 56.0625 46.636719 56.398438 47.242188 56.765625 C 47.488281 56.914062 47.691406 56.957031 47.941406 56.757812 Z M 47.941406 56.757812 "/>
<path style=" stroke:none;fill-rule:nonzero;fill:rgb(19.607843%,28.627452%,36.470589%);fill-opacity:1;" d="M 30.867188 47.316406 C 30.832031 47.339844 30.773438 47.332031 30.726562 47.355469 C 30.460938 47.488281 30.410156 47.261719 30.246094 47.140625 C 29.894531 46.875 29.4375 46.753906 29.042969 46.542969 C 28.917969 46.476562 28.855469 46.300781 28.765625 46.144531 C 29.464844 46.507812 30.15625 46.902344 30.867188 47.316406 Z M 30.867188 47.316406 "/>
<path style=" stroke:none;fill-rule:nonzero;fill:rgb(19.607843%,28.627452%,36.470589%);fill-opacity:1;" d="M 51.554688 54.675781 C 51.488281 54.792969 51.425781 54.964844 51.304688 55.035156 C 50.984375 55.222656 50.636719 55.355469 50.3125 55.53125 C 50.242188 55.570312 50.222656 55.695312 50.199219 55.742188 C 49.960938 55.796875 49.742188 55.84375 49.496094 55.886719 C 50.152344 55.480469 50.839844 55.082031 51.554688 54.675781 Z M 51.554688 54.675781 "/>
<path style=" stroke:none;fill-rule:nonzero;fill:rgb(20.392157%,29.803923%,37.64706%);fill-opacity:1;" d="M 54.5625 52.933594 C 54.359375 53.128906 54.128906 53.332031 53.875 53.5625 C 53.878906 53.621094 53.890625 53.742188 53.894531 53.816406 C 53.621094 53.816406 53.386719 53.816406 53.121094 53.804688 C 53.574219 53.507812 54.054688 53.222656 54.5625 52.933594 Z M 54.5625 52.933594 "/>
<path style=" stroke:none;fill-rule:nonzero;fill:rgb(19.607843%,28.627452%,36.470589%);fill-opacity:1;" d="M 44.867188 55.398438 C 44.84375 55.441406 44.785156 55.496094 44.761719 55.484375 C 44.140625 55.109375 43.453125 54.847656 42.914062 54.3125 C 43.558594 54.648438 44.203125 55.015625 44.867188 55.398438 Z M 44.867188 55.398438 "/>
<path style=" stroke:none;fill-rule:nonzero;fill:rgb(19.607843%,28.627452%,36.470589%);fill-opacity:1;" d="M 29.671875 50.25 C 29.84375 50.257812 30.027344 50.289062 30.222656 50.320312 C 30.242188 50.285156 30.277344 50.210938 30.277344 50.207031 C 30.578125 50.492188 30.871094 50.765625 31.164062 51.070312 C 30.671875 50.824219 30.179688 50.546875 29.671875 50.25 Z M 29.671875 50.25 "/>
<path style=" stroke:none;fill-rule:nonzero;fill:rgb(20.392157%,29.803923%,37.64706%);fill-opacity:1;" d="M 32.457031 51.695312 C 33.03125 52.058594 33.601562 52.421875 34.175781 52.8125 C 33.578125 52.503906 32.980469 52.167969 32.390625 51.800781 C 32.417969 51.742188 32.4375 51.71875 32.457031 51.695312 Z M 32.457031 51.695312 "/>
<path style=" stroke:none;fill-rule:nonzero;fill:rgb(19.607843%,28.627452%,36.470589%);fill-opacity:1;" d="M 40.542969 52.90625 C 40.316406 53.023438 40.171875 53.019531 39.980469 52.742188 C 39.800781 52.492188 39.40625 52.386719 39.113281 52.210938 C 39.050781 52.175781 39.007812 52.109375 38.957031 52.027344 C 39.480469 52.292969 40.003906 52.589844 40.542969 52.90625 Z M 40.542969 52.90625 "/>
<path style=" stroke:none;fill-rule:nonzero;fill:rgb(20.392157%,29.803923%,37.64706%);fill-opacity:1;" d="M 56.894531 55.207031 C 57.09375 54.574219 57.722656 54.589844 58.25 54.394531 C 57.828125 54.664062 57.375 54.933594 56.894531 55.207031 Z M 56.894531 55.207031 "/>
<path style=" stroke:none;fill-rule:nonzero;fill:rgb(19.607843%,28.627452%,36.470589%);fill-opacity:1;" d="M 32.460938 48.257812 C 31.941406 47.984375 31.410156 47.6875 30.878906 47.359375 C 31.402344 47.632812 31.925781 47.933594 32.460938 48.257812 Z M 32.460938 48.257812 "/>
<path style=" stroke:none;fill-rule:nonzero;fill:rgb(19.607843%,28.627452%,36.470589%);fill-opacity:1;" d="M 49.441406 55.882812 C 49.28125 56.039062 49.113281 56.238281 48.902344 56.359375 C 48.628906 56.523438 48.320312 56.628906 47.996094 56.757812 C 48.445312 56.464844 48.929688 56.175781 49.441406 55.882812 Z M 49.441406 55.882812 "/>
<path style=" stroke:none;fill-rule:nonzero;fill:rgb(19.607843%,28.627452%,36.470589%);fill-opacity:1;" d="M 32.429688 51.691406 C 32.4375 51.71875 32.417969 51.742188 32.375 51.777344 C 31.96875 51.570312 31.582031 51.355469 31.179688 51.121094 C 31.414062 51 31.582031 50.984375 31.75 51.292969 C 31.855469 51.488281 32.179688 51.5625 32.429688 51.691406 Z M 32.429688 51.691406 "/>
<path style=" stroke:none;fill-rule:nonzero;fill:rgb(20%,74.117649%,94.117647%);fill-opacity:1;" d="M 63.742188 30.429688 C 64.128906 30.289062 64.355469 30.488281 64.363281 30.992188 C 64.160156 30.832031 63.957031 30.640625 63.742188 30.429688 Z M 63.742188 30.429688 "/>
<path style=" stroke:none;fill-rule:nonzero;fill:rgb(61.176473%,68.627453%,71.372551%);fill-opacity:1;" d="M 48.183594 53.996094 C 48.300781 54.050781 48.398438 54.117188 48.511719 54.207031 C 48.292969 54.367188 48.058594 54.503906 47.78125 54.636719 C 47.742188 54.628906 47.714844 54.601562 47.714844 54.601562 C 47.863281 54.40625 48.011719 54.207031 48.183594 53.996094 Z M 48.183594 53.996094 "/>
<path style=" stroke:none;fill-rule:nonzero;fill:rgb(20.392157%,29.803923%,37.64706%);fill-opacity:1;" d="M 61.695312 48.816406 C 61.535156 49.058594 61.433594 49.414062 60.976562 49.378906 C 60.910156 49.34375 60.886719 49.328125 60.859375 49.3125 C 61.128906 49.148438 61.398438 48.988281 61.695312 48.816406 Z M 61.695312 48.816406 "/>
<path style=" stroke:none;fill-rule:nonzero;fill:rgb(19.607843%,28.627452%,36.470589%);fill-opacity:1;" d="M 66.378906 49.734375 C 66.347656 49.722656 66.347656 49.703125 66.339844 49.660156 C 66.726562 49.429688 67.113281 49.222656 67.527344 49.027344 C 67.175781 49.265625 66.789062 49.496094 66.378906 49.734375 Z M 66.378906 49.734375 "/>
<path style=" stroke:none;fill-rule:nonzero;fill:rgb(19.607843%,28.627452%,36.470589%);fill-opacity:1;" d="M 34.179688 49.226562 C 33.996094 49.53125 33.828125 49.351562 33.675781 49.195312 C 33.582031 49.101562 33.511719 48.980469 33.429688 48.839844 C 33.671875 48.945312 33.914062 49.078125 34.179688 49.226562 Z M 34.179688 49.226562 "/>
<path style=" stroke:none;fill-rule:nonzero;fill:rgb(20.392157%,29.803923%,37.64706%);fill-opacity:1;" d="M 51.691406 58.214844 C 51.605469 58.09375 51.542969 57.964844 51.453125 57.777344 C 51.742188 57.820312 51.945312 57.851562 52.171875 57.898438 C 52.039062 58.011719 51.875 58.109375 51.691406 58.214844 Z M 51.691406 58.214844 "/>
<path style=" stroke:none;fill-rule:nonzero;fill:rgb(19.607843%,28.627452%,36.470589%);fill-opacity:1;" d="M 67.582031 49.035156 C 67.890625 48.835938 68.226562 48.628906 68.585938 48.429688 C 68.273438 48.632812 67.941406 48.828125 67.582031 49.035156 Z M 67.582031 49.035156 "/>
<path style=" stroke:none;fill-rule:nonzero;fill:rgb(61.176473%,68.627453%,71.372551%);fill-opacity:1;" d="M 48.742188 53.292969 C 48.953125 53.769531 48.542969 53.832031 48.234375 53.988281 C 48.378906 53.757812 48.550781 53.535156 48.742188 53.292969 Z M 48.742188 53.292969 "/>
<path style=" stroke:none;fill-rule:nonzero;fill:rgb(19.607843%,28.627452%,36.470589%);fill-opacity:1;" d="M 33.421875 48.792969 C 33.050781 48.785156 32.730469 48.625 32.472656 48.300781 C 32.777344 48.441406 33.09375 48.609375 33.421875 48.792969 Z M 33.421875 48.792969 "/>
<path style=" stroke:none;fill-rule:nonzero;fill:rgb(20.392157%,29.803923%,37.64706%);fill-opacity:1;" d="M 53.058594 53.800781 C 52.992188 54.230469 52.617188 54.234375 52.261719 54.296875 C 52.5 54.132812 52.765625 53.972656 53.058594 53.800781 Z M 53.058594 53.800781 "/>
<path style=" stroke:none;fill-rule:nonzero;fill:rgb(19.607843%,28.627452%,36.470589%);fill-opacity:1;" d="M 38.945312 51.980469 C 38.675781 51.859375 38.386719 51.71875 38.09375 51.546875 C 38.367188 51.667969 38.648438 51.8125 38.945312 51.980469 Z M 38.945312 51.980469 "/>
<path style=" stroke:none;fill-rule:nonzero;fill:rgb(19.607843%,28.627452%,36.470589%);fill-opacity:1;" d="M 52.210938 54.292969 C 52.039062 54.421875 51.84375 54.554688 51.617188 54.671875 C 51.785156 54.542969 51.984375 54.421875 52.210938 54.292969 Z M 52.210938 54.292969 "/>
<path style=" stroke:none;fill-rule:nonzero;fill:rgb(19.607843%,28.627452%,36.470589%);fill-opacity:1;" d="M 28.75 46.09375 C 28.652344 46.121094 28.535156 46.148438 28.425781 46.128906 C 28.390625 46.125 28.371094 46.003906 28.363281 45.910156 C 28.496094 45.949219 28.613281 46.011719 28.75 46.09375 Z M 28.75 46.09375 "/>
<path style=" stroke:none;fill-rule:nonzero;fill:rgb(26.666668%,35.294119%,43.529412%);fill-opacity:1;" d="M 39.539062 55.9375 C 39.347656 55.835938 39.160156 55.730469 38.957031 55.605469 C 38.941406 55.585938 38.945312 55.578125 38.976562 55.578125 C 39.199219 55.679688 39.390625 55.785156 39.570312 55.902344 C 39.558594 55.914062 39.539062 55.9375 39.539062 55.9375 Z M 39.539062 55.9375 "/>
<path style=" stroke:none;fill-rule:nonzero;fill:rgb(19.607843%,28.627452%,36.470589%);fill-opacity:1;" d="M 60.742188 49.367188 C 60.636719 49.453125 60.503906 49.542969 60.34375 49.632812 C 60.449219 49.542969 60.582031 49.460938 60.742188 49.367188 Z M 60.742188 49.367188 "/>
<path style=" stroke:none;fill-rule:nonzero;fill:rgb(20.392157%,29.803923%,37.64706%);fill-opacity:1;" d="M 52.230469 57.902344 C 52.335938 57.820312 52.46875 57.726562 52.628906 57.640625 C 52.523438 57.726562 52.390625 57.808594 52.230469 57.902344 Z M 52.230469 57.902344 "/>
<path style=" stroke:none;fill-rule:nonzero;fill:rgb(26.666668%,35.294119%,43.529412%);fill-opacity:1;" d="M 39.953125 56.160156 C 39.820312 56.105469 39.695312 56.039062 39.554688 55.957031 C 39.539062 55.9375 39.558594 55.914062 39.597656 55.90625 C 39.75 55.972656 39.863281 56.050781 39.980469 56.128906 C 39.980469 56.128906 39.960938 56.152344 39.953125 56.160156 Z M 39.953125 56.160156 "/>
<path style=" stroke:none;fill-rule:nonzero;fill:rgb(20.392157%,29.803923%,37.64706%);fill-opacity:1;" d="M 66.359375 46.121094 C 66.273438 46.195312 66.164062 46.277344 66.042969 46.335938 C 66.128906 46.253906 66.234375 46.191406 66.359375 46.121094 Z M 66.359375 46.121094 "/>
<path style=" stroke:none;fill-rule:nonzero;fill:rgb(20.392157%,29.803923%,37.64706%);fill-opacity:1;" d="M 66.765625 45.890625 C 66.675781 45.964844 66.5625 46.050781 66.421875 46.125 C 66.507812 46.039062 66.625 45.96875 66.765625 45.890625 Z M 66.765625 45.890625 "/>
<path style=" stroke:none;fill-rule:nonzero;fill:rgb(61.176473%,68.627453%,71.372551%);fill-opacity:1;" d="M 47.71875 52.882812 C 47.632812 52.914062 47.546875 52.941406 47.460938 52.972656 C 47.457031 52.929688 47.449219 52.882812 47.445312 52.839844 C 47.503906 52.859375 47.5625 52.878906 47.660156 52.890625 C 47.695312 52.882812 47.71875 52.882812 47.71875 52.882812 Z M 47.71875 52.882812 "/>
<path style=" stroke:none;fill-rule:nonzero;fill:rgb(20.392157%,29.803923%,37.64706%);fill-opacity:1;" d="M 36.894531 54.417969 C 36.980469 54.4375 37.082031 54.476562 37.1875 54.550781 C 37.09375 54.535156 37 54.488281 36.894531 54.417969 Z M 36.894531 54.417969 "/>
<path style=" stroke:none;fill-rule:nonzero;fill:rgb(20.392157%,29.803923%,37.64706%);fill-opacity:1;" d="M 37.195312 54.59375 C 37.273438 54.613281 37.367188 54.648438 37.445312 54.703125 C 37.355469 54.683594 37.28125 54.648438 37.195312 54.59375 Z M 37.195312 54.59375 "/>
<path style=" stroke:none;fill-rule:nonzero;fill:rgb(19.607843%,28.627452%,36.470589%);fill-opacity:1;" d="M 40.753906 53.023438 C 40.621094 53.265625 40.601562 53.078125 40.5625 52.949219 C 40.621094 52.953125 40.679688 52.980469 40.753906 53.023438 Z M 40.753906 53.023438 "/>
<path style=" stroke:none;fill-rule:nonzero;fill:rgb(19.607843%,28.627452%,36.470589%);fill-opacity:1;" d="M 20.679688 45.0625 C 20.734375 45.066406 20.804688 45.085938 20.875 45.136719 C 20.816406 45.132812 20.757812 45.105469 20.679688 45.0625 Z M 20.679688 45.0625 "/>
<path style=" stroke:none;fill-rule:nonzero;fill:rgb(1.176471%,68.235296%,92.54902%);fill-opacity:1;" d="M 28.003906 65.59375 C 28.046875 65.609375 28.09375 65.644531 28.121094 65.695312 C 28.070312 65.679688 28.039062 65.648438 28.003906 65.59375 Z M 28.003906 65.59375 "/>
<path style=" stroke:none;fill-rule:nonzero;fill:rgb(20%,74.117649%,94.117647%);fill-opacity:1;" d="M 32.382812 65.597656 C 32.335938 65.589844 32.28125 65.554688 32.222656 65.496094 C 32.273438 65.503906 32.324219 65.539062 32.382812 65.597656 Z M 32.382812 65.597656 "/>
<path style=" stroke:none;fill-rule:nonzero;fill:rgb(67.058825%,90.588236%,97.647059%);fill-opacity:1;" d="M 46.6875 71.117188 C 46.617188 71.132812 46.523438 71.132812 46.40625 71.117188 C 46.476562 71.101562 46.570312 71.101562 46.6875 71.117188 Z M 46.6875 71.117188 "/>
<path style=" stroke:none;fill-rule:nonzero;fill:rgb(67.058825%,90.588236%,97.647059%);fill-opacity:1;" d="M 47.722656 71.140625 C 47.652344 71.160156 47.566406 71.167969 47.449219 71.164062 C 47.511719 71.144531 47.605469 71.132812 47.722656 71.140625 Z M 47.722656 71.140625 "/>
<path style=" stroke:none;fill-rule:nonzero;fill:rgb(67.058825%,90.588236%,97.647059%);fill-opacity:1;" d="M 48.753906 71.097656 C 48.710938 71.117188 48.644531 71.132812 48.550781 71.136719 C 48.59375 71.113281 48.660156 71.101562 48.753906 71.097656 Z M 48.753906 71.097656 "/>
<path style=" stroke:none;fill-rule:nonzero;fill:rgb(67.058825%,90.588236%,97.647059%);fill-opacity:1;" d="M 46.332031 24.066406 C 46.371094 24.046875 46.4375 24.035156 46.527344 24.03125 C 46.484375 24.054688 46.421875 24.0625 46.332031 24.066406 Z M 46.332031 24.066406 "/>
<path style=" stroke:none;fill-rule:nonzero;fill:rgb(20.392157%,29.803923%,37.64706%);fill-opacity:1;" d="M 67.035156 45.734375 C 67.054688 45.730469 67.054688 45.734375 67.058594 45.738281 C 67.019531 45.773438 66.976562 45.800781 66.910156 45.832031 C 66.929688 45.800781 66.972656 45.769531 67.035156 45.734375 Z M 67.035156 45.734375 "/>
<path style=" stroke:none;fill-rule:nonzero;fill:rgb(19.607843%,28.627452%,36.470589%);fill-opacity:1;" d="M 24.023438 46.980469 C 24.058594 46.976562 24.109375 46.988281 24.144531 47.019531 C 24.097656 47.023438 24.066406 47.015625 24.023438 46.980469 Z M 24.023438 46.980469 "/>
<path style=" stroke:none;fill-rule:nonzero;fill:rgb(67.058825%,90.588236%,97.647059%);fill-opacity:1;" d="M 48.703125 24.0625 C 48.722656 24.046875 48.773438 24.042969 48.835938 24.046875 C 48.8125 24.066406 48.769531 24.066406 48.703125 24.0625 Z M 48.703125 24.0625 "/>
<path style=" stroke:none;fill-rule:nonzero;fill:rgb(1.176471%,68.235296%,92.54902%);fill-opacity:1;" d="M 66.023438 28.390625 C 66.003906 28.398438 65.976562 28.382812 65.949219 28.351562 C 65.972656 28.34375 65.996094 28.359375 66.023438 28.390625 Z M 66.023438 28.390625 "/>
<path style=" stroke:none;fill-rule:nonzero;fill:rgb(19.607843%,28.627452%,36.470589%);fill-opacity:1;" d="M 28.257812 45.8125 C 28.226562 45.816406 28.175781 45.800781 28.121094 45.761719 C 28.15625 45.757812 28.199219 45.773438 28.257812 45.8125 Z M 28.257812 45.8125 "/>
<path style=" stroke:none;fill-rule:nonzero;fill:rgb(19.607843%,28.627452%,36.470589%);fill-opacity:1;" d="M 60.84375 49.3125 C 60.886719 49.328125 60.910156 49.34375 60.945312 49.378906 C 60.914062 49.394531 60.871094 49.390625 60.800781 49.371094 C 60.78125 49.335938 60.796875 49.320312 60.84375 49.3125 Z M 60.84375 49.3125 "/>
<path style=" stroke:none;fill-rule:nonzero;fill:rgb(19.607843%,28.627452%,36.470589%);fill-opacity:1;" d="M 38.082031 51.503906 C 38.042969 51.515625 37.996094 51.503906 37.9375 51.464844 C 37.972656 51.453125 38.023438 51.46875 38.082031 51.503906 Z M 38.082031 51.503906 "/>
<path style=" stroke:none;fill-rule:nonzero;fill:rgb(20.392157%,29.803923%,37.64706%);fill-opacity:1;" d="M 51.566406 58.285156 C 51.5625 58.265625 51.578125 58.238281 51.621094 58.214844 C 51.625 58.238281 51.605469 58.257812 51.566406 58.285156 Z M 51.566406 58.285156 "/>
<path style=" stroke:none;fill-rule:nonzero;fill:rgb(20.392157%,29.803923%,37.64706%);fill-opacity:1;" d="M 65.917969 46.378906 C 65.921875 46.398438 65.902344 46.421875 65.863281 46.445312 C 65.859375 46.425781 65.878906 46.40625 65.917969 46.378906 Z M 65.917969 46.378906 "/>
<path style=" stroke:none;fill-rule:nonzero;fill:rgb(20.392157%,29.803923%,37.64706%);fill-opacity:1;" d="M 66.871094 45.828125 C 66.871094 45.847656 66.855469 45.871094 66.8125 45.894531 C 66.808594 45.871094 66.828125 45.851562 66.871094 45.828125 Z M 66.871094 45.828125 "/>
<path style=" stroke:none;fill-rule:nonzero;fill:rgb(19.607843%,28.627452%,36.470589%);fill-opacity:1;" d="M 28.359375 45.875 C 28.339844 45.886719 28.3125 45.878906 28.273438 45.847656 C 28.292969 45.835938 28.320312 45.84375 28.359375 45.875 Z M 28.359375 45.875 "/>
<path style=" stroke:none;fill-rule:nonzero;fill:rgb(19.607843%,28.627452%,36.470589%);fill-opacity:1;" d="M 37.929688 51.429688 C 37.910156 51.4375 37.886719 51.417969 37.855469 51.378906 C 37.871094 51.375 37.894531 51.390625 37.929688 51.429688 Z M 37.929688 51.429688 "/>
<path style=" stroke:none;fill-rule:nonzero;fill:rgb(61.176473%,68.627453%,71.372551%);fill-opacity:1;" d="M 47.722656 52.863281 C 47.71875 52.882812 47.695312 52.882812 47.6875 52.886719 C 47.691406 52.871094 47.707031 52.855469 47.722656 52.863281 Z M 47.722656 52.863281 "/>
<path style=" stroke:none;fill-rule:nonzero;fill:rgb(61.176473%,68.627453%,71.372551%);fill-opacity:1;" d="M 47.753906 54.644531 C 47.742188 54.648438 47.714844 54.640625 47.699219 54.617188 C 47.714844 54.601562 47.742188 54.628906 47.753906 54.644531 Z M 47.753906 54.644531 "/>
<path style=" stroke:none;fill-rule:nonzero;fill:rgb(61.176473%,68.627453%,71.372551%);fill-opacity:1;" d="M 47.425781 54.621094 C 47.449219 54.632812 47.460938 54.65625 47.472656 54.679688 C 47.453125 54.683594 47.4375 54.683594 47.402344 54.671875 C 47.390625 54.660156 47.414062 54.632812 47.425781 54.621094 Z M 47.425781 54.621094 "/>
<path style=" stroke:none;fill-rule:nonzero;fill:rgb(15.294118%,73.333335%,94.117647%);fill-opacity:1;" d="M 29.6875 66.578125 C 29.585938 66.367188 29.679688 66.226562 29.832031 66.070312 C 30.039062 65.851562 30.347656 65.703125 30.328125 65.3125 C 30.3125 64.972656 30.1875 64.71875 29.882812 64.589844 C 29.578125 64.457031 29.265625 64.464844 29 64.699219 C 28.910156 64.78125 28.8125 64.855469 28.75 64.953125 C 28.558594 65.230469 28.3125 65.304688 28.003906 65.203125 C 28.207031 64.53125 29.1875 63.921875 29.84375 64.058594 C 30.570312 64.207031 31.027344 65.144531 30.667969 65.789062 C 30.515625 66.058594 30.296875 66.296875 30.082031 66.523438 C 30.019531 66.589844 29.859375 66.566406 29.714844 66.582031 C 29.6875 66.578125 29.6875 66.578125 29.6875 66.578125 Z M 29.6875 66.578125 "/>
<path style=" stroke:none;fill-rule:nonzero;fill:rgb(38.431373%,45.490196%,52.549022%);fill-opacity:1;" d="M 40.011719 56.128906 C 39.863281 56.050781 39.75 55.972656 39.609375 55.894531 C 39.390625 55.785156 39.199219 55.679688 38.980469 55.574219 C 38.644531 55.277344 38.53125 54.933594 38.707031 54.523438 C 38.894531 54.078125 39.207031 53.792969 39.6875 53.707031 C 40.183594 53.617188 40.546875 53.832031 40.824219 54.175781 C 40.386719 54.605469 39.972656 55.015625 39.527344 55.453125 C 39.332031 55.355469 39.273438 55.214844 39.5 54.980469 C 39.726562 54.746094 39.921875 54.484375 40.164062 54.191406 C 39.988281 54.191406 39.75 54.125 39.597656 54.210938 C 39.398438 54.316406 39.167969 54.53125 39.128906 54.730469 C 39.007812 55.378906 39.265625 55.621094 39.792969 55.722656 C 40.226562 55.804688 40.613281 55.425781 40.691406 54.921875 C 40.71875 54.765625 40.800781 54.613281 40.914062 54.472656 C 41.160156 54.761719 41.132812 55.070312 41.03125 55.359375 C 40.867188 55.816406 40.554688 56.109375 40.011719 56.128906 Z M 40.011719 56.128906 "/>
<path style=" stroke:none;fill-rule:nonzero;fill:rgb(20.392157%,29.803923%,37.64706%);fill-opacity:1;" d="M 54.667969 54.664062 C 54.65625 54.703125 54.632812 54.726562 54.609375 54.75 C 54.597656 54.707031 54.582031 54.667969 54.570312 54.625 C 54.601562 54.632812 54.628906 54.636719 54.667969 54.664062 Z M 54.667969 54.664062 "/>
<path style=" stroke:none;fill-rule:nonzero;fill:rgb(20.392157%,29.803923%,37.64706%);fill-opacity:1;" d="M 54.304688 54.3125 C 54.261719 54.292969 54.214844 54.277344 54.171875 54.257812 C 54.179688 54.242188 54.191406 54.222656 54.199219 54.203125 C 54.230469 54.226562 54.261719 54.25 54.300781 54.289062 C 54.308594 54.308594 54.304688 54.3125 54.304688 54.3125 Z M 54.304688 54.3125 "/>
<path style=" stroke:none;fill-rule:nonzero;fill:rgb(20.392157%,29.803923%,37.64706%);fill-opacity:1;" d="M 54.308594 54.308594 C 54.347656 54.339844 54.386719 54.371094 54.425781 54.402344 C 54.410156 54.414062 54.398438 54.425781 54.382812 54.441406 C 54.359375 54.410156 54.335938 54.378906 54.308594 54.332031 C 54.304688 54.3125 54.308594 54.308594 54.308594 54.308594 Z M 54.308594 54.308594 "/>
<path style=" stroke:none;fill-rule:nonzero;fill:rgb(20.392157%,29.803923%,37.64706%);fill-opacity:1;" d="M 64.917969 50.269531 C 64.90625 50.261719 64.898438 50.25 64.890625 50.238281 C 64.894531 50.242188 64.902344 50.246094 64.914062 50.261719 C 64.917969 50.269531 64.917969 50.269531 64.917969 50.269531 Z M 64.917969 50.269531 "/>
</g>
</svg>
