<svg version="1.1" id="Layer_1" xmlns="http://www.w3.org/2000/svg" xmlns:xlink="http://www.w3.org/1999/xlink" x="0px" y="0px"
	 width="100%" viewBox="0 0 688 688" enable-background="new 0 0 688 688" xml:space="preserve">
<path fill="#000000" opacity="1.000000" stroke="none" 
	d="
M202.186432,505.324280 
	C200.195618,507.337830 198.460358,507.510712 196.868561,505.455353 
	C195.264999,503.384827 196.841553,502.199402 198.184250,500.864532 
	C242.022354,457.282898 285.830902,413.671570 329.682068,370.103058 
	C335.571075,364.251953 341.662170,358.604248 348.586823,351.974823 
	C342.512543,346.179657 337.041168,341.140808 331.769501,335.901001 
	C295.963226,300.311432 260.206390,264.672150 224.415543,229.067062 
	C216.619965,221.311951 208.749557,213.632065 200.918594,205.912491 
	C199.850708,204.859818 198.807831,203.781631 197.760880,202.707947 
	C196.281052,201.190369 195.763382,199.601654 197.571152,197.977341 
	C199.256760,196.462799 200.601074,197.396255 201.881210,198.665817 
	C210.990707,207.700012 220.119186,216.715088 229.214325,225.763702 
	C269.019958,265.365570 308.814911,304.978241 348.624878,344.575806 
	C349.563202,345.509094 350.632324,346.310883 351.582794,347.124664 
	C353.637604,347.072083 354.569061,345.523407 355.704987,344.392090 
	C401.392578,298.890381 447.058075,253.366486 492.733124,207.852127 
	C495.447357,205.147461 498.212128,202.493423 500.962402,199.825104 
	C502.569122,198.266281 504.034821,195.629578 506.661621,198.083252 
	C509.359467,200.603271 506.747192,202.237839 505.193542,203.789993 
	C491.046753,217.923035 476.856506,232.012543 462.681427,246.117294 
	C428.429260,280.199585 394.203186,314.308228 359.879242,348.318085 
	C357.182922,350.989716 356.744812,352.609619 359.707001,355.544617 
	C395.688904,391.195892 431.527588,426.991669 467.427612,462.725647 
	C479.943573,475.183655 492.553802,487.547089 505.046509,500.028259 
	C506.816589,501.796692 510.850067,503.307098 507.833527,506.652618 
	C504.672485,510.158417 502.808014,506.079803 501.111572,504.397919 
	C473.425049,476.949005 445.857422,449.380310 418.228760,421.872955 
	C397.567108,401.301941 376.863770,380.772766 356.150299,360.253906 
	C354.873840,358.989471 353.667450,357.540710 351.139954,356.788055 
	C301.717285,406.075745 252.083008,455.574463 202.186432,505.324280 
z"/>
<path fill="#000000" opacity="1.000000" stroke="none" 
	d="
M316.954834,479.980652 
	C313.848938,474.514862 310.928650,469.364075 307.547150,463.399841 
	C338.097839,463.399841 367.690186,463.399841 398.616791,463.399841 
	C383.362488,489.752808 368.552399,515.338379 353.049835,542.120300 
	C340.615570,520.712463 328.877991,500.504089 316.954834,479.980652 
M346.287964,515.283142 
	C348.366760,518.824951 350.445587,522.366699 353.007385,526.731384 
	C360.538239,513.721191 367.599243,501.522675 374.905914,488.899780 
	C359.708466,488.899780 345.727264,488.899780 330.980957,488.899780 
	C336.250031,497.988098 341.082367,506.323151 346.287964,515.283142 
M345.500092,470.383209 
	C337.614655,470.383209 329.729187,470.383209 321.326904,470.383209 
	C322.637299,475.160461 324.879150,478.255554 326.782715,481.521423 
	C327.848877,483.350616 329.471405,483.788635 331.424530,483.783813 
	C345.891724,483.748077 360.359009,483.741486 374.826263,483.730133 
	C376.374329,483.728912 377.866974,483.551208 378.749908,482.070251 
	C380.915894,478.437134 383.517120,475.014343 384.814117,470.384338 
	C371.738495,470.384338 359.119324,470.384338 345.500092,470.383209 
z"/>
<path fill="#000000" opacity="1.000000" stroke="none" 
	d="
M327.982788,203.034607 
	C336.195129,188.982697 344.227325,175.249634 353.045959,160.171921 
	C368.502502,186.846649 383.314484,212.408920 398.641785,238.860626 
	C367.820038,238.860626 338.328674,238.860626 307.493805,238.860626 
	C314.555176,226.514771 321.178894,214.934113 327.982788,203.034607 
M352.500122,213.724594 
	C359.705383,213.724594 366.910645,213.724594 375.214294,213.724594 
	C367.553528,200.462357 360.624451,188.466843 353.000916,175.269089 
	C345.370880,188.515564 338.408997,200.602081 330.850739,213.723953 
	C338.618164,213.723953 345.059235,213.723953 352.500122,213.724594 
M336.505768,231.722504 
	C352.529205,231.722504 368.552643,231.722504 385.466980,231.722504 
	C383.221405,227.747757 381.385437,224.814117 379.872406,221.722443 
	C378.602081,219.126755 376.766602,218.225662 373.930145,218.246307 
	C359.970459,218.347916 346.009644,218.292358 332.049225,218.303375 
	C330.398804,218.304672 328.590027,218.071640 327.482727,219.665558 
	C324.979889,223.268326 322.696289,226.999344 320.927856,231.721375 
	C326.239899,231.721375 330.874939,231.721375 336.505768,231.722504 
z"/>
<path fill="#000000" opacity="1.000000" stroke="none" 
	d="
M532.026184,358.028351 
	C538.406128,369.115692 544.600159,379.888062 551.265503,391.480225 
	C520.619934,391.480225 490.927246,391.480225 459.906647,391.480225 
	C475.246490,364.965302 490.001648,339.461060 505.530701,312.619110 
	C514.724915,328.377899 523.282532,343.045654 532.026184,358.028351 
M533.434570,376.004120 
	C524.330078,360.285614 515.225586,344.567078 505.608002,327.962799 
	C494.527069,347.140564 484.041962,365.287109 473.401215,383.703064 
	C495.195587,383.703064 516.154297,383.703064 537.640015,383.703064 
	C536.156799,380.988312 534.969727,378.815521 533.434570,376.004120 
z"/>
<path fill="#000000" opacity="1.000000" stroke="none" 
	d="
M234.880478,313.393188 
	C237.800644,313.932373 240.508423,312.430298 243.021713,313.891907 
	C242.074707,317.739319 201.925720,387.203094 198.013397,391.284729 
	C183.089615,365.577484 168.317871,340.132111 152.960022,313.677185 
	C180.702820,312.826477 207.613174,313.020966 234.880478,313.393188 
M228.216492,325.874054 
	C228.950027,324.287415 230.507141,323.003571 230.001953,320.357666 
	C208.973145,321.474701 187.918808,320.440887 165.696777,320.661346 
	C176.842667,339.858978 187.426651,358.088776 198.490036,377.144318 
	C208.698090,359.537354 218.278656,343.012695 228.216492,325.874054 
z"/>
</svg>