<?xml version="1.0" encoding="UTF-8"?>
<svg xmlns="http://www.w3.org/2000/svg" xmlns:xlink="http://www.w3.org/1999/xlink" width="45px" height="45px" viewBox="0 0 45 45" version="1.1">
<g id="surface1">
<path style=" stroke:none;fill-rule:nonzero;fill:rgb(0%,0%,0%);fill-opacity:1;" d="M 25.75 0.0859375 C 32.195312 0.0859375 38.636719 0.0859375 45.082031 0.0859375 C 45.082031 15.085938 45.082031 30.085938 45.082031 45.085938 C 43.558594 45.085938 42.035156 45.085938 40.472656 45.054688 C 40.519531 44.828125 40.679688 44.636719 40.679688 44.445312 C 40.683594 43.863281 40.667969 43.277344 40.578125 42.703125 C 40.296875 40.886719 39.722656 39.171875 38.789062 37.578125 C 37.492188 35.367188 35.714844 33.648438 33.429688 32.507812 C 31.636719 31.613281 29.714844 31.152344 27.6875 31.160156 C 27.683594 30.152344 27.679688 29.183594 27.679688 28.175781 C 27.691406 27.546875 27.691406 26.960938 27.722656 26.359375 C 28.363281 25.703125 29.039062 25.105469 29.574219 24.402344 C 30.03125 23.800781 30.328125 23.078125 30.71875 22.402344 C 32.273438 20.859375 32.65625 19.078125 31.925781 17.035156 C 32.375 16.410156 32.875 15.84375 33.210938 15.191406 C 34.199219 13.273438 34.375 11.230469 34.03125 9.113281 C 33.6875 6.972656 32.765625 5.121094 31.335938 3.527344 C 29.886719 1.917969 28.121094 0.792969 26 0.269531 C 25.90625 0.246094 25.835938 0.148438 25.75 0.0859375 Z M 25.75 0.0859375 "/>
<path style=" stroke:none;fill-rule:nonzero;fill:rgb(0%,0%,0%);fill-opacity:1;" d="M 4.835938 45.085938 C 3.253906 45.085938 1.671875 45.085938 0.0898438 45.085938 C 0.0898438 30.097656 0.0898438 15.105469 0.0898438 0.0859375 C 7.53125 0.0859375 14.972656 0.0859375 22.453125 0.121094 C 22.433594 0.191406 22.382812 0.246094 22.316406 0.261719 C 21.238281 0.523438 20.261719 0.984375 19.414062 1.710938 C 19.238281 1.859375 19.066406 1.871094 18.824219 1.785156 C 17.566406 1.339844 16.285156 1.210938 14.964844 1.488281 C 13.71875 1.746094 12.644531 2.335938 11.683594 3.136719 C 11.304688 3.453125 10.996094 3.847656 10.652344 4.207031 C 13.101562 3.882812 13.128906 3.882812 13.550781 4.261719 C 13.53125 4.285156 13.511719 4.308594 13.488281 4.320312 C 13.359375 4.390625 13.230469 4.457031 13.101562 4.523438 C 11.976562 5.101562 11.210938 6 10.707031 7.140625 C 9.859375 9.054688 9.988281 11.039062 10.339844 13.023438 C 10.65625 14.828125 11.246094 16.550781 12.222656 18.15625 C 12.074219 19.828125 12.492188 21.261719 13.71875 22.429688 C 13.742188 22.472656 13.769531 22.488281 13.792969 22.503906 C 13.792969 22.5 13.785156 22.503906 13.792969 22.535156 C 14.464844 24.089844 15.460938 25.359375 16.78125 26.414062 C 16.789062 27.042969 16.792969 27.628906 16.792969 28.257812 C 16.785156 29.265625 16.78125 30.234375 16.738281 31.203125 C 15.183594 31.183594 13.714844 31.453125 12.304688 32.003906 C 9.601562 33.066406 7.628906 34.941406 6.261719 37.484375 C 5.339844 39.199219 4.820312 41.046875 4.597656 42.96875 C 4.515625 43.664062 4.234375 44.441406 4.835938 45.085938 Z M 4.835938 45.085938 "/>
<path style=" stroke:none;fill-rule:nonzero;fill:rgb(17.254902%,18.431373%,21.960784%);fill-opacity:1;" d="M 12.226562 18.117188 C 11.246094 16.550781 10.65625 14.828125 10.339844 13.023438 C 9.988281 11.039062 9.859375 9.054688 10.707031 7.140625 C 11.210938 6 11.976562 5.101562 13.101562 4.523438 C 13.230469 4.457031 13.359375 4.390625 13.488281 4.320312 C 13.511719 4.308594 13.53125 4.285156 13.550781 4.261719 C 13.128906 3.882812 13.101562 3.882812 10.652344 4.207031 C 10.996094 3.847656 11.304688 3.453125 11.683594 3.136719 C 12.644531 2.335938 13.71875 1.746094 14.964844 1.488281 C 16.285156 1.210938 17.566406 1.339844 18.824219 1.785156 C 19.066406 1.871094 19.238281 1.859375 19.414062 1.710938 C 20.261719 0.984375 21.238281 0.523438 22.316406 0.261719 C 22.382812 0.246094 22.433594 0.191406 22.496094 0.121094 C 23.554688 0.0859375 24.613281 0.0859375 25.710938 0.0859375 C 25.835938 0.148438 25.90625 0.246094 26 0.269531 C 28.121094 0.792969 29.886719 1.917969 31.335938 3.527344 C 32.765625 5.121094 33.6875 6.972656 34.03125 9.113281 C 34.375 11.230469 34.199219 13.273438 33.210938 15.191406 C 32.875 15.84375 32.375 16.410156 31.902344 17.019531 C 31.773438 16.851562 31.699219 16.6875 31.628906 16.480469 C 31.816406 15.011719 31.789062 13.585938 31.550781 12.160156 C 31.359375 11.015625 30.855469 10.058594 29.933594 9.339844 C 29.546875 9.039062 29.324219 9.15625 29.171875 9.605469 C 28.960938 10.234375 28.777344 10.921875 28.382812 11.425781 C 27.757812 12.226562 27.003906 12.933594 26.234375 13.605469 C 25.429688 14.308594 25.339844 14.25 24.976562 13.257812 C 24.503906 11.96875 23.890625 10.761719 22.871094 9.808594 C 21.980469 8.972656 20.9375 8.628906 19.722656 8.949219 C 17.648438 9.503906 16.253906 10.808594 15.511719 12.816406 C 15.277344 13.449219 15.140625 13.523438 14.570312 13.144531 C 14.015625 12.773438 13.496094 12.351562 12.90625 11.914062 C 12.847656 12.140625 12.746094 12.359375 12.742188 12.574219 C 12.738281 13.917969 12.757812 15.261719 12.757812 16.640625 C 12.574219 17.152344 12.398438 17.632812 12.226562 18.117188 Z M 12.226562 18.117188 "/>
<path style=" stroke:none;fill-rule:nonzero;fill:rgb(17.254902%,18.431373%,21.960784%);fill-opacity:1;" d="M 27.691406 31.199219 C 29.714844 31.152344 31.636719 31.613281 33.429688 32.507812 C 35.714844 33.648438 37.492188 35.367188 38.789062 37.578125 C 39.722656 39.171875 40.296875 40.886719 40.578125 42.703125 C 40.667969 43.277344 40.683594 43.863281 40.679688 44.445312 C 40.679688 44.636719 40.519531 44.828125 40.429688 45.054688 C 36.179688 45.085938 31.929688 45.085938 27.644531 45.046875 C 27.605469 43.566406 27.601562 42.128906 27.613281 40.65625 C 27.636719 40.523438 27.660156 40.421875 27.660156 40.320312 C 27.664062 38.226562 27.664062 36.136719 27.660156 34.042969 C 27.660156 33.945312 27.625 33.847656 27.605469 33.707031 C 27.617188 32.847656 27.621094 32.03125 27.644531 31.210938 C 27.660156 31.207031 27.691406 31.199219 27.691406 31.199219 Z M 27.691406 31.199219 "/>
<path style=" stroke:none;fill-rule:nonzero;fill:rgb(17.254902%,18.431373%,21.960784%);fill-opacity:1;" d="M 4.875 45.085938 C 4.234375 44.441406 4.515625 43.664062 4.597656 42.96875 C 4.820312 41.046875 5.339844 39.199219 6.261719 37.484375 C 7.628906 34.941406 9.601562 33.066406 12.304688 32.003906 C 13.714844 31.453125 15.183594 31.183594 16.75 31.203125 C 16.804688 31.207031 16.828125 31.214844 16.832031 31.253906 C 16.847656 32.140625 16.855469 32.988281 16.847656 33.863281 C 16.816406 36.089844 16.808594 38.289062 16.804688 40.488281 C 16.804688 40.554688 16.84375 40.625 16.859375 40.734375 C 16.863281 42.214844 16.867188 43.652344 16.875 45.085938 C 12.890625 45.085938 8.902344 45.085938 4.875 45.085938 Z M 4.875 45.085938 "/>
<path style=" stroke:none;fill-rule:nonzero;fill:rgb(49.803922%,54.509807%,54.901963%);fill-opacity:1;" d="M 16.863281 40.695312 C 16.84375 40.625 16.804688 40.554688 16.804688 40.488281 C 16.808594 38.289062 16.816406 36.089844 16.871094 33.882812 C 17.476562 35.203125 18 36.546875 18.605469 37.855469 C 18.875 38.4375 19.308594 38.945312 19.679688 39.515625 C 20.265625 40.5 21.085938 41.222656 22 41.839844 C 22.109375 41.910156 22.34375 41.917969 22.445312 41.847656 C 23.378906 41.207031 24.238281 40.488281 24.832031 39.46875 C 25.304688 38.722656 25.816406 38.023438 26.175781 37.25 C 26.707031 36.109375 27.132812 34.917969 27.605469 33.75 C 27.625 33.847656 27.660156 33.945312 27.660156 34.042969 C 27.664062 36.136719 27.664062 38.226562 27.660156 40.320312 C 27.660156 40.421875 27.636719 40.523438 27.585938 40.671875 C 27.515625 40.75 27.480469 40.777344 27.457031 40.816406 C 26.332031 42.671875 24.769531 44.019531 22.777344 44.875 C 22.699219 44.90625 22.648438 45.015625 22.585938 45.085938 C 22.378906 45.085938 22.171875 45.085938 21.917969 45.058594 C 21.808594 44.972656 21.753906 44.894531 21.679688 44.863281 C 19.914062 44.140625 18.519531 42.957031 17.398438 41.429688 C 17.21875 41.183594 17.042969 40.9375 16.863281 40.695312 Z M 16.863281 40.695312 "/>
<path style=" stroke:none;fill-rule:nonzero;fill:rgb(58.431375%,64.705884%,64.705884%);fill-opacity:1;" d="M 22.628906 45.085938 C 22.648438 45.015625 22.699219 44.90625 22.777344 44.875 C 24.769531 44.019531 26.332031 42.671875 27.457031 40.816406 C 27.480469 40.777344 27.515625 40.75 27.574219 40.707031 C 27.601562 42.128906 27.605469 43.566406 27.601562 45.046875 C 25.957031 45.085938 24.3125 45.085938 22.628906 45.085938 Z M 22.628906 45.085938 "/>
<path style=" stroke:none;fill-rule:nonzero;fill:rgb(58.431375%,64.705884%,64.705884%);fill-opacity:1;" d="M 16.859375 40.734375 C 17.042969 40.9375 17.21875 41.183594 17.398438 41.429688 C 18.519531 42.957031 19.914062 44.140625 21.679688 44.863281 C 21.753906 44.894531 21.808594 44.972656 21.878906 45.058594 C 20.242188 45.085938 18.601562 45.085938 16.917969 45.085938 C 16.867188 43.652344 16.863281 42.214844 16.859375 40.734375 Z M 16.859375 40.734375 "/>
<path style=" stroke:none;fill-rule:nonzero;fill:rgb(99.215686%,84.313726%,67.843139%);fill-opacity:1;" d="M 16.777344 26.375 C 15.460938 25.359375 14.464844 24.089844 13.824219 22.53125 C 13.964844 22.554688 14.082031 22.609375 14.191406 22.679688 C 15.800781 23.726562 17.46875 23.851562 19.140625 22.894531 C 20.535156 22.101562 21.316406 20.871094 21.4375 19.214844 C 21.835938 18.746094 22.777344 18.785156 23.035156 19.285156 C 23.117188 19.71875 23.160156 20.132812 23.296875 20.511719 C 23.992188 22.480469 26.058594 23.726562 28.097656 23.492188 C 29.082031 23.382812 29.902344 22.949219 30.691406 22.410156 C 30.328125 23.078125 30.03125 23.800781 29.574219 24.402344 C 29.039062 25.105469 28.363281 25.703125 27.691406 26.363281 C 27.484375 26.464844 27.332031 26.550781 27.183594 26.644531 C 24.324219 28.433594 21.363281 28.648438 18.300781 27.210938 C 17.777344 26.964844 17.285156 26.652344 16.777344 26.375 Z M 16.777344 26.375 "/>
<path style=" stroke:none;fill-rule:nonzero;fill:rgb(58.823532%,64.705884%,64.705884%);fill-opacity:1;" d="M 30.71875 22.402344 C 29.902344 22.949219 29.082031 23.382812 28.097656 23.492188 C 26.058594 23.726562 23.992188 22.480469 23.296875 20.511719 C 23.160156 20.132812 23.117188 19.71875 23.058594 19.300781 C 23.648438 19.800781 23.71875 19.804688 24.390625 19.371094 C 24.425781 19.347656 24.476562 19.347656 24.539062 19.359375 C 24.59375 19.492188 24.628906 19.605469 24.660156 19.71875 C 25.0625 21.214844 26.566406 22.195312 28.082031 21.957031 C 29.425781 21.75 30.5625 20.570312 30.671875 19.28125 C 30.800781 17.773438 30 16.488281 28.632812 16.003906 C 27.296875 15.527344 25.816406 16.011719 25.0625 17.222656 C 24.816406 17.621094 24.699219 18.101562 24.5 18.527344 C 24.214844 17.996094 23.808594 17.652344 23.269531 17.429688 C 23.300781 17.300781 23.320312 17.199219 23.359375 17.105469 C 24.464844 14.492188 27.730469 13.464844 30.09375 15.039062 C 30.671875 15.425781 31.117188 16.019531 31.621094 16.519531 C 31.699219 16.6875 31.773438 16.851562 31.875 17.035156 C 32.65625 19.078125 32.273438 20.859375 30.71875 22.402344 Z M 30.71875 22.402344 "/>
<path style=" stroke:none;fill-rule:nonzero;fill:rgb(98.823529%,84.313726%,67.843139%);fill-opacity:1;" d="M 16.828125 31.214844 C 16.828125 31.214844 16.804688 31.207031 16.792969 31.203125 C 16.78125 30.234375 16.785156 29.265625 16.824219 28.257812 C 16.949219 28.265625 17.050781 28.296875 17.132812 28.355469 C 18.542969 29.351562 20.128906 29.859375 21.832031 29.953125 C 23.507812 30.042969 25.097656 29.644531 26.578125 28.832031 C 26.945312 28.632812 27.308594 28.421875 27.675781 28.214844 C 27.679688 29.183594 27.683594 30.152344 27.6875 31.160156 C 27.691406 31.199219 27.660156 31.207031 27.605469 31.210938 C 26.992188 31.300781 26.429688 31.382812 25.871094 31.464844 C 24.675781 31.644531 23.480469 31.824219 22.269531 32.011719 C 22.230469 32.023438 22.207031 32.019531 22.148438 32 C 22.011719 31.964844 21.914062 31.929688 21.816406 31.914062 C 20.152344 31.679688 18.488281 31.445312 16.828125 31.214844 Z M 16.828125 31.214844 "/>
<path style=" stroke:none;fill-rule:nonzero;fill:rgb(80.000001%,69.803923%,57.254905%);fill-opacity:1;" d="M 27.679688 28.175781 C 27.308594 28.421875 26.945312 28.632812 26.578125 28.832031 C 25.097656 29.644531 23.507812 30.042969 21.832031 29.953125 C 20.128906 29.859375 18.542969 29.351562 17.132812 28.355469 C 17.050781 28.296875 16.949219 28.265625 16.828125 28.21875 C 16.792969 27.628906 16.789062 27.042969 16.78125 26.414062 C 17.285156 26.652344 17.777344 26.964844 18.300781 27.210938 C 21.363281 28.648438 24.324219 28.433594 27.183594 26.644531 C 27.332031 26.550781 27.484375 26.464844 27.664062 26.375 C 27.691406 26.960938 27.691406 27.546875 27.679688 28.175781 Z M 27.679688 28.175781 "/>
<path style=" stroke:none;fill-rule:nonzero;fill:rgb(58.823532%,65.098041%,64.705884%);fill-opacity:1;" d="M 21.425781 19.246094 C 21.316406 20.871094 20.535156 22.101562 19.140625 22.894531 C 17.46875 23.851562 15.800781 23.726562 14.191406 22.679688 C 14.082031 22.609375 13.964844 22.554688 13.816406 22.496094 C 13.785156 22.503906 13.792969 22.5 13.792969 22.480469 C 13.769531 22.441406 13.746094 22.421875 13.722656 22.40625 C 12.492188 21.261719 12.074219 19.828125 12.222656 18.15625 C 12.398438 17.632812 12.574219 17.152344 12.78125 16.621094 C 12.863281 16.519531 12.921875 16.472656 12.960938 16.414062 C 14.007812 14.871094 15.472656 14.210938 17.316406 14.320312 C 19.011719 14.417969 20.757812 15.820312 21.175781 17.484375 C 20.75 17.789062 20.351562 18.082031 19.933594 18.347656 C 19.46875 16.808594 18.394531 15.875 17.003906 15.824219 C 15.300781 15.761719 13.652344 17.132812 13.792969 19.101562 C 13.886719 20.425781 14.554688 21.347656 15.773438 21.796875 C 16.902344 22.214844 17.984375 22.042969 18.925781 21.214844 C 19.503906 20.707031 19.777344 20.042969 19.996094 19.335938 C 20.714844 19.824219 20.78125 19.820312 21.425781 19.246094 Z M 21.425781 19.246094 "/>
<path style=" stroke:none;fill-rule:nonzero;fill:rgb(99.215686%,84.313726%,67.843139%);fill-opacity:1;" d="M 13.71875 22.429688 C 13.746094 22.421875 13.769531 22.441406 13.796875 22.484375 C 13.769531 22.488281 13.742188 22.472656 13.71875 22.429688 Z M 13.71875 22.429688 "/>
<path style=" stroke:none;fill-rule:nonzero;fill:rgb(98.823529%,83.92157%,67.450982%);fill-opacity:1;" d="M 21.203125 17.46875 C 20.757812 15.820312 19.011719 14.417969 17.316406 14.320312 C 15.472656 14.210938 14.007812 14.871094 12.960938 16.414062 C 12.921875 16.472656 12.863281 16.519531 12.789062 16.589844 C 12.757812 15.261719 12.738281 13.917969 12.742188 12.574219 C 12.746094 12.359375 12.847656 12.140625 12.90625 11.914062 C 13.496094 12.351562 14.015625 12.773438 14.570312 13.144531 C 15.140625 13.523438 15.277344 13.449219 15.511719 12.816406 C 16.253906 10.808594 17.648438 9.503906 19.722656 8.949219 C 20.9375 8.628906 21.980469 8.972656 22.871094 9.808594 C 23.890625 10.761719 24.503906 11.96875 24.976562 13.257812 C 25.339844 14.25 25.429688 14.308594 26.234375 13.605469 C 27.003906 12.933594 27.757812 12.226562 28.382812 11.425781 C 28.777344 10.921875 28.960938 10.234375 29.171875 9.605469 C 29.324219 9.15625 29.546875 9.039062 29.933594 9.339844 C 30.855469 10.058594 31.359375 11.015625 31.550781 12.160156 C 31.789062 13.585938 31.816406 15.011719 31.628906 16.480469 C 31.117188 16.019531 30.671875 15.425781 30.09375 15.039062 C 27.730469 13.464844 24.464844 14.492188 23.359375 17.105469 C 23.320312 17.199219 23.300781 17.300781 23.234375 17.433594 C 22.53125 17.46875 21.867188 17.46875 21.203125 17.46875 M 21.820312 15.058594 C 21.898438 14.46875 22 13.878906 22.054688 13.285156 C 22.09375 12.828125 21.855469 12.507812 21.4375 12.320312 C 21.265625 12.242188 21.089844 12.171875 20.90625 12.117188 C 20.542969 12.007812 20.25 11.882812 20.257812 11.394531 C 20.261719 11.03125 19.988281 10.78125 19.609375 10.730469 C 19.25 10.6875 18.976562 10.84375 18.820312 11.167969 C 18.429688 11.980469 18.820312 12.960938 19.660156 13.296875 C 20.492188 13.628906 20.496094 13.628906 20.363281 14.527344 C 20.300781 14.949219 20.40625 15.285156 20.816406 15.464844 C 21.238281 15.648438 21.550781 15.476562 21.820312 15.058594 Z M 21.820312 15.058594 "/>
<path style=" stroke:none;fill-rule:nonzero;fill:rgb(95.686275%,93.333334%,78.823531%);fill-opacity:1;" d="M 22.285156 32.003906 C 23.480469 31.824219 24.675781 31.644531 25.871094 31.464844 C 26.429688 31.382812 26.992188 31.300781 27.589844 31.214844 C 27.621094 32.03125 27.617188 32.847656 27.605469 33.707031 C 27.132812 34.917969 26.707031 36.109375 26.175781 37.25 C 25.816406 38.023438 25.304688 38.722656 24.824219 39.429688 C 24.460938 37.753906 24.128906 36.105469 23.804688 34.421875 C 23.9375 34.222656 24.046875 34.03125 24.203125 33.894531 C 24.519531 33.621094 24.445312 33.441406 24.125 33.234375 C 23.503906 32.839844 22.898438 32.417969 22.285156 32.003906 Z M 22.285156 32.003906 "/>
<path style=" stroke:none;fill-rule:nonzero;fill:rgb(95.686275%,93.333334%,78.823531%);fill-opacity:1;" d="M 16.832031 31.253906 C 18.488281 31.445312 20.152344 31.679688 21.816406 31.914062 C 21.914062 31.929688 22.011719 31.964844 22.125 32.019531 C 21.539062 32.453125 20.941406 32.867188 20.324219 33.25 C 19.96875 33.46875 19.988281 33.652344 20.273438 33.914062 C 20.4375 34.0625 20.542969 34.273438 20.664062 34.492188 C 20.328125 36.179688 20 37.832031 19.671875 39.484375 C 19.308594 38.945312 18.875 38.4375 18.605469 37.855469 C 18 36.546875 17.476562 35.203125 16.894531 33.851562 C 16.855469 32.988281 16.847656 32.140625 16.832031 31.253906 Z M 16.832031 31.253906 "/>
<path style=" stroke:none;fill-rule:nonzero;fill:rgb(75.294119%,23.137255%,17.254902%);fill-opacity:1;" d="M 19.679688 39.515625 C 20 37.832031 20.328125 36.179688 20.691406 34.496094 C 21.097656 34.8125 21.46875 35.15625 21.835938 35.503906 C 22.210938 35.867188 22.257812 35.863281 22.648438 35.496094 C 23.023438 35.140625 23.414062 34.800781 23.800781 34.457031 C 24.128906 36.105469 24.460938 37.753906 24.800781 39.441406 C 24.238281 40.488281 23.378906 41.207031 22.445312 41.847656 C 22.34375 41.917969 22.109375 41.910156 22 41.839844 C 21.085938 41.222656 20.265625 40.5 19.679688 39.515625 Z M 19.679688 39.515625 "/>
<path style=" stroke:none;fill-rule:nonzero;fill:rgb(50.196081%,54.901963%,55.29412%);fill-opacity:1;" d="M 21.175781 17.484375 C 21.867188 17.46875 22.53125 17.46875 23.230469 17.464844 C 23.808594 17.652344 24.214844 17.996094 24.503906 18.566406 C 24.523438 18.859375 24.519531 19.097656 24.515625 19.335938 C 24.476562 19.347656 24.425781 19.347656 24.390625 19.371094 C 23.71875 19.804688 23.648438 19.800781 23.0625 19.261719 C 22.777344 18.785156 21.835938 18.746094 21.4375 19.214844 C 20.78125 19.820312 20.714844 19.824219 19.992188 19.296875 C 19.957031 18.957031 19.957031 18.664062 19.957031 18.371094 C 20.351562 18.082031 20.75 17.789062 21.175781 17.484375 Z M 21.175781 17.484375 "/>
<path style=" stroke:none;fill-rule:nonzero;fill:rgb(69.01961%,82.745099%,93.725491%);fill-opacity:1;" d="M 24.539062 19.359375 C 24.519531 19.097656 24.523438 18.859375 24.523438 18.585938 C 24.699219 18.101562 24.816406 17.621094 25.0625 17.222656 C 25.816406 16.011719 27.296875 15.527344 28.632812 16.003906 C 30 16.488281 30.800781 17.773438 30.671875 19.28125 C 30.5625 20.570312 29.425781 21.75 28.082031 21.957031 C 26.566406 22.195312 25.0625 21.214844 24.660156 19.71875 C 24.628906 19.605469 24.59375 19.492188 24.539062 19.359375 Z M 24.539062 19.359375 "/>
<path style=" stroke:none;fill-rule:nonzero;fill:rgb(79.607844%,30.19608%,30.19608%);fill-opacity:1;" d="M 23.804688 34.421875 C 23.414062 34.800781 23.023438 35.140625 22.648438 35.496094 C 22.257812 35.863281 22.210938 35.867188 21.835938 35.503906 C 21.46875 35.15625 21.097656 34.8125 20.703125 34.460938 C 20.542969 34.273438 20.4375 34.0625 20.273438 33.914062 C 19.988281 33.652344 19.96875 33.46875 20.324219 33.25 C 20.941406 32.867188 21.539062 32.453125 22.164062 32.027344 C 22.207031 32.019531 22.230469 32.023438 22.269531 32.011719 C 22.898438 32.417969 23.503906 32.839844 24.125 33.234375 C 24.445312 33.441406 24.519531 33.621094 24.203125 33.894531 C 24.046875 34.03125 23.9375 34.222656 23.804688 34.421875 Z M 23.804688 34.421875 "/>
<path style=" stroke:none;fill-rule:nonzero;fill:rgb(69.01961%,82.745099%,94.117647%);fill-opacity:1;" d="M 19.933594 18.347656 C 19.957031 18.664062 19.957031 18.957031 19.960938 19.289062 C 19.777344 20.042969 19.503906 20.707031 18.925781 21.214844 C 17.984375 22.042969 16.902344 22.214844 15.773438 21.796875 C 14.554688 21.347656 13.886719 20.425781 13.792969 19.101562 C 13.652344 17.132812 15.300781 15.761719 17.003906 15.824219 C 18.394531 15.875 19.46875 16.808594 19.933594 18.347656 Z M 19.933594 18.347656 "/>
<path style=" stroke:none;fill-rule:nonzero;fill:rgb(98.431373%,49.019608%,46.666667%);fill-opacity:1;" d="M 21.804688 15.089844 C 21.550781 15.476562 21.238281 15.648438 20.816406 15.464844 C 20.40625 15.285156 20.300781 14.949219 20.363281 14.527344 C 20.496094 13.628906 20.492188 13.628906 19.660156 13.296875 C 18.820312 12.960938 18.429688 11.980469 18.820312 11.167969 C 18.976562 10.84375 19.25 10.6875 19.609375 10.730469 C 19.988281 10.78125 20.261719 11.03125 20.257812 11.394531 C 20.25 11.882812 20.542969 12.007812 20.90625 12.117188 C 21.089844 12.171875 21.265625 12.242188 21.4375 12.320312 C 21.855469 12.507812 22.09375 12.828125 22.054688 13.285156 C 22 13.878906 21.898438 14.46875 21.804688 15.089844 Z M 21.804688 15.089844 "/>
</g>
</svg>
